Literata-M5.ufo
<glyph name="exclam" format="2">
	<unicode hex="0021"/>
	<advance width="283"/>
	<outline>
		<contour>
			<point x="131" y="175" type="line"/>
			<point x="150" y="175" type="line"/>
			<point x="150" y="275" type="line" smooth="yes"/>
			<point x="150" y="471"/>
			<point x="182" y="585"/>
			<point x="182" y="679" type="curve" smooth="yes"/>
			<point x="182" y="722"/>
			<point x="175" y="744"/>
			<point x="144" y="744" type="curve" smooth="yes"/>
			<point x="109" y="744"/>
			<point x="102" y="718"/>
			<point x="102" y="679" type="curve" smooth="yes"/>
			<point x="102" y="573"/>
			<point x="131" y="447"/>
			<point x="131" y="276" type="curve" smooth="yes"/>
		</contour>
		<contour>
			<point x="140" y="-7" type="curve" smooth="yes"/>
			<point x="170" y="-7"/>
			<point x="191" y="14"/>
			<point x="191" y="43" type="curve" smooth="yes"/>
			<point x="191" y="71"/>
			<point x="169" y="93"/>
			<point x="140" y="93" type="curve" smooth="yes"/>
			<point x="112" y="93"/>
			<point x="91" y="71"/>
			<point x="91" y="42" type="curve" smooth="yes"/>
			<point x="91" y="14"/>
			<point x="112" y="-7"/>
		</contour>
	</outline>
</glyph>
<glyph name="quotedbl" format="2">
	<unicode hex="0022"/>
	<advance width="342"/>
	<outline>
		<contour>
			<point x="95" y="563" type="line"/>
			<point x="105" y="563" type="line"/>
			<point x="133" y="710" type="line" smooth="yes"/>
			<point x="136" y="728"/>
			<point x="137" y="735"/>
			<point x="137" y="748" type="curve" smooth="yes"/>
			<point x="137" y="765"/>
			<point x="124" y="775"/>
			<point x="108" y="775" type="curve" smooth="yes"/>
			<point x="83" y="775"/>
			<point x="70" y="754"/>
			<point x="70" y="726" type="curve" smooth="yes"/>
			<point x="70" y="718"/>
			<point x="71" y="710"/>
			<point x="72" y="704" type="curve" smooth="yes"/>
		</contour>
		<contour>
			<point x="230" y="563" type="line"/>
			<point x="240" y="563" type="line"/>
			<point x="268" y="710" type="line" smooth="yes"/>
			<point x="271" y="728"/>
			<point x="272" y="735"/>
			<point x="272" y="748" type="curve" smooth="yes"/>
			<point x="272" y="765"/>
			<point x="259" y="775"/>
			<point x="243" y="775" type="curve" smooth="yes"/>
			<point x="218" y="775"/>
			<point x="205" y="754"/>
			<point x="205" y="726" type="curve" smooth="yes"/>
			<point x="205" y="718"/>
			<point x="206" y="710"/>
			<point x="207" y="704" type="curve" smooth="yes"/>
		</contour>
	</outline>
</glyph>
<glyph name="ampersand" format="2">
	<unicode hex="0026"/>
	<advance width="799"/>
	<outline>
		<contour>
			<point x="295" y="-14" type="curve" smooth="yes"/>
			<point x="409" y="-14"/>
			<point x="476" y="51"/>
			<point x="508" y="112" type="curve"/>
			<point x="596" y="22"/>
			<point x="617" y="-10"/>
			<point x="676" y="-10" type="curve" smooth="yes"/>
			<point x="727" y="-10"/>
			<point x="752" y="19"/>
			<point x="784" y="54" type="curve"/>
			<point x="777" y="61" type="line"/>
			<point x="756" y="39"/>
			<point x="735" y="27"/>
			<point x="701" y="27" type="curve" smooth="yes"/>
			<point x="653" y="27"/>
			<point x="629" y="58"/>
			<point x="526" y="165" type="curve"/>
			<point x="559" y="368"/>
			<point x="614" y="450"/>
			<point x="664" y="458" type="curve"/>
			<point x="679" y="410"/>
			<point x="688" y="376"/>
			<point x="721" y="376" type="curve" smooth="yes"/>
			<point x="742" y="376"/>
			<point x="762" y="395"/>
			<point x="762" y="425" type="curve" smooth="yes"/>
			<point x="762" y="463"/>
			<point x="734" y="484"/>
			<point x="699" y="484" type="curve" smooth="yes"/>
			<point x="631" y="484"/>
			<point x="558" y="435"/>
			<point x="512" y="177" type="curve"/>
			<point x="309" y="379" type="line"/>
			<point x="406" y="430"/>
			<point x="474" y="484"/>
			<point x="474" y="575" type="curve" smooth="yes"/>
			<point x="474" y="656"/>
			<point x="409" y="714"/>
			<point x="319" y="714" type="curve" smooth="yes"/>
			<point x="214" y="714"/>
			<point x="140" y="652"/>
			<point x="140" y="552" type="curve" smooth="yes"/>
			<point x="140" y="464"/>
			<point x="206" y="404"/>
			<point x="247" y="369" type="curve"/>
			<point x="159" y="338"/>
			<point x="56" y="296"/>
			<point x="56" y="181" type="curve" smooth="yes"/>
			<point x="56" y="60"/>
			<point x="155" y="-14"/>
		</contour>
		<contour>
			<point x="297" y="3" type="curve" smooth="yes"/>
			<point x="176" y="3"/>
			<point x="110" y="71"/>
			<point x="110" y="175" type="curve" smooth="yes"/>
			<point x="110" y="263"/>
			<point x="171" y="317"/>
			<point x="259" y="358" type="curve"/>
			<point x="496" y="125" type="line"/>
			<point x="459" y="50"/>
			<point x="392" y="3"/>
		</contour>
		<contour>
			<point x="296" y="390" type="curve"/>
			<point x="207" y="472"/>
			<point x="178" y="516"/>
			<point x="178" y="580" type="curve" smooth="yes"/>
			<point x="178" y="649"/>
			<point x="227" y="699"/>
			<point x="318" y="699" type="curve" smooth="yes"/>
			<point x="406" y="699"/>
			<point x="458" y="643"/>
			<point x="458" y="572" type="curve" smooth="yes"/>
			<point x="458" y="496"/>
			<point x="400" y="440"/>
		</contour>
	</outline>
</glyph>
<glyph name="quotesingle" format="2">
	<unicode hex="0027"/>
	<advance width="207"/>
	<outline>
		<contour>
			<point x="95" y="563" type="line"/>
			<point x="105" y="563" type="line"/>
			<point x="133" y="710" type="line" smooth="yes"/>
			<point x="136" y="728"/>
			<point x="137" y="735"/>
			<point x="137" y="748" type="curve" smooth="yes"/>
			<point x="137" y="765"/>
			<point x="124" y="775"/>
			<point x="108" y="775" type="curve" smooth="yes"/>
			<point x="83" y="775"/>
			<point x="70" y="754"/>
			<point x="70" y="726" type="curve" smooth="yes"/>
			<point x="70" y="718"/>
			<point x="71" y="710"/>
			<point x="72" y="704" type="curve" smooth="yes"/>
		</contour>
	</outline>
</glyph>
<glyph name="parenleft" format="2">
	<unicode hex="0028"/>
	<advance width="279"/>
	<outline>
		<contour>
			<point x="244" y="-192" type="curve"/>
			<point x="253" y="-185" type="line"/>
			<point x="160" y="-51"/>
			<point x="105" y="116"/>
			<point x="105" y="305" type="curve" smooth="yes"/>
			<point x="105" y="496"/>
			<point x="170" y="660"/>
			<point x="264" y="797" type="curve"/>
			<point x="255" y="803" type="line"/>
			<point x="197" y="725"/>
			<point x="57" y="536"/>
			<point x="57" y="297" type="curve" smooth="yes"/>
			<point x="57" y="73"/>
			<point x="195" y="-127"/>
		</contour>
	</outline>
</glyph>
<glyph name="parenright" format="2">
	<unicode hex="0029"/>
	<advance width="279"/>
	<outline>
		<contour>
			<point x="24" y="-192" type="line"/>
			<point x="82" y="-114"/>
			<point x="222" y="75"/>
			<point x="222" y="314" type="curve" smooth="yes"/>
			<point x="222" y="538"/>
			<point x="84" y="738"/>
			<point x="35" y="803" type="curve"/>
			<point x="26" y="796" type="line"/>
			<point x="119" y="662"/>
			<point x="174" y="495"/>
			<point x="174" y="306" type="curve" smooth="yes"/>
			<point x="174" y="115"/>
			<point x="109" y="-49"/>
			<point x="15" y="-186" type="curve"/>
		</contour>
	</outline>
</glyph>
<glyph name="asterisk" format="2">
	<unicode hex="002A"/>
	<advance width="411"/>
	<outline>
		<contour>
			<point x="198" y="416" type="curve" smooth="yes"/>
			<point x="230" y="416"/>
			<point x="231" y="437"/>
			<point x="228" y="461" type="curve" smooth="yes"/>
			<point x="210" y="586" type="line"/>
			<point x="313" y="498" type="line" smooth="yes"/>
			<point x="330" y="483"/>
			<point x="343" y="478"/>
			<point x="353" y="498" type="curve" smooth="yes"/>
			<point x="370" y="526"/>
			<point x="354" y="539"/>
			<point x="331" y="548" type="curve" smooth="yes"/>
			<point x="216" y="595" type="line"/>
			<point x="341" y="641" type="line" smooth="yes"/>
			<point x="362" y="649"/>
			<point x="373" y="659"/>
			<point x="362" y="677" type="curve" smooth="yes"/>
			<point x="346" y="705"/>
			<point x="329" y="699"/>
			<point x="309" y="683" type="curve" smooth="yes"/>
			<point x="210" y="604" type="line"/>
			<point x="234" y="737" type="line" smooth="yes"/>
			<point x="238" y="761"/>
			<point x="234" y="773"/>
			<point x="214" y="773" type="curve" smooth="yes"/>
			<point x="181" y="773"/>
			<point x="179" y="754"/>
			<point x="183" y="729" type="curve" smooth="yes"/>
			<point x="202" y="604" type="line"/>
			<point x="97" y="692" type="line" smooth="yes"/>
			<point x="82" y="705"/>
			<point x="66" y="709"/>
			<point x="57" y="690" type="curve" smooth="yes"/>
			<point x="41" y="662"/>
			<point x="54" y="651"/>
			<point x="80" y="641" type="curve" smooth="yes"/>
			<point x="195" y="595" type="line"/>
			<point x="69" y="548" type="line" smooth="yes"/>
			<point x="50" y="541"/>
			<point x="38" y="532"/>
			<point x="50" y="511" type="curve" smooth="yes"/>
			<point x="65" y="482"/>
			<point x="84" y="493"/>
			<point x="102" y="507" type="curve" smooth="yes"/>
			<point x="202" y="586" type="line"/>
			<point x="178" y="453" type="line" smooth="yes"/>
			<point x="174" y="430"/>
			<point x="176" y="416"/>
		</contour>
	</outline>
</glyph>
<glyph name="comma" format="2">
	<unicode hex="002C"/>
	<advance width="277"/>
	<outline>
		<contour>
			<point x="98" y="-143" type="line"/>
			<point x="153" y="-95"/>
			<point x="192" y="-29"/>
			<point x="192" y="24" type="curve" smooth="yes"/>
			<point x="192" y="64"/>
			<point x="174" y="93"/>
			<point x="137" y="93" type="curve" smooth="yes"/>
			<point x="106" y="93"/>
			<point x="88" y="69"/>
			<point x="88" y="48" type="curve" smooth="yes"/>
			<point x="88" y="21"/>
			<point x="107" y="1"/>
			<point x="148" y="1" type="curve" smooth="yes"/>
			<point x="162" y="1" type="line"/>
			<point x="161" y="-41"/>
			<point x="142" y="-83"/>
			<point x="90" y="-134" type="curve"/>
		</contour>
	</outline>
</glyph>
<glyph name="two" format="2">
	<unicode hex="0032"/>
	<advance width="491"/>
	<outline>
		<contour>
			<point x="54" y="0" type="line"/>
			<point x="414" y="0" type="line"/>
			<point x="444" y="173" type="line"/>
			<point x="432" y="173" type="line"/>
			<point x="412" y="96"/>
			<point x="383" y="52"/>
			<point x="306" y="52" type="curve" smooth="yes"/>
			<point x="77" y="52" type="line"/>
			<point x="384" y="377"/>
			<point x="423" y="444"/>
			<point x="423" y="574" type="curve" smooth="yes"/>
			<point x="423" y="676"/>
			<point x="362" y="744"/>
			<point x="235" y="744" type="curve" smooth="yes"/>
			<point x="124" y="744"/>
			<point x="51" y="671"/>
			<point x="51" y="593" type="curve" smooth="yes"/>
			<point x="51" y="560"/>
			<point x="66" y="544"/>
			<point x="95" y="544" type="curve" smooth="yes"/>
			<point x="120" y="544"/>
			<point x="138" y="558"/>
			<point x="138" y="581" type="curve" smooth="yes"/>
			<point x="138" y="612"/>
			<point x="113" y="633"/>
			<point x="85" y="657" type="curve"/>
			<point x="117" y="704"/>
			<point x="169" y="729"/>
			<point x="228" y="729" type="curve" smooth="yes"/>
			<point x="318" y="729"/>
			<point x="372" y="681"/>
			<point x="372" y="576" type="curve" smooth="yes"/>
			<point x="372" y="454"/>
			<point x="345" y="373"/>
			<point x="45" y="40" type="curve"/>
		</contour>
	</outline>
</glyph>
<glyph name="three" format="2">
	<unicode hex="0033"/>
	<advance width="500"/>
	<outline>
		<contour>
			<point x="238" y="-14" type="curve" smooth="yes"/>
			<point x="353" y="-14"/>
			<point x="447" y="55"/>
			<point x="447" y="193" type="curve" smooth="yes"/>
			<point x="447" y="301"/>
			<point x="382" y="360"/>
			<point x="276" y="378" type="curve"/>
			<point x="276" y="380" type="line"/>
			<point x="346" y="403"/>
			<point x="423" y="466"/>
			<point x="423" y="571" type="curve" smooth="yes"/>
			<point x="423" y="677"/>
			<point x="357" y="744"/>
			<point x="241" y="744" type="curve" smooth="yes"/>
			<point x="127" y="744"/>
			<point x="53" y="673"/>
			<point x="53" y="596" type="curve" smooth="yes"/>
			<point x="53" y="575"/>
			<point x="64" y="548"/>
			<point x="98" y="548" type="curve" smooth="yes"/>
			<point x="121" y="548"/>
			<point x="142" y="557"/>
			<point x="142" y="587" type="curve" smooth="yes"/>
			<point x="142" y="611"/>
			<point x="129" y="630"/>
			<point x="89" y="661" type="curve"/>
			<point x="119" y="703"/>
			<point x="172" y="729"/>
			<point x="229" y="729" type="curve" smooth="yes"/>
			<point x="325" y="729"/>
			<point x="372" y="680"/>
			<point x="372" y="574" type="curve" smooth="yes"/>
			<point x="372" y="442"/>
			<point x="317" y="389"/>
			<point x="193" y="381" type="curve"/>
			<point x="190" y="366" type="line"/>
			<point x="316" y="375"/>
			<point x="393" y="327"/>
			<point x="393" y="188" type="curve" smooth="yes"/>
			<point x="393" y="59"/>
			<point x="325" y="6"/>
			<point x="233" y="6" type="curve" smooth="yes"/>
			<point x="152" y="6"/>
			<point x="91" y="47"/>
			<point x="52" y="130" type="curve"/>
			<point x="43" y="124" type="line"/>
			<point x="85" y="22"/>
			<point x="154" y="-14"/>
		</contour>
	</outline>
</glyph>
<glyph name="five" format="2">
	<unicode hex="0035"/>
	<advance width="499"/>
	<outline>
		<contour>
			<point x="238" y="-14" type="curve" smooth="yes"/>
			<point x="363" y="-14"/>
			<point x="451" y="82"/>
			<point x="451" y="222" type="curve" smooth="yes"/>
			<point x="451" y="358"/>
			<point x="380" y="439"/>
			<point x="254" y="439" type="curve" smooth="yes"/>
			<point x="187" y="439"/>
			<point x="131" y="414"/>
			<point x="91" y="390" type="curve"/>
			<point x="119" y="676" type="line"/>
			<point x="411" y="676" type="line"/>
			<point x="422" y="729" type="line"/>
			<point x="421" y="730" type="line"/>
			<point x="109" y="730" type="line"/>
			<point x="73" y="366" type="line"/>
			<point x="80" y="361" type="line"/>
			<point x="133" y="400"/>
			<point x="188" y="414"/>
			<point x="246" y="414" type="curve" smooth="yes"/>
			<point x="350" y="414"/>
			<point x="399" y="341"/>
			<point x="399" y="220" type="curve" smooth="yes"/>
			<point x="399" y="69"/>
			<point x="333" y="7"/>
			<point x="235" y="7" type="curve" smooth="yes"/>
			<point x="155" y="7"/>
			<point x="89" y="46"/>
			<point x="49" y="127" type="curve"/>
			<point x="40" y="123" type="line"/>
			<point x="80" y="28"/>
			<point x="150" y="-14"/>
		</contour>
	</outline>
</glyph>
<glyph name="six" format="2">
	<unicode hex="0036"/>
	<advance width="534"/>
	<outline>
		<contour>
			<point x="278" y="-13" type="curve" smooth="yes"/>
			<point x="407" y="-13"/>
			<point x="488" y="70"/>
			<point x="488" y="223" type="curve" smooth="yes"/>
			<point x="488" y="363"/>
			<point x="407" y="455"/>
			<point x="299" y="455" type="curve" smooth="yes"/>
			<point x="201" y="455"/>
			<point x="141" y="401"/>
			<point x="116" y="331" type="curve"/>
			<point x="122" y="550"/>
			<point x="173" y="729"/>
			<point x="336" y="729" type="curve" smooth="yes"/>
			<point x="390" y="729"/>
			<point x="419" y="713"/>
			<point x="438" y="694" type="curve"/>
			<point x="412" y="658"/>
			<point x="404" y="635"/>
			<point x="404" y="621" type="curve" smooth="yes"/>
			<point x="404" y="597"/>
			<point x="419" y="580"/>
			<point x="444" y="580" type="curve" smooth="yes"/>
			<point x="465" y="580"/>
			<point x="488" y="591"/>
			<point x="488" y="632" type="curve" smooth="yes"/>
			<point x="488" y="710"/>
			<point x="405" y="744"/>
			<point x="341" y="744" type="curve" smooth="yes"/>
			<point x="146" y="744"/>
			<point x="66" y="545"/>
			<point x="66" y="319" type="curve" smooth="yes"/>
			<point x="66" y="125"/>
			<point x="130" y="-13"/>
		</contour>
		<contour>
			<point x="280" y="3" type="curve" smooth="yes"/>
			<point x="174" y="3"/>
			<point x="121" y="92"/>
			<point x="121" y="248" type="curve" smooth="yes"/>
			<point x="121" y="382"/>
			<point x="202" y="430"/>
			<point x="282" y="430" type="curve" smooth="yes"/>
			<point x="378" y="430"/>
			<point x="438" y="365"/>
			<point x="438" y="224" type="curve" smooth="yes"/>
			<point x="438" y="51"/>
			<point x="371" y="3"/>
		</contour>
	</outline>
</glyph>
<glyph name="seven" format="2">
	<unicode hex="0037"/>
	<advance width="481"/>
	<outline>
		<contour>
			<point x="203" y="-8" type="line"/>
			<point x="257" y="-1" type="line"/>
			<point x="255" y="257"/>
			<point x="248" y="451"/>
			<point x="453" y="686" type="curve"/>
			<point x="447" y="729" type="line"/>
			<point x="62" y="730" type="line"/>
			<point x="41" y="571" type="line"/>
			<point x="53" y="571" type="line"/>
			<point x="84" y="663"/>
			<point x="89" y="680"/>
			<point x="169" y="680" type="curve" smooth="yes"/>
			<point x="428" y="680" type="line"/>
			<point x="202" y="450"/>
			<point x="201" y="221"/>
			<point x="197" y="-1" type="curve"/>
		</contour>
	</outline>
</glyph>
<glyph name="nine" format="2">
	<unicode hex="0039"/>
	<advance width="521"/>
	<outline>
		<contour>
			<point x="231" y="-14" type="curve" smooth="yes"/>
			<point x="377" y="-14"/>
			<point x="463" y="122"/>
			<point x="463" y="425" type="curve" smooth="yes"/>
			<point x="463" y="634"/>
			<point x="401" y="744"/>
			<point x="252" y="744" type="curve" smooth="yes"/>
			<point x="137" y="744"/>
			<point x="45" y="662"/>
			<point x="45" y="499" type="curve" smooth="yes"/>
			<point x="45" y="360"/>
			<point x="125" y="276"/>
			<point x="237" y="276" type="curve" smooth="yes"/>
			<point x="321" y="276"/>
			<point x="386" y="322"/>
			<point x="415" y="399" type="curve"/>
			<point x="408" y="96"/>
			<point x="360" y="6"/>
			<point x="225" y="6" type="curve" smooth="yes"/>
			<point x="155" y="6"/>
			<point x="97" y="46"/>
			<point x="57" y="129" type="curve"/>
			<point x="47" y="124" type="line"/>
			<point x="93" y="22"/>
			<point x="155" y="-14"/>
		</contour>
		<contour>
			<point x="246" y="302" type="curve" smooth="yes"/>
			<point x="152" y="302"/>
			<point x="97" y="357"/>
			<point x="97" y="511" type="curve" smooth="yes"/>
			<point x="97" y="680"/>
			<point x="162" y="728"/>
			<point x="251" y="728" type="curve" smooth="yes"/>
			<point x="367" y="728"/>
			<point x="411" y="642"/>
			<point x="411" y="500" type="curve" smooth="yes"/>
			<point x="411" y="338"/>
			<point x="325" y="302"/>
		</contour>
	</outline>
</glyph>
<glyph name="semicolon" format="2">
	<unicode hex="003B"/>
	<advance width="278"/>
	<outline>
		<contour>
			<point x="98" y="-143" type="line"/>
			<point x="153" y="-95"/>
			<point x="192" y="-29"/>
			<point x="192" y="24" type="curve" smooth="yes"/>
			<point x="192" y="64"/>
			<point x="174" y="93"/>
			<point x="137" y="93" type="curve" smooth="yes"/>
			<point x="106" y="93"/>
			<point x="88" y="69"/>
			<point x="88" y="48" type="curve" smooth="yes"/>
			<point x="88" y="21"/>
			<point x="107" y="1"/>
			<point x="148" y="1" type="curve" smooth="yes"/>
			<point x="162" y="1" type="line"/>
			<point x="161" y="-41"/>
			<point x="142" y="-83"/>
			<point x="90" y="-134" type="curve"/>
		</contour>
		<contour>
			<point x="135" y="417" type="curve" smooth="yes"/>
			<point x="165" y="417"/>
			<point x="186" y="438"/>
			<point x="186" y="467" type="curve" smooth="yes"/>
			<point x="186" y="495"/>
			<point x="164" y="517"/>
			<point x="135" y="517" type="curve" smooth="yes"/>
			<point x="107" y="517"/>
			<point x="86" y="495"/>
			<point x="86" y="466" type="curve" smooth="yes"/>
			<point x="86" y="438"/>
			<point x="107" y="417"/>
		</contour>
	</outline>
</glyph>
<glyph name="equal" format="2">
	<unicode hex="003D"/>
	<advance width="582"/>
	<outline>
		<contour>
			<point x="112" y="383" type="line"/>
			<point x="470" y="383" type="line"/>
			<point x="470" y="401" type="line"/>
			<point x="112" y="401" type="line"/>
		</contour>
		<contour>
			<point x="112" y="207" type="line"/>
			<point x="470" y="207" type="line"/>
			<point x="470" y="225" type="line"/>
			<point x="112" y="225" type="line"/>
		</contour>
	</outline>
</glyph>
<glyph name="greater" format="2">
	<unicode hex="003E"/>
	<advance width="582"/>
	<outline>
		<contour>
			<point x="125" y="47" type="line"/>
			<point x="507" y="278" type="line"/>
			<point x="507" y="294" type="line"/>
			<point x="125" y="523" type="line"/>
			<point x="115" y="508" type="line"/>
			<point x="486" y="286" type="line"/>
			<point x="115" y="62" type="line"/>
		</contour>
	</outline>
</glyph>
<glyph name="B" format="2">
	<unicode hex="0042"/>
	<advance width="584"/>
	<outline>
		<contour>
			<point x="55" y="0" type="line"/>
			<point x="280" y="0" type="line" smooth="yes"/>
			<point x="438" y="0"/>
			<point x="549" y="57"/>
			<point x="549" y="209" type="curve" smooth="yes"/>
			<point x="549" y="312"/>
			<point x="490" y="376"/>
			<point x="360" y="389" type="curve"/>
			<point x="360" y="390" type="line"/>
			<point x="453" y="412"/>
			<point x="509" y="473"/>
			<point x="509" y="571" type="curve" smooth="yes"/>
			<point x="509" y="686"/>
			<point x="424" y="730"/>
			<point x="281" y="730" type="curve" smooth="yes"/>
			<point x="55" y="730" type="line"/>
			<point x="55" y="718" type="line"/>
			<point x="117" y="714" type="line" smooth="yes"/>
			<point x="143" y="712"/>
			<point x="150" y="702"/>
			<point x="150" y="666" type="curve" smooth="yes"/>
			<point x="150" y="63" type="line" smooth="yes"/>
			<point x="150" y="29"/>
			<point x="144" y="19"/>
			<point x="119" y="17" type="curve" smooth="yes"/>
			<point x="55" y="12" type="line"/>
		</contour>
		<contour>
			<point x="276" y="17" type="curve" smooth="yes"/>
			<point x="246" y="17"/>
			<point x="212" y="20"/>
			<point x="199" y="22" type="curve"/>
			<point x="199" y="373" type="line"/>
			<point x="216" y="375"/>
			<point x="248" y="376"/>
			<point x="290" y="376" type="curve" smooth="yes"/>
			<point x="437" y="376"/>
			<point x="498" y="324"/>
			<point x="498" y="196" type="curve" smooth="yes"/>
			<point x="498" y="61"/>
			<point x="413" y="17"/>
		</contour>
		<contour>
			<point x="264" y="392" type="curve" smooth="yes"/>
			<point x="230" y="392"/>
			<point x="212" y="393"/>
			<point x="199" y="394" type="curve"/>
			<point x="199" y="714" type="line"/>
			<point x="277" y="714" type="line" smooth="yes"/>
			<point x="396" y="714"/>
			<point x="458" y="684"/>
			<point x="458" y="564" type="curve" smooth="yes"/>
			<point x="458" y="439"/>
			<point x="375" y="392"/>
		</contour>
	</outline>
</glyph>
<glyph name="E" format="2">
	<unicode hex="0045"/>
	<advance width="567"/>
	<outline>
		<contour>
			<point x="55" y="0" type="line"/>
			<point x="509" y="0" type="line"/>
			<point x="524" y="162" type="line"/>
			<point x="512" y="162" type="line"/>
			<point x="479" y="30"/>
			<point x="456" y="16"/>
			<point x="359" y="16" type="curve" smooth="yes"/>
			<point x="199" y="16" type="line"/>
			<point x="199" y="366" type="line"/>
			<point x="329" y="366" type="line" smooth="yes"/>
			<point x="408" y="366"/>
			<point x="416" y="351"/>
			<point x="428" y="276" type="curve"/>
			<point x="440" y="275" type="line"/>
			<point x="440" y="474" type="line"/>
			<point x="428" y="474" type="line"/>
			<point x="413" y="394"/>
			<point x="408" y="382"/>
			<point x="333" y="382" type="curve" smooth="yes"/>
			<point x="199" y="382" type="line"/>
			<point x="199" y="714" type="line"/>
			<point x="333" y="714" type="line" smooth="yes"/>
			<point x="437" y="714"/>
			<point x="458" y="709"/>
			<point x="498" y="581" type="curve"/>
			<point x="510" y="580" type="line"/>
			<point x="482" y="730" type="line"/>
			<point x="55" y="730" type="line"/>
			<point x="55" y="718" type="line"/>
			<point x="117" y="714" type="line" smooth="yes"/>
			<point x="143" y="712"/>
			<point x="150" y="702"/>
			<point x="150" y="666" type="curve" smooth="yes"/>
			<point x="150" y="63" type="line" smooth="yes"/>
			<point x="150" y="29"/>
			<point x="144" y="19"/>
			<point x="119" y="17" type="curve" smooth="yes"/>
			<point x="55" y="12" type="line"/>
		</contour>
	</outline>
	<anchor name="bottom" x="322" y="-30"/>
	<anchor name="top" x="294" y="730"/>
</glyph>
<glyph name="I" format="2">
	<unicode hex="0049"/>
	<advance width="349"/>
	<outline>
		<contour>
			<point x="55" y="0" type="line"/>
			<point x="294" y="0" type="line"/>
			<point x="294" y="12" type="line"/>
			<point x="232" y="17" type="line" smooth="yes"/>
			<point x="206" y="19"/>
			<point x="199" y="30"/>
			<point x="199" y="62" type="curve" smooth="yes"/>
			<point x="199" y="666" type="line" smooth="yes"/>
			<point x="199" y="703"/>
			<point x="205" y="712"/>
			<point x="230" y="714" type="curve" smooth="yes"/>
			<point x="294" y="718" type="line"/>
			<point x="294" y="730" type="line"/>
			<point x="55" y="730" type="line"/>
			<point x="55" y="718" type="line"/>
			<point x="117" y="714" type="line" smooth="yes"/>
			<point x="143" y="712"/>
			<point x="150" y="702"/>
			<point x="150" y="666" type="curve" smooth="yes"/>
			<point x="150" y="63" type="line" smooth="yes"/>
			<point x="150" y="29"/>
			<point x="144" y="19"/>
			<point x="119" y="17" type="curve" smooth="yes"/>
			<point x="55" y="12" type="line"/>
		</contour>
	</outline>
	<anchor name="bottom" x="170" y="-31"/>
	<anchor name="top" x="176" y="730"/>
</glyph>
<glyph name="J" format="2">
	<unicode hex="004A"/>
	<advance width="493"/>
	<outline>
		<contour>
			<point x="189" y="-14" type="curve" smooth="yes"/>
			<point x="301" y="-14"/>
			<point x="368" y="58"/>
			<point x="368" y="207" type="curve" smooth="yes"/>
			<point x="368" y="666" type="line" smooth="yes"/>
			<point x="368" y="706"/>
			<point x="375" y="713"/>
			<point x="398" y="714" type="curve" smooth="yes"/>
			<point x="463" y="718" type="line"/>
			<point x="463" y="730" type="line"/>
			<point x="206" y="730" type="line"/>
			<point x="206" y="718" type="line"/>
			<point x="287" y="715" type="line" smooth="yes"/>
			<point x="313" y="714"/>
			<point x="319" y="704"/>
			<point x="319" y="667" type="curve" smooth="yes"/>
			<point x="319" y="192" type="line" smooth="yes"/>
			<point x="319" y="52"/>
			<point x="274" y="1"/>
			<point x="189" y="1" type="curve" smooth="yes"/>
			<point x="157" y="1"/>
			<point x="123" y="7"/>
			<point x="97" y="24" type="curve"/>
			<point x="118" y="53"/>
			<point x="135" y="76"/>
			<point x="135" y="99" type="curve" smooth="yes"/>
			<point x="135" y="124"/>
			<point x="117" y="136"/>
			<point x="93" y="136" type="curve" smooth="yes"/>
			<point x="62" y="136"/>
			<point x="38" y="113"/>
			<point x="38" y="78" type="curve" smooth="yes"/>
			<point x="38" y="27"/>
			<point x="96" y="-14"/>
		</contour>
	</outline>
	<anchor name="top" x="339" y="730"/>
</glyph>
<glyph name="M" format="2">
	<unicode hex="004D"/>
	<advance width="935"/>
	<outline>
		<contour>
			<point x="45" y="0" type="line"/>
			<point x="253" y="0" type="line"/>
			<point x="253" y="12" type="line"/>
			<point x="190" y="19" type="line" smooth="yes"/>
			<point x="158" y="23"/>
			<point x="158" y="38"/>
			<point x="159" y="65" type="curve" smooth="yes"/>
			<point x="195" y="693" type="line"/>
			<point x="196" y="693" type="line"/>
			<point x="442" y="102" type="line"/>
			<point x="470" y="102" type="line"/>
			<point x="701" y="695" type="line"/>
			<point x="702" y="695" type="line"/>
			<point x="744" y="72" type="line" smooth="yes"/>
			<point x="747" y="30"/>
			<point x="732" y="22"/>
			<point x="712" y="19" type="curve" smooth="yes"/>
			<point x="646" y="12" type="line"/>
			<point x="646" y="0" type="line"/>
			<point x="890" y="0" type="line"/>
			<point x="890" y="12" type="line"/>
			<point x="828" y="19" type="line" smooth="yes"/>
			<point x="807" y="21"/>
			<point x="797" y="28"/>
			<point x="795" y="68" type="curve" smooth="yes"/>
			<point x="752" y="662" type="line" smooth="yes"/>
			<point x="749" y="702"/>
			<point x="758" y="711"/>
			<point x="780" y="713" type="curve" smooth="yes"/>
			<point x="842" y="718" type="line"/>
			<point x="842" y="730" type="line"/>
			<point x="696" y="730" type="line"/>
			<point x="473" y="157" type="line"/>
			<point x="472" y="157" type="line"/>
			<point x="235" y="730" type="line"/>
			<point x="86" y="730" type="line"/>
			<point x="86" y="718" type="line"/>
			<point x="145" y="711" type="line" smooth="yes"/>
			<point x="170" y="708"/>
			<point x="178" y="699"/>
			<point x="176" y="663" type="curve" smooth="yes"/>
			<point x="140" y="69" type="line" smooth="yes"/>
			<point x="138" y="32"/>
			<point x="132" y="23"/>
			<point x="105" y="19" type="curve" smooth="yes"/>
			<point x="45" y="12" type="line"/>
		</contour>
	</outline>
	<anchor name="bottom" x="453" y="-30"/>
</glyph>
<glyph name="O" format="2">
	<unicode hex="004F"/>
	<advance width="690"/>
	<outline>
		<contour>
			<point x="347" y="-14" type="curve" smooth="yes"/>
			<point x="528" y="-14"/>
			<point x="640" y="120"/>
			<point x="640" y="379" type="curve" smooth="yes"/>
			<point x="640" y="606"/>
			<point x="536" y="744"/>
			<point x="348" y="744" type="curve" smooth="yes"/>
			<point x="155" y="744"/>
			<point x="50" y="602"/>
			<point x="50" y="354" type="curve" smooth="yes"/>
			<point x="50" y="123"/>
			<point x="159" y="-14"/>
		</contour>
		<contour>
			<point x="352" y="1" type="curve" smooth="yes"/>
			<point x="190" y="1"/>
			<point x="103" y="138"/>
			<point x="103" y="370" type="curve" smooth="yes"/>
			<point x="103" y="599"/>
			<point x="180" y="729"/>
			<point x="341" y="729" type="curve" smooth="yes"/>
			<point x="504" y="729"/>
			<point x="587" y="595"/>
			<point x="587" y="366" type="curve" smooth="yes"/>
			<point x="587" y="130"/>
			<point x="511" y="1"/>
		</contour>
	</outline>
	<anchor name="bottom" x="348" y="-30"/>
	<anchor name="top" x="346" y="730"/>
</glyph>
<glyph name="P" format="2">
	<unicode hex="0050"/>
	<advance width="552"/>
	<outline>
		<contour>
			<point x="55" y="0" type="line"/>
			<point x="336" y="0" type="line"/>
			<point x="336" y="12" type="line"/>
			<point x="234" y="16" type="line" smooth="yes"/>
			<point x="207" y="17"/>
			<point x="199" y="30"/>
			<point x="199" y="63" type="curve" smooth="yes"/>
			<point x="199" y="326" type="line"/>
			<point x="219" y="324"/>
			<point x="244" y="322"/>
			<point x="277" y="322" type="curve" smooth="yes"/>
			<point x="446" y="322"/>
			<point x="522" y="405"/>
			<point x="522" y="541" type="curve" smooth="yes"/>
			<point x="522" y="668"/>
			<point x="439" y="730"/>
			<point x="271" y="730" type="curve" smooth="yes"/>
			<point x="55" y="730" type="line"/>
			<point x="55" y="718" type="line"/>
			<point x="117" y="714" type="line" smooth="yes"/>
			<point x="143" y="712"/>
			<point x="150" y="702"/>
			<point x="150" y="666" type="curve" smooth="yes"/>
			<point x="150" y="63" type="line" smooth="yes"/>
			<point x="150" y="29"/>
			<point x="144" y="19"/>
			<point x="119" y="17" type="curve" smooth="yes"/>
			<point x="55" y="12" type="line"/>
		</contour>
		<contour>
			<point x="275" y="338" type="curve" smooth="yes"/>
			<point x="246" y="338"/>
			<point x="220" y="340"/>
			<point x="199" y="342" type="curve"/>
			<point x="199" y="714" type="line"/>
			<point x="267" y="714" type="line" smooth="yes"/>
			<point x="398" y="714"/>
			<point x="468" y="667"/>
			<point x="468" y="536" type="curve" smooth="yes"/>
			<point x="468" y="387"/>
			<point x="401" y="338"/>
		</contour>
	</outline>
</glyph>
<glyph name="Q" format="2">
	<unicode hex="0051"/>
	<advance width="690"/>
	<outline>
		<contour>
			<point x="673" y="-185" type="curve" smooth="yes"/>
			<point x="725" y="-185"/>
			<point x="771" y="-162"/>
			<point x="805" y="-57" type="curve"/>
			<point x="798" y="-54" type="line"/>
			<point x="759" y="-123"/>
			<point x="729" y="-142"/>
			<point x="681" y="-142" type="curve" smooth="yes"/>
			<point x="595" y="-142"/>
			<point x="547" y="-75"/>
			<point x="489" y="21" type="curve"/>
			<point x="586" y="76"/>
			<point x="640" y="196"/>
			<point x="640" y="379" type="curve" smooth="yes"/>
			<point x="640" y="606"/>
			<point x="536" y="744"/>
			<point x="348" y="744" type="curve" smooth="yes"/>
			<point x="155" y="744"/>
			<point x="50" y="602"/>
			<point x="50" y="354" type="curve" smooth="yes"/>
			<point x="50" y="123"/>
			<point x="159" y="-14"/>
			<point x="347" y="-14" type="curve" smooth="yes"/>
			<point x="388" y="-14"/>
			<point x="421" y="-7"/>
			<point x="454" y="6" type="curve"/>
			<point x="535" y="-128"/>
			<point x="592" y="-185"/>
		</contour>
		<contour>
			<point x="352" y="1" type="curve" smooth="yes"/>
			<point x="259" y="1"/>
			<point x="191" y="47"/>
			<point x="149" y="129" type="curve"/>
			<point x="194" y="181"/>
			<point x="232" y="215"/>
			<point x="274" y="215" type="curve" smooth="yes"/>
			<point x="325" y="215"/>
			<point x="354" y="183"/>
			<point x="445" y="20" type="curve"/>
			<point x="417" y="7"/>
			<point x="389" y="1"/>
		</contour>
		<contour>
			<point x="479" y="39" type="curve"/>
			<point x="400" y="181"/>
			<point x="372" y="232"/>
			<point x="287" y="232" type="curve" smooth="yes"/>
			<point x="231" y="232"/>
			<point x="184" y="190"/>
			<point x="143" y="142" type="curve"/>
			<point x="117" y="201"/>
			<point x="103" y="278"/>
			<point x="103" y="370" type="curve" smooth="yes"/>
			<point x="103" y="599"/>
			<point x="180" y="729"/>
			<point x="341" y="729" type="curve" smooth="yes"/>
			<point x="504" y="729"/>
			<point x="587" y="595"/>
			<point x="587" y="366" type="curve" smooth="yes"/>
			<point x="587" y="204"/>
			<point x="553" y="92"/>
		</contour>
	</outline>
</glyph>
<glyph name="V" format="2">
	<unicode hex="0056"/>
	<advance width="599"/>
	<outline>
		<contour>
			<point x="298" y="0" type="line"/>
			<point x="323" y="0" type="line"/>
			<point x="539" y="669" type="line" smooth="yes"/>
			<point x="551" y="705"/>
			<point x="555" y="710"/>
			<point x="577" y="713" type="curve" smooth="yes"/>
			<point x="619" y="718" type="line"/>
			<point x="619" y="730" type="line"/>
			<point x="440" y="730" type="line"/>
			<point x="440" y="718" type="line"/>
			<point x="500" y="713" type="line" smooth="yes"/>
			<point x="522" y="711"/>
			<point x="528" y="698"/>
			<point x="519" y="669" type="curve" smooth="yes"/>
			<point x="325" y="67" type="line"/>
			<point x="324" y="67" type="line"/>
			<point x="131" y="666" type="line" smooth="yes"/>
			<point x="121" y="698"/>
			<point x="125" y="710"/>
			<point x="149" y="713" type="curve" smooth="yes"/>
			<point x="198" y="718" type="line"/>
			<point x="198" y="730" type="line"/>
			<point x="-7" y="730" type="line"/>
			<point x="-7" y="718" type="line"/>
			<point x="32" y="713" type="line" smooth="yes"/>
			<point x="60" y="709"/>
			<point x="69" y="700"/>
			<point x="82" y="663" type="curve" smooth="yes"/>
		</contour>
	</outline>
	<anchor name="top" x="319" y="730"/>
</glyph>
<glyph name="W" format="2">
	<unicode hex="0057"/>
	<advance width="915"/>
	<outline>
		<contour>
			<point x="256" y="0" type="line"/>
			<point x="281" y="0" type="line"/>
			<point x="463" y="653" type="line"/>
			<point x="464" y="653" type="line"/>
			<point x="657" y="0" type="line"/>
			<point x="682" y="0" type="line"/>
			<point x="855" y="669" type="line" smooth="yes"/>
			<point x="864" y="704"/>
			<point x="870" y="710"/>
			<point x="893" y="713" type="curve" smooth="yes"/>
			<point x="935" y="718" type="line"/>
			<point x="935" y="730" type="line"/>
			<point x="756" y="730" type="line"/>
			<point x="756" y="718" type="line"/>
			<point x="816" y="713" type="line" smooth="yes"/>
			<point x="843" y="711"/>
			<point x="841" y="693"/>
			<point x="835" y="669" type="curve" smooth="yes"/>
			<point x="682" y="77" type="line"/>
			<point x="681" y="77" type="line"/>
			<point x="491" y="730" type="line"/>
			<point x="466" y="730" type="line"/>
			<point x="283" y="77" type="line"/>
			<point x="282" y="77" type="line"/>
			<point x="130" y="666" type="line" smooth="yes"/>
			<point x="122" y="695"/>
			<point x="123" y="711"/>
			<point x="149" y="713" type="curve" smooth="yes"/>
			<point x="198" y="718" type="line"/>
			<point x="198" y="730" type="line"/>
			<point x="-7" y="730" type="line"/>
			<point x="-7" y="718" type="line"/>
			<point x="32" y="713" type="line" smooth="yes"/>
			<point x="66" y="709"/>
			<point x="73" y="691"/>
			<point x="81" y="663" type="curve" smooth="yes"/>
		</contour>
	</outline>
	<anchor name="top" x="479" y="730"/>
</glyph>
<glyph name="X" format="2">
	<unicode hex="0058"/>
	<advance width="638"/>
	<outline>
		<contour>
			<point x="18" y="0" type="line"/>
			<point x="207" y="0" type="line"/>
			<point x="207" y="12" type="line"/>
			<point x="147" y="17" type="line" smooth="yes"/>
			<point x="117" y="20"/>
			<point x="129" y="42"/>
			<point x="141" y="61" type="curve" smooth="yes"/>
			<point x="316" y="331" type="line"/>
			<point x="478" y="55" type="line" smooth="yes"/>
			<point x="494" y="27"/>
			<point x="482" y="15"/>
			<point x="447" y="14" type="curve"/>
			<point x="416" y="12" type="line"/>
			<point x="416" y="0" type="line"/>
			<point x="620" y="0" type="line"/>
			<point x="620" y="12" type="line"/>
			<point x="585" y="15" type="line" smooth="yes"/>
			<point x="557" y="17"/>
			<point x="552" y="26"/>
			<point x="535" y="55" type="curve" smooth="yes"/>
			<point x="347" y="372" type="line"/>
			<point x="532" y="669" type="line" smooth="yes"/>
			<point x="553" y="702"/>
			<point x="556" y="710"/>
			<point x="580" y="713" type="curve" smooth="yes"/>
			<point x="620" y="718" type="line"/>
			<point x="620" y="730" type="line"/>
			<point x="431" y="730" type="line"/>
			<point x="431" y="718" type="line"/>
			<point x="491" y="713" type="line" smooth="yes"/>
			<point x="517" y="711"/>
			<point x="523" y="690"/>
			<point x="510" y="669" type="curve" smooth="yes"/>
			<point x="336" y="390" type="line"/>
			<point x="172" y="666" type="line" smooth="yes"/>
			<point x="156" y="693"/>
			<point x="164" y="709"/>
			<point x="190" y="713" type="curve" smooth="yes"/>
			<point x="229" y="718" type="line"/>
			<point x="229" y="730" type="line"/>
			<point x="29" y="730" type="line"/>
			<point x="29" y="718" type="line"/>
			<point x="64" y="715" type="line" smooth="yes"/>
			<point x="92" y="713"/>
			<point x="97" y="704"/>
			<point x="114" y="675" type="curve" smooth="yes"/>
			<point x="305" y="350" type="line"/>
			<point x="118" y="61" type="line" smooth="yes"/>
			<point x="93" y="22"/>
			<point x="80" y="20"/>
			<point x="58" y="17" type="curve" smooth="yes"/>
			<point x="18" y="12" type="line"/>
		</contour>
	</outline>
</glyph>
<glyph name="Z" format="2">
	<unicode hex="005A"/>
	<advance width="578"/>
	<outline>
		<contour>
			<point x="41" y="0" type="line"/>
			<point x="516" y="0" type="line"/>
			<point x="531" y="162" type="line"/>
			<point x="519" y="162" type="line"/>
			<point x="486" y="30"/>
			<point x="463" y="16"/>
			<point x="366" y="16" type="curve" smooth="yes"/>
			<point x="98" y="16" type="line"/>
			<point x="535" y="714" type="line"/>
			<point x="535" y="730" type="line"/>
			<point x="84" y="730" type="line"/>
			<point x="56" y="570" type="line"/>
			<point x="68" y="571" type="line"/>
			<point x="108" y="699"/>
			<point x="129" y="714"/>
			<point x="233" y="714" type="curve" smooth="yes"/>
			<point x="478" y="714" type="line"/>
			<point x="41" y="16" type="line"/>
		</contour>
	</outline>
	<anchor name="bottom" x="286" y="-30"/>
	<anchor name="top" x="299" y="730"/>
</glyph>
<glyph name="bracketleft" format="2">
	<unicode hex="005B"/>
	<advance width="279"/>
	<outline>
		<contour>
			<point x="100" y="-212" type="line"/>
			<point x="239" y="-212" type="line"/>
			<point x="239" y="-200" type="line"/>
			<point x="164" y="-194" type="line" smooth="yes"/>
			<point x="139" y="-192"/>
			<point x="136" y="-183"/>
			<point x="136" y="-143" type="curve" smooth="yes"/>
			<point x="136" y="741" type="line" smooth="yes"/>
			<point x="136" y="782"/>
			<point x="137" y="792"/>
			<point x="165" y="794" type="curve" smooth="yes"/>
			<point x="239" y="800" type="line"/>
			<point x="239" y="812" type="line"/>
			<point x="100" y="812" type="line"/>
		</contour>
	</outline>
</glyph>
<glyph name="bracketright" format="2">
	<unicode hex="005D"/>
	<advance width="279"/>
	<outline>
		<contour>
			<point x="40" y="-212" type="line"/>
			<point x="179" y="-212" type="line"/>
			<point x="179" y="812" type="line"/>
			<point x="40" y="812" type="line"/>
			<point x="40" y="800" type="line"/>
			<point x="115" y="794" type="line" smooth="yes"/>
			<point x="140" y="792"/>
			<point x="143" y="783"/>
			<point x="143" y="743" type="curve" smooth="yes"/>
			<point x="143" y="-141" type="line" smooth="yes"/>
			<point x="143" y="-182"/>
			<point x="142" y="-192"/>
			<point x="114" y="-194" type="curve" smooth="yes"/>
			<point x="40" y="-200" type="line"/>
		</contour>
	</outline>
</glyph>
<glyph name="asciicircum" format="2">
	<unicode hex="005E"/>
	<advance width="582"/>
	<outline>
		<contour>
			<point x="75" y="396" type="line"/>
			<point x="291" y="724" type="line"/>
			<point x="507" y="395" type="line"/>
			<point x="522" y="407" type="line"/>
			<point x="301" y="744" type="line"/>
			<point x="281" y="744" type="line"/>
			<point x="60" y="407" type="line"/>
		</contour>
	</outline>
</glyph>
<glyph name="grave" format="2">
	<unicode hex="0060"/>
	<advance width="500"/>
	<outline>
		<contour>
			<point x="301" y="586" type="line"/>
			<point x="308" y="593" type="line"/>
			<point x="209" y="731" type="line" smooth="yes"/>
			<point x="198" y="747"/>
			<point x="189" y="754"/>
			<point x="177" y="754" type="curve" smooth="yes"/>
			<point x="163" y="754"/>
			<point x="155" y="743"/>
			<point x="155" y="729" type="curve" smooth="yes"/>
			<point x="155" y="716"/>
			<point x="164" y="702"/>
			<point x="185" y="684" type="curve" smooth="yes"/>
		</contour>
	</outline>
	<anchor name="_top" x="250" y="550"/>
</glyph>
<glyph name="c" format="2">
	<unicode hex="0063"/>
	<advance width="446"/>
	<outline>
		<contour>
			<point x="242" y="-14" type="curve" smooth="yes"/>
			<point x="326" y="-14"/>
			<point x="376" y="27"/>
			<point x="414" y="90" type="curve"/>
			<point x="406" y="95" type="line"/>
			<point x="381" y="60"/>
			<point x="336" y="21"/>
			<point x="259" y="21" type="curve" smooth="yes"/>
			<point x="162" y="21"/>
			<point x="93" y="95"/>
			<point x="93" y="265" type="curve" smooth="yes"/>
			<point x="93" y="453"/>
			<point x="166" y="506"/>
			<point x="259" y="506" type="curve" smooth="yes"/>
			<point x="302" y="506"/>
			<point x="332" y="493"/>
			<point x="357" y="471" type="curve"/>
			<point x="336" y="440"/>
			<point x="321" y="421"/>
			<point x="321" y="399" type="curve" smooth="yes"/>
			<point x="321" y="378"/>
			<point x="331" y="360"/>
			<point x="360" y="360" type="curve" smooth="yes"/>
			<point x="387" y="360"/>
			<point x="404" y="376"/>
			<point x="404" y="418" type="curve" smooth="yes"/>
			<point x="404" y="474"/>
			<point x="343" y="521"/>
			<point x="255" y="521" type="curve" smooth="yes"/>
			<point x="136" y="521"/>
			<point x="42" y="428"/>
			<point x="42" y="247" type="curve" smooth="yes"/>
			<point x="42" y="73"/>
			<point x="128" y="-14"/>
		</contour>
	</outline>
	<anchor name="bottom" x="248" y="-30"/>
	<anchor name="top" x="249" y="550"/>
</glyph>
<glyph name="i" format="2">
	<unicode hex="0069"/>
	<advance width="285"/>
	<outline>
		<contour>
			<point x="44" y="0" type="line"/>
			<point x="249" y="0" type="line"/>
			<point x="249" y="11" type="line"/>
			<point x="196" y="16" type="line" smooth="yes"/>
			<point x="176" y="18"/>
			<point x="171" y="27"/>
			<point x="171" y="59" type="curve" smooth="yes"/>
			<point x="171" y="511" type="line"/>
			<point x="167" y="515" type="line"/>
			<point x="42" y="503" type="line"/>
			<point x="41" y="493" type="line"/>
			<point x="89" y="489" type="line" smooth="yes"/>
			<point x="117" y="487"/>
			<point x="122" y="477"/>
			<point x="122" y="427" type="curve" smooth="yes"/>
			<point x="122" y="60" type="line" smooth="yes"/>
			<point x="122" y="25"/>
			<point x="117" y="18"/>
			<point x="96" y="16" type="curve" smooth="yes"/>
			<point x="44" y="12" type="line"/>
		</contour>
		<contour>
			<point x="133" y="635" type="curve" smooth="yes"/>
			<point x="159" y="635"/>
			<point x="174" y="659"/>
			<point x="174" y="684" type="curve" smooth="yes"/>
			<point x="174" y="710"/>
			<point x="158" y="729"/>
			<point x="134" y="729" type="curve" smooth="yes"/>
			<point x="110" y="729"/>
			<point x="93" y="707"/>
			<point x="93" y="680" type="curve" smooth="yes"/>
			<point x="93" y="656"/>
			<point x="109" y="635"/>
		</contour>
	</outline>
	<anchor name="bottom" x="148" y="-30"/>
</glyph>
<glyph name="j" format="2">
	<unicode hex="006A"/>
	<advance width="264"/>
	<outline>
		<contour>
			<point x="32" y="-238" type="line"/>
			<point x="165" y="-164"/>
			<point x="162" y="-95"/>
			<point x="162" y="90" type="curve" smooth="yes"/>
			<point x="162" y="511" type="line"/>
			<point x="158" y="515" type="line"/>
			<point x="33" y="503" type="line"/>
			<point x="32" y="493" type="line"/>
			<point x="80" y="489" type="line" smooth="yes"/>
			<point x="108" y="487"/>
			<point x="113" y="477"/>
			<point x="113" y="427" type="curve" smooth="yes"/>
			<point x="113" y="17" type="line" smooth="yes"/>
			<point x="113" y="-146"/>
			<point x="97" y="-174"/>
			<point x="26" y="-229" type="curve"/>
		</contour>
		<contour>
			<point x="123" y="633" type="curve" smooth="yes"/>
			<point x="151" y="633"/>
			<point x="166" y="657"/>
			<point x="166" y="684" type="curve" smooth="yes"/>
			<point x="166" y="712"/>
			<point x="151" y="731"/>
			<point x="124" y="731" type="curve" smooth="yes"/>
			<point x="98" y="731"/>
			<point x="82" y="709"/>
			<point x="82" y="680" type="curve" smooth="yes"/>
			<point x="82" y="654"/>
			<point x="97" y="633"/>
		</contour>
	</outline>
</glyph>
<glyph name="k" format="2">
	<unicode hex="006B"/>
	<advance width="539"/>
	<outline>
		<contour>
			<point x="451" y="-8" type="curve" smooth="yes"/>
			<point x="486" y="-8"/>
			<point x="514" y="11"/>
			<point x="539" y="34" type="curve"/>
			<point x="533" y="41" type="line"/>
			<point x="517" y="29"/>
			<point x="503" y="18"/>
			<point x="476" y="18" type="curve" smooth="yes"/>
			<point x="447" y="18"/>
			<point x="418" y="43"/>
			<point x="390" y="84" type="curve" smooth="yes"/>
			<point x="238" y="306" type="line"/>
			<point x="393" y="447" type="line" smooth="yes"/>
			<point x="412" y="464"/>
			<point x="434" y="489"/>
			<point x="457" y="492" type="curve" smooth="yes"/>
			<point x="492" y="497" type="line"/>
			<point x="492" y="509" type="line"/>
			<point x="341" y="509" type="line"/>
			<point x="341" y="497" type="line"/>
			<point x="380" y="492" type="line" smooth="yes"/>
			<point x="410" y="488"/>
			<point x="395" y="471"/>
			<point x="376" y="454" type="curve" smooth="yes"/>
			<point x="194" y="291" type="line"/>
			<point x="194" y="283" type="line"/>
			<point x="347" y="61" type="line" smooth="yes"/>
			<point x="384" y="8"/>
			<point x="414" y="-8"/>
		</contour>
		<contour>
			<point x="45" y="0" type="line"/>
			<point x="250" y="0" type="line"/>
			<point x="250" y="11" type="line"/>
			<point x="197" y="16" type="line" smooth="yes"/>
			<point x="177" y="18"/>
			<point x="172" y="27"/>
			<point x="172" y="59" type="curve" smooth="yes"/>
			<point x="172" y="762" type="line"/>
			<point x="166" y="766" type="line"/>
			<point x="31" y="761" type="line"/>
			<point x="30" y="751" type="line"/>
			<point x="80" y="748" type="line" smooth="yes"/>
			<point x="116" y="746"/>
			<point x="123" y="737"/>
			<point x="123" y="690" type="curve" smooth="yes"/>
			<point x="123" y="60" type="line" smooth="yes"/>
			<point x="123" y="25"/>
			<point x="118" y="18"/>
			<point x="97" y="16" type="curve" smooth="yes"/>
			<point x="45" y="12" type="line"/>
		</contour>
	</outline>
	<anchor name="bottom" x="290" y="-30"/>
	<anchor name="top" x="123" y="782"/>
</glyph>
<glyph name="m" format="2">
	<unicode hex="006D"/>
	<advance width="874"/>
	<outline>
		<contour>
			<point x="33" y="0" type="line"/>
			<point x="240" y="0" type="line"/>
			<point x="240" y="11" type="line"/>
			<point x="187" y="16" type="line" smooth="yes"/>
			<point x="167" y="18"/>
			<point x="162" y="27"/>
			<point x="162" y="59" type="curve" smooth="yes"/>
			<point x="162" y="344" type="line" smooth="yes"/>
			<point x="162" y="433"/>
			<point x="224" y="493"/>
			<point x="308" y="493" type="curve" smooth="yes"/>
			<point x="380" y="493"/>
			<point x="418" y="450"/>
			<point x="418" y="359" type="curve" smooth="yes"/>
			<point x="418" y="58" type="line" smooth="yes"/>
			<point x="418" y="27"/>
			<point x="413" y="19"/>
			<point x="387" y="16" type="curve" smooth="yes"/>
			<point x="340" y="11" type="line"/>
			<point x="340" y="0" type="line"/>
			<point x="545" y="0" type="line"/>
			<point x="545" y="12" type="line"/>
			<point x="497" y="16" type="line" smooth="yes"/>
			<point x="472" y="18"/>
			<point x="467" y="28"/>
			<point x="467" y="57" type="curve" smooth="yes"/>
			<point x="467" y="344" type="line" smooth="yes"/>
			<point x="467" y="433"/>
			<point x="529" y="493"/>
			<point x="609" y="493" type="curve" smooth="yes"/>
			<point x="685" y="493"/>
			<point x="723" y="450"/>
			<point x="723" y="359" type="curve" smooth="yes"/>
			<point x="723" y="58" type="line" smooth="yes"/>
			<point x="723" y="27"/>
			<point x="718" y="19"/>
			<point x="692" y="16" type="curve" smooth="yes"/>
			<point x="645" y="11" type="line"/>
			<point x="645" y="0" type="line"/>
			<point x="850" y="0" type="line"/>
			<point x="850" y="12" type="line"/>
			<point x="802" y="16" type="line" smooth="yes"/>
			<point x="777" y="18"/>
			<point x="772" y="27"/>
			<point x="772" y="57" type="curve" smooth="yes"/>
			<point x="772" y="364" type="line" smooth="yes"/>
			<point x="772" y="465"/>
			<point x="721" y="523"/>
			<point x="631" y="523" type="curve" smooth="yes"/>
			<point x="558" y="523"/>
			<point x="494" y="486"/>
			<point x="463" y="404" type="curve"/>
			<point x="451" y="480"/>
			<point x="403" y="523"/>
			<point x="326" y="523" type="curve" smooth="yes"/>
			<point x="260" y="523"/>
			<point x="194" y="488"/>
			<point x="163" y="414" type="curve"/>
			<point x="161" y="414" type="line"/>
			<point x="162" y="511" type="line"/>
			<point x="158" y="515" type="line"/>
			<point x="33" y="503" type="line"/>
			<point x="32" y="493" type="line"/>
			<point x="80" y="489" type="line" smooth="yes"/>
			<point x="108" y="487"/>
			<point x="113" y="477"/>
			<point x="113" y="427" type="curve" smooth="yes"/>
			<point x="113" y="60" type="line" smooth="yes"/>
			<point x="113" y="25"/>
			<point x="108" y="18"/>
			<point x="87" y="16" type="curve" smooth="yes"/>
			<point x="33" y="12" type="line"/>
		</contour>
	</outline>
	<anchor name="bottom" x="449" y="-30"/>
</glyph>
<glyph name="p" format="2">
	<unicode hex="0070"/>
	<advance width="561"/>
	<outline>
		<contour>
			<point x="39" y="-216" type="line"/>
			<point x="247" y="-216" type="line"/>
			<point x="247" y="-205" type="line"/>
			<point x="182" y="-200" type="line" smooth="yes"/>
			<point x="160" y="-198"/>
			<point x="157" y="-187"/>
			<point x="157" y="-157" type="curve" smooth="yes"/>
			<point x="157" y="19" type="line"/>
			<point x="201" y="-4"/>
			<point x="243" y="-14"/>
			<point x="288" y="-14" type="curve" smooth="yes"/>
			<point x="425" y="-14"/>
			<point x="514" y="90"/>
			<point x="514" y="261" type="curve" smooth="yes"/>
			<point x="514" y="435"/>
			<point x="444" y="523"/>
			<point x="315" y="523" type="curve" smooth="yes"/>
			<point x="244" y="523"/>
			<point x="191" y="491"/>
			<point x="158" y="428" type="curve"/>
			<point x="157" y="428" type="line"/>
			<point x="157" y="511" type="line"/>
			<point x="153" y="515" type="line"/>
			<point x="28" y="503" type="line"/>
			<point x="27" y="493" type="line"/>
			<point x="75" y="489" type="line" smooth="yes"/>
			<point x="103" y="487"/>
			<point x="108" y="477"/>
			<point x="108" y="427" type="curve" smooth="yes"/>
			<point x="108" y="-156" type="line" smooth="yes"/>
			<point x="108" y="-191"/>
			<point x="103" y="-198"/>
			<point x="82" y="-200" type="curve" smooth="yes"/>
			<point x="39" y="-204" type="line"/>
		</contour>
		<contour>
			<point x="295" y="2" type="curve" smooth="yes"/>
			<point x="245" y="2"/>
			<point x="200" y="16"/>
			<point x="157" y="44" type="curve"/>
			<point x="157" y="349" type="line" smooth="yes"/>
			<point x="157" y="445"/>
			<point x="215" y="497"/>
			<point x="303" y="497" type="curve" smooth="yes"/>
			<point x="405" y="497"/>
			<point x="463" y="415"/>
			<point x="463" y="253" type="curve" smooth="yes"/>
			<point x="463" y="69"/>
			<point x="395" y="2"/>
		</contour>
	</outline>
</glyph>
<glyph name="q" format="2">
	<unicode hex="0071"/>
	<advance width="532"/>
	<outline>
		<contour>
			<point x="314" y="-216" type="line"/>
			<point x="522" y="-216" type="line"/>
			<point x="522" y="-204" type="line"/>
			<point x="479" y="-200" type="line" smooth="yes"/>
			<point x="458" y="-198"/>
			<point x="453" y="-191"/>
			<point x="453" y="-156" type="curve" smooth="yes"/>
			<point x="453" y="522" type="line"/>
			<point x="450" y="523" type="line"/>
			<point x="412" y="486" type="line"/>
			<point x="365" y="512"/>
			<point x="321" y="523"/>
			<point x="273" y="523" type="curve" smooth="yes"/>
			<point x="136" y="523"/>
			<point x="47" y="419"/>
			<point x="47" y="248" type="curve" smooth="yes"/>
			<point x="47" y="74"/>
			<point x="117" y="-14"/>
			<point x="246" y="-14" type="curve" smooth="yes"/>
			<point x="321" y="-14"/>
			<point x="375" y="22"/>
			<point x="403" y="80" type="curve"/>
			<point x="404" y="80" type="line"/>
			<point x="404" y="-157" type="line" smooth="yes"/>
			<point x="404" y="-193"/>
			<point x="396" y="-199"/>
			<point x="379" y="-200" type="curve" smooth="yes"/>
			<point x="314" y="-205" type="line"/>
		</contour>
		<contour>
			<point x="258" y="12" type="curve" smooth="yes"/>
			<point x="156" y="12"/>
			<point x="98" y="94"/>
			<point x="98" y="256" type="curve" smooth="yes"/>
			<point x="98" y="440"/>
			<point x="166" y="507"/>
			<point x="266" y="507" type="curve" smooth="yes"/>
			<point x="316" y="507"/>
			<point x="361" y="493"/>
			<point x="404" y="465" type="curve"/>
			<point x="404" y="160" type="line" smooth="yes"/>
			<point x="404" y="64"/>
			<point x="346" y="12"/>
		</contour>
	</outline>
</glyph>
<glyph name="r" format="2">
	<unicode hex="0072"/>
	<advance width="407"/>
	<outline>
		<contour>
			<point x="35" y="0" type="line"/>
			<point x="270" y="0" type="line"/>
			<point x="270" y="11" type="line"/>
			<point x="191" y="16" type="line" smooth="yes"/>
			<point x="166" y="18"/>
			<point x="162" y="27"/>
			<point x="162" y="59" type="curve" smooth="yes"/>
			<point x="162" y="344" type="line" smooth="yes"/>
			<point x="162" y="439"/>
			<point x="244" y="513"/>
			<point x="325" y="490" type="curve"/>
			<point x="309" y="468"/>
			<point x="301" y="452"/>
			<point x="301" y="437" type="curve" smooth="yes"/>
			<point x="301" y="421"/>
			<point x="315" y="406"/>
			<point x="341" y="406" type="curve" smooth="yes"/>
			<point x="373" y="406"/>
			<point x="389" y="424"/>
			<point x="389" y="452" type="curve" smooth="yes"/>
			<point x="389" y="492"/>
			<point x="354" y="521"/>
			<point x="301" y="521" type="curve" smooth="yes"/>
			<point x="245" y="521"/>
			<point x="195" y="483"/>
			<point x="164" y="414" type="curve"/>
			<point x="162" y="414" type="line"/>
			<point x="162" y="511" type="line"/>
			<point x="158" y="515" type="line"/>
			<point x="33" y="503" type="line"/>
			<point x="32" y="493" type="line"/>
			<point x="80" y="489" type="line" smooth="yes"/>
			<point x="108" y="487"/>
			<point x="113" y="477"/>
			<point x="113" y="427" type="curve" smooth="yes"/>
			<point x="113" y="60" type="line" smooth="yes"/>
			<point x="113" y="25"/>
			<point x="108" y="18"/>
			<point x="87" y="16" type="curve" smooth="yes"/>
			<point x="35" y="12" type="line"/>
		</contour>
	</outline>
	<anchor name="bottom" x="140" y="-30"/>
	<anchor name="top" x="221" y="550"/>
</glyph>
<glyph name="u" format="2">
	<unicode hex="0075"/>
	<advance width="579"/>
	<outline>
		<contour>
			<point x="259" y="-14" type="curve" smooth="yes"/>
			<point x="323" y="-14"/>
			<point x="381" y="14"/>
			<point x="416" y="81" type="curve"/>
			<point x="417" y="81" type="line"/>
			<point x="419" y="-10" type="line"/>
			<point x="552" y="-2" type="line"/>
			<point x="552" y="9" type="line"/>
			<point x="500" y="11" type="line" smooth="yes"/>
			<point x="474" y="12"/>
			<point x="468" y="23"/>
			<point x="468" y="56" type="curve" smooth="yes"/>
			<point x="468" y="511" type="line"/>
			<point x="464" y="515" type="line"/>
			<point x="339" y="503" type="line"/>
			<point x="338" y="493" type="line"/>
			<point x="386" y="489" type="line" smooth="yes"/>
			<point x="414" y="487"/>
			<point x="419" y="477"/>
			<point x="419" y="427" type="curve" smooth="yes"/>
			<point x="419" y="154" type="line" smooth="yes"/>
			<point x="419" y="63"/>
			<point x="357" y="16"/>
			<point x="266" y="16" type="curve" smooth="yes"/>
			<point x="192" y="16"/>
			<point x="154" y="59"/>
			<point x="154" y="136" type="curve" smooth="yes"/>
			<point x="154" y="511" type="line"/>
			<point x="150" y="515" type="line"/>
			<point x="25" y="503" type="line"/>
			<point x="24" y="493" type="line"/>
			<point x="72" y="489" type="line" smooth="yes"/>
			<point x="100" y="487"/>
			<point x="105" y="477"/>
			<point x="105" y="427" type="curve" smooth="yes"/>
			<point x="105" y="154" type="line" smooth="yes"/>
			<point x="105" y="40"/>
			<point x="160" y="-14"/>
		</contour>
	</outline>
	<anchor name="bottom" x="288" y="-30"/>
	<anchor name="top" x="271" y="550"/>
</glyph>
<glyph name="x" format="2">
	<unicode hex="0078"/>
	<advance width="530"/>
	<outline>
		<contour>
			<point x="0" y="0" type="line"/>
			<point x="191" y="0" type="line"/>
			<point x="191" y="12" type="line"/>
			<point x="130" y="19" type="line" smooth="yes"/>
			<point x="93" y="23"/>
			<point x="113" y="40"/>
			<point x="135" y="69" type="curve" smooth="yes"/>
			<point x="257" y="229" type="line"/>
			<point x="373" y="68" type="line" smooth="yes"/>
			<point x="393" y="41"/>
			<point x="394" y="22"/>
			<point x="350" y="16" type="curve" smooth="yes"/>
			<point x="317" y="12" type="line"/>
			<point x="317" y="0" type="line"/>
			<point x="518" y="0" type="line"/>
			<point x="518" y="11" type="line"/>
			<point x="499" y="15" type="line" smooth="yes"/>
			<point x="449" y="25"/>
			<point x="442" y="44"/>
			<point x="421" y="71" type="curve" smooth="yes"/>
			<point x="284" y="262" type="line"/>
			<point x="413" y="448" type="line" smooth="yes"/>
			<point x="438" y="484"/>
			<point x="459" y="489"/>
			<point x="486" y="492" type="curve" smooth="yes"/>
			<point x="529" y="497" type="line"/>
			<point x="530" y="509" type="line"/>
			<point x="344" y="509" type="line"/>
			<point x="343" y="497" type="line"/>
			<point x="388" y="494" type="line" smooth="yes"/>
			<point x="426" y="491"/>
			<point x="415" y="480"/>
			<point x="397" y="455" type="curve" smooth="yes"/>
			<point x="273" y="277" type="line"/>
			<point x="153" y="445" type="line" smooth="yes"/>
			<point x="132" y="475"/>
			<point x="142" y="488"/>
			<point x="171" y="492" type="curve" smooth="yes"/>
			<point x="210" y="497" type="line"/>
			<point x="210" y="509" type="line"/>
			<point x="9" y="509" type="line"/>
			<point x="9" y="497" type="line"/>
			<point x="46" y="493" type="line" smooth="yes"/>
			<point x="71" y="490"/>
			<point x="79" y="477"/>
			<point x="104" y="442" type="curve" smooth="yes"/>
			<point x="246" y="244" type="line"/>
			<point x="117" y="76" type="line" smooth="yes"/>
			<point x="90" y="41"/>
			<point x="74" y="24"/>
			<point x="38" y="18" type="curve" smooth="yes"/>
			<point x="0" y="12" type="line"/>
		</contour>
	</outline>
</glyph>
<glyph name="y" format="2">
	<unicode hex="0079"/>
	<advance width="525"/>
	<outline>
		<contour>
			<point x="93" y="-230" type="curve" smooth="yes"/>
			<point x="146" y="-230"/>
			<point x="206" y="-212"/>
			<point x="261" y="-64" type="curve" smooth="yes"/>
			<point x="452" y="448" type="line" smooth="yes"/>
			<point x="464" y="480"/>
			<point x="467" y="489"/>
			<point x="490" y="492" type="curve" smooth="yes"/>
			<point x="525" y="497" type="line"/>
			<point x="525" y="509" type="line"/>
			<point x="370" y="509" type="line"/>
			<point x="370" y="497" type="line"/>
			<point x="413" y="492" type="line" smooth="yes"/>
			<point x="440" y="489"/>
			<point x="439" y="471"/>
			<point x="431" y="448" type="curve" smooth="yes"/>
			<point x="286" y="56" type="line"/>
			<point x="284" y="56" type="line"/>
			<point x="127" y="445" type="line" smooth="yes"/>
			<point x="116" y="473"/>
			<point x="119" y="488"/>
			<point x="146" y="492" type="curve" smooth="yes"/>
			<point x="185" y="497" type="line"/>
			<point x="185" y="509" type="line"/>
			<point x="0" y="509" type="line"/>
			<point x="0" y="497" type="line"/>
			<point x="29" y="492" type="line" smooth="yes"/>
			<point x="59" y="487"/>
			<point x="67" y="473"/>
			<point x="79" y="442" type="curve" smooth="yes"/>
			<point x="261" y="-6" type="line"/>
			<point x="243" y="-57" type="line" smooth="yes"/>
			<point x="197" y="-187"/>
			<point x="142" y="-211"/>
			<point x="100" y="-209" type="curve"/>
			<point x="106" y="-186"/>
			<point x="110" y="-170"/>
			<point x="111" y="-159" type="curve" smooth="yes"/>
			<point x="112" y="-135"/>
			<point x="96" y="-119"/>
			<point x="68" y="-119" type="curve" smooth="yes"/>
			<point x="41" y="-119"/>
			<point x="26" y="-139"/>
			<point x="26" y="-163" type="curve" smooth="yes"/>
			<point x="26" y="-200"/>
			<point x="54" y="-230"/>
		</contour>
	</outline>
	<anchor name="bottom" x="363" y="-30"/>
	<anchor name="top" x="277" y="550"/>
</glyph>
<glyph name="z" format="2">
	<unicode hex="007A"/>
	<advance width="451"/>
	<outline>
		<contour>
			<point x="51" y="0" type="line"/>
			<point x="390" y="0" type="line"/>
			<point x="402" y="136" type="line"/>
			<point x="390" y="136" type="line"/>
			<point x="360" y="30"/>
			<point x="337" y="16"/>
			<point x="240" y="16" type="curve" smooth="yes"/>
			<point x="102" y="16" type="line"/>
			<point x="400" y="493" type="line"/>
			<point x="400" y="509" type="line"/>
			<point x="78" y="509" type="line"/>
			<point x="55" y="376" type="line"/>
			<point x="67" y="377" type="line"/>
			<point x="102" y="478"/>
			<point x="123" y="493"/>
			<point x="227" y="493" type="curve" smooth="yes"/>
			<point x="352" y="493" type="line"/>
			<point x="51" y="16" type="line"/>
		</contour>
	</outline>
	<anchor name="bottom" x="220" y="-30"/>
	<anchor name="top" x="233" y="550"/>
</glyph>
<glyph name="currency" format="2">
	<unicode hex="00A4"/>
	<advance width="484"/>
	<outline>
		<contour>
			<point x="421" y="164" type="line"/>
			<point x="429" y="172" type="line"/>
			<point x="369" y="253" type="line"/>
			<point x="390" y="284"/>
			<point x="402" y="324"/>
			<point x="402" y="368" type="curve" smooth="yes"/>
			<point x="402" y="409"/>
			<point x="392" y="446"/>
			<point x="373" y="475" type="curve"/>
			<point x="429" y="551" type="line"/>
			<point x="421" y="559" type="line"/>
			<point x="348" y="504" type="line"/>
			<point x="323" y="525"/>
			<point x="290" y="537"/>
			<point x="249" y="537" type="curve" smooth="yes"/>
			<point x="204" y="537"/>
			<point x="167" y="523"/>
			<point x="140" y="499" type="curve"/>
			<point x="64" y="556" type="line"/>
			<point x="56" y="548" type="line"/>
			<point x="114" y="469" type="line"/>
			<point x="94" y="439"/>
			<point x="84" y="400"/>
			<point x="84" y="357" type="curve" smooth="yes"/>
			<point x="84" y="315"/>
			<point x="94" y="277"/>
			<point x="115" y="248" type="curve"/>
			<point x="56" y="169" type="line"/>
			<point x="64" y="161" type="line"/>
			<point x="142" y="220" type="line"/>
			<point x="167" y="200"/>
			<point x="199" y="189"/>
			<point x="240" y="189" type="curve" smooth="yes"/>
			<point x="281" y="189"/>
			<point x="315" y="202"/>
			<point x="342" y="224" type="curve"/>
		</contour>
		<contour>
			<point x="246" y="202" type="curve" smooth="yes"/>
			<point x="162" y="202"/>
			<point x="118" y="266"/>
			<point x="118" y="364" type="curve" smooth="yes"/>
			<point x="118" y="470"/>
			<point x="169" y="524"/>
			<point x="243" y="524" type="curve" smooth="yes"/>
			<point x="325" y="524"/>
			<point x="367" y="469"/>
			<point x="367" y="363" type="curve" smooth="yes"/>
			<point x="367" y="266"/>
			<point x="321" y="202"/>
		</contour>
	</outline>
</glyph>
<glyph name="yen" format="2">
	<unicode hex="00A5"/>
	<advance width="573"/>
	<outline>
		<contour>
			<point x="161" y="0" type="line"/>
			<point x="419" y="0" type="line"/>
			<point x="419" y="12" type="line"/>
			<point x="347" y="17" type="line" smooth="yes"/>
			<point x="321" y="19"/>
			<point x="316" y="31"/>
			<point x="316" y="62" type="curve" smooth="yes"/>
			<point x="316" y="253" type="line"/>
			<point x="500" y="253" type="line"/>
			<point x="500" y="268" type="line"/>
			<point x="316" y="268" type="line"/>
			<point x="316" y="351" type="line"/>
			<point x="330" y="376" type="line"/>
			<point x="500" y="376" type="line"/>
			<point x="500" y="391" type="line"/>
			<point x="338" y="391" type="line"/>
			<point x="489" y="669" type="line" smooth="yes"/>
			<point x="507" y="702"/>
			<point x="510" y="710"/>
			<point x="533" y="713" type="curve" smooth="yes"/>
			<point x="568" y="718" type="line"/>
			<point x="568" y="730" type="line"/>
			<point x="399" y="730" type="line"/>
			<point x="399" y="718" type="line"/>
			<point x="449" y="713" type="line" smooth="yes"/>
			<point x="476" y="710"/>
			<point x="481" y="693"/>
			<point x="468" y="669" type="curve" smooth="yes"/>
			<point x="309" y="377" type="line"/>
			<point x="308" y="377" type="line"/>
			<point x="147" y="666" type="line" smooth="yes"/>
			<point x="128" y="701"/>
			<point x="135" y="710"/>
			<point x="162" y="713" type="curve" smooth="yes"/>
			<point x="210" y="718" type="line"/>
			<point x="210" y="730" type="line"/>
			<point x="5" y="730" type="line"/>
			<point x="5" y="718" type="line"/>
			<point x="35" y="713" type="line" smooth="yes"/>
			<point x="65" y="708"/>
			<point x="74" y="698"/>
			<point x="94" y="663" type="curve" smooth="yes"/>
			<point x="244" y="391" type="line"/>
			<point x="91" y="391" type="line"/>
			<point x="89" y="376" type="line"/>
			<point x="253" y="376" type="line"/>
			<point x="267" y="350" type="line"/>
			<point x="267" y="268" type="line"/>
			<point x="88" y="268" type="line"/>
			<point x="86" y="253" type="line"/>
			<point x="267" y="253" type="line"/>
			<point x="267" y="63" type="line" smooth="yes"/>
			<point x="267" y="29"/>
			<point x="261" y="19"/>
			<point x="236" y="17" type="curve" smooth="yes"/>
			<point x="161" y="12" type="line"/>
		</contour>
	</outline>
	<anchor name="bottom" x="290" y="-30"/>
	<anchor name="top" x="302" y="730"/>
</glyph>
<glyph name="brokenbar" format="2">
	<unicode hex="00A6"/>
	<advance width="232"/>
	<outline>
		<contour>
			<point x="100" y="-110" type="line"/>
			<point x="128" y="-110" type="line"/>
			<point x="128" y="280" type="line"/>
			<point x="100" y="280" type="line"/>
		</contour>
		<contour>
			<point x="100" y="416" type="line"/>
			<point x="128" y="416" type="line"/>
			<point x="128" y="802" type="line"/>
			<point x="100" y="802" type="line"/>
		</contour>
	</outline>
</glyph>
<glyph name="section" format="2">
	<unicode hex="00A7"/>
	<advance width="600"/>
	<outline>
		<contour>
			<point x="273" y="-153" type="curve" smooth="yes"/>
			<point x="369" y="-153"/>
			<point x="438" y="-98"/>
			<point x="438" y="-12" type="curve" smooth="yes"/>
			<point x="438" y="18"/>
			<point x="432" y="42"/>
			<point x="421" y="64" type="curve"/>
			<point x="482" y="97"/>
			<point x="516" y="137"/>
			<point x="516" y="197" type="curve" smooth="yes"/>
			<point x="516" y="279"/>
			<point x="467" y="335"/>
			<point x="362" y="401" type="curve" smooth="yes"/>
			<point x="270" y="460"/>
			<point x="199" y="508"/>
			<point x="199" y="579" type="curve" smooth="yes"/>
			<point x="199" y="648"/>
			<point x="250" y="696"/>
			<point x="321" y="696" type="curve" smooth="yes"/>
			<point x="353" y="696"/>
			<point x="370" y="691"/>
			<point x="388" y="682" type="curve"/>
			<point x="376" y="660"/>
			<point x="344" y="622"/>
			<point x="344" y="595" type="curve" smooth="yes"/>
			<point x="344" y="572"/>
			<point x="361" y="560"/>
			<point x="387" y="560" type="curve" smooth="yes"/>
			<point x="422" y="560"/>
			<point x="443" y="588"/>
			<point x="443" y="619" type="curve" smooth="yes"/>
			<point x="443" y="673"/>
			<point x="398" y="711"/>
			<point x="320" y="711" type="curve" smooth="yes"/>
			<point x="224" y="711"/>
			<point x="155" y="656"/>
			<point x="155" y="570" type="curve" smooth="yes"/>
			<point x="155" y="540"/>
			<point x="161" y="516"/>
			<point x="172" y="494" type="curve"/>
			<point x="111" y="461"/>
			<point x="77" y="421"/>
			<point x="77" y="361" type="curve" smooth="yes"/>
			<point x="77" y="279"/>
			<point x="126" y="223"/>
			<point x="231" y="157" type="curve" smooth="yes"/>
			<point x="324" y="99"/>
			<point x="394" y="50"/>
			<point x="394" y="-21" type="curve" smooth="yes"/>
			<point x="394" y="-90"/>
			<point x="343" y="-138"/>
			<point x="272" y="-138" type="curve" smooth="yes"/>
			<point x="240" y="-138"/>
			<point x="223" y="-133"/>
			<point x="205" y="-124" type="curve"/>
			<point x="217" y="-102"/>
			<point x="249" y="-64"/>
			<point x="249" y="-37" type="curve" smooth="yes"/>
			<point x="249" y="-14"/>
			<point x="232" y="-2"/>
			<point x="206" y="-2" type="curve" smooth="yes"/>
			<point x="171" y="-2"/>
			<point x="150" y="-30"/>
			<point x="150" y="-61" type="curve" smooth="yes"/>
			<point x="150" y="-115"/>
			<point x="195" y="-153"/>
		</contour>
		<contour>
			<point x="416" y="73" type="curve"/>
			<point x="385" y="123"/>
			<point x="327" y="156"/>
			<point x="256" y="203" type="curve" smooth="yes"/>
			<point x="169" y="261"/>
			<point x="122" y="308"/>
			<point x="122" y="375" type="curve" smooth="yes"/>
			<point x="122" y="419"/>
			<point x="134" y="457"/>
			<point x="177" y="485" type="curve"/>
			<point x="208" y="435"/>
			<point x="266" y="402"/>
			<point x="337" y="355" type="curve" smooth="yes"/>
			<point x="424" y="297"/>
			<point x="471" y="250"/>
			<point x="471" y="183" type="curve" smooth="yes"/>
			<point x="471" y="139"/>
			<point x="459" y="101"/>
		</contour>
	</outline>
</glyph>
<glyph name="dieresis" format="2">
	<unicode hex="00A8"/>
	<advance width="500"/>
	<outline>
		<contour>
			<point x="339" y="637" type="curve" smooth="yes"/>
			<point x="367" y="637"/>
			<point x="381" y="659"/>
			<point x="381" y="684" type="curve" smooth="yes"/>
			<point x="381" y="710"/>
			<point x="366" y="726"/>
			<point x="340" y="726" type="curve" smooth="yes"/>
			<point x="311" y="726"/>
			<point x="298" y="707"/>
			<point x="298" y="680" type="curve" smooth="yes"/>
			<point x="298" y="655"/>
			<point x="311" y="637"/>
		</contour>
		<contour>
			<point x="165" y="637" type="curve" smooth="yes"/>
			<point x="194" y="637"/>
			<point x="207" y="659"/>
			<point x="207" y="684" type="curve" smooth="yes"/>
			<point x="207" y="710"/>
			<point x="193" y="726"/>
			<point x="166" y="726" type="curve" smooth="yes"/>
			<point x="138" y="726"/>
			<point x="124" y="707"/>
			<point x="124" y="680" type="curve" smooth="yes"/>
			<point x="124" y="655"/>
			<point x="137" y="637"/>
		</contour>
	</outline>
	<anchor name="_top" x="253" y="550"/>
</glyph>
<glyph name="copyright" format="2">
	<unicode hex="00A9"/>
	<advance width="752"/>
	<outline>
		<contour>
			<point x="377" y="-11" type="curve" smooth="yes"/>
			<point x="572" y="-11"/>
			<point x="699" y="131"/>
			<point x="699" y="311" type="curve" smooth="yes"/>
			<point x="699" y="501"/>
			<point x="582" y="633"/>
			<point x="377" y="633" type="curve" smooth="yes"/>
			<point x="182" y="633"/>
			<point x="55" y="491"/>
			<point x="55" y="311" type="curve" smooth="yes"/>
			<point x="55" y="121"/>
			<point x="172" y="-11"/>
		</contour>
		<contour>
			<point x="377" y="4" type="curve" smooth="yes"/>
			<point x="181" y="4"/>
			<point x="71" y="129"/>
			<point x="71" y="311" type="curve" smooth="yes"/>
			<point x="71" y="483"/>
			<point x="191" y="618"/>
			<point x="377" y="618" type="curve" smooth="yes"/>
			<point x="573" y="618"/>
			<point x="683" y="493"/>
			<point x="683" y="311" type="curve" smooth="yes"/>
			<point x="683" y="139"/>
			<point x="563" y="4"/>
		</contour>
		<contour>
			<point x="386" y="104" type="curve" smooth="yes"/>
			<point x="449" y="104"/>
			<point x="486" y="126"/>
			<point x="527" y="173" type="curve"/>
			<point x="520" y="180" type="line"/>
			<point x="484" y="139"/>
			<point x="447" y="116"/>
			<point x="391" y="116" type="curve" smooth="yes"/>
			<point x="298" y="116"/>
			<point x="249" y="204"/>
			<point x="249" y="309" type="curve" smooth="yes"/>
			<point x="249" y="409"/>
			<point x="289" y="499"/>
			<point x="385" y="499" type="curve" smooth="yes"/>
			<point x="446" y="499"/>
			<point x="492" y="462"/>
			<point x="512" y="388" type="curve"/>
			<point x="522" y="388" type="line"/>
			<point x="504" y="511" type="line"/>
			<point x="495" y="511" type="line"/>
			<point x="489" y="469" type="line"/>
			<point x="467" y="491"/>
			<point x="433" y="512"/>
			<point x="381" y="512" type="curve" smooth="yes"/>
			<point x="279" y="512"/>
			<point x="203" y="433"/>
			<point x="203" y="310" type="curve" smooth="yes"/>
			<point x="203" y="202"/>
			<point x="262" y="104"/>
		</contour>
	</outline>
</glyph>
<glyph name="threesuperior" format="2">
	<unicode hex="00B3"/>
	<advance width="374"/>
	<outline>
		<contour>
			<point x="179" y="362" type="curve" smooth="yes"/>
			<point x="262" y="362"/>
			<point x="338" y="412"/>
			<point x="338" y="498" type="curve" smooth="yes"/>
			<point x="338" y="566"/>
			<point x="293" y="603"/>
			<point x="211" y="615" type="curve"/>
			<point x="211" y="617" type="line"/>
			<point x="280" y="632"/>
			<point x="317" y="671"/>
			<point x="317" y="729" type="curve" smooth="yes"/>
			<point x="317" y="797"/>
			<point x="259" y="839"/>
			<point x="174" y="839" type="curve" smooth="yes"/>
			<point x="90" y="839"/>
			<point x="28" y="791"/>
			<point x="28" y="743" type="curve" smooth="yes"/>
			<point x="28" y="718"/>
			<point x="42" y="694"/>
			<point x="72" y="694" type="curve" smooth="yes"/>
			<point x="97" y="694"/>
			<point x="110" y="711"/>
			<point x="110" y="727" type="curve" smooth="yes"/>
			<point x="110" y="749"/>
			<point x="84" y="780"/>
			<point x="74" y="796" type="curve"/>
			<point x="103" y="817"/>
			<point x="133" y="825"/>
			<point x="169" y="825" type="curve" smooth="yes"/>
			<point x="237" y="825"/>
			<point x="271" y="799"/>
			<point x="271" y="725" type="curve" smooth="yes"/>
			<point x="271" y="647"/>
			<point x="233" y="625"/>
			<point x="146" y="618" type="curve"/>
			<point x="144" y="606" type="line"/>
			<point x="245" y="609"/>
			<point x="288" y="586"/>
			<point x="288" y="494" type="curve" smooth="yes"/>
			<point x="288" y="420"/>
			<point x="254" y="378"/>
			<point x="177" y="378" type="curve" smooth="yes"/>
			<point x="107" y="378"/>
			<point x="59" y="409"/>
			<point x="35" y="459" type="curve"/>
			<point x="26" y="454" type="line"/>
			<point x="40" y="425"/>
			<point x="76" y="362"/>
		</contour>
	</outline>
</glyph>
<glyph name="paragraph" format="2">
	<unicode hex="00B6"/>
	<advance width="482"/>
	<outline>
		<contour>
			<point x="194" y="-114" type="line"/>
			<point x="338" y="-114" type="line"/>
			<point x="338" y="651" type="line" smooth="yes"/>
			<point x="338" y="697"/>
			<point x="342" y="710"/>
			<point x="371" y="713" type="curve" smooth="yes"/>
			<point x="427" y="718" type="line"/>
			<point x="427" y="730" type="line"/>
			<point x="298" y="730" type="line"/>
			<point x="298" y="-47" type="line" smooth="yes"/>
			<point x="298" y="-85"/>
			<point x="292" y="-94"/>
			<point x="253" y="-97" type="curve" smooth="yes"/>
			<point x="194" y="-102" type="line"/>
		</contour>
		<contour>
			<point x="234" y="267" type="curve" smooth="yes"/>
			<point x="247" y="267" type="line"/>
			<point x="247" y="730" type="line"/>
			<point x="236" y="730" type="line" smooth="yes"/>
			<point x="123" y="730"/>
			<point x="50" y="649"/>
			<point x="50" y="500" type="curve" smooth="yes"/>
			<point x="50" y="352"/>
			<point x="126" y="267"/>
		</contour>
	</outline>
</glyph>
<glyph name="ordmasculine" format="2">
	<unicode hex="00BA"/>
	<advance width="397"/>
	<outline>
		<contour>
			<point x="195" y="362" type="curve" smooth="yes"/>
			<point x="296" y="362"/>
			<point x="360" y="433"/>
			<point x="360" y="560" type="curve" smooth="yes"/>
			<point x="360" y="674"/>
			<point x="293" y="742"/>
			<point x="205" y="742" type="curve" smooth="yes"/>
			<point x="113" y="742"/>
			<point x="37" y="688"/>
			<point x="37" y="546" type="curve" smooth="yes"/>
			<point x="37" y="449"/>
			<point x="88" y="362"/>
		</contour>
		<contour>
			<point x="205" y="376" type="curve" smooth="yes"/>
			<point x="118" y="376"/>
			<point x="79" y="449"/>
			<point x="79" y="565" type="curve" smooth="yes"/>
			<point x="79" y="674"/>
			<point x="129" y="728"/>
			<point x="195" y="728" type="curve" smooth="yes"/>
			<point x="276" y="728"/>
			<point x="316" y="654"/>
			<point x="316" y="545" type="curve" smooth="yes"/>
			<point x="316" y="437"/>
			<point x="273" y="376"/>
		</contour>
	</outline>
</glyph>
<glyph name="AE" format="2">
	<unicode hex="00C6"/>
	<advance width="862"/>
	<outline>
		<contour>
			<point x="-10" y="0" type="line"/>
			<point x="180" y="0" type="line"/>
			<point x="180" y="12" type="line"/>
			<point x="123" y="17" type="line" smooth="yes"/>
			<point x="96" y="19"/>
			<point x="96" y="32"/>
			<point x="108" y="56" type="curve" smooth="yes"/>
			<point x="256" y="364" type="line"/>
			<point x="446" y="364" type="line"/>
			<point x="446" y="63" type="line" smooth="yes"/>
			<point x="446" y="30"/>
			<point x="441" y="19"/>
			<point x="415" y="17" type="curve" smooth="yes"/>
			<point x="355" y="12" type="line"/>
			<point x="355" y="0" type="line"/>
			<point x="805" y="0" type="line"/>
			<point x="819" y="155" type="line"/>
			<point x="807" y="155" type="line"/>
			<point x="775" y="30"/>
			<point x="750" y="16"/>
			<point x="655" y="16" type="curve" smooth="yes"/>
			<point x="495" y="16" type="line"/>
			<point x="495" y="364" type="line"/>
			<point x="625" y="364" type="line" smooth="yes"/>
			<point x="704" y="364"/>
			<point x="712" y="349"/>
			<point x="724" y="274" type="curve"/>
			<point x="736" y="273" type="line"/>
			<point x="736" y="472" type="line"/>
			<point x="724" y="472" type="line"/>
			<point x="709" y="392"/>
			<point x="704" y="380"/>
			<point x="629" y="380" type="curve" smooth="yes"/>
			<point x="495" y="380" type="line"/>
			<point x="495" y="714" type="line"/>
			<point x="624" y="714" type="line" smooth="yes"/>
			<point x="728" y="714"/>
			<point x="749" y="709"/>
			<point x="789" y="581" type="curve"/>
			<point x="801" y="580" type="line"/>
			<point x="773" y="730" type="line"/>
			<point x="344" y="730" type="line"/>
			<point x="344" y="718" type="line"/>
			<point x="403" y="712" type="line"/>
			<point x="90" y="61" type="line" smooth="yes"/>
			<point x="74" y="27"/>
			<point x="51" y="20"/>
			<point x="29" y="17" type="curve" smooth="yes"/>
			<point x="-10" y="12" type="line"/>
		</contour>
		<contour>
			<point x="264" y="380" type="line"/>
			<point x="425" y="714" type="line"/>
			<point x="446" y="714" type="line"/>
			<point x="446" y="380" type="line"/>
		</contour>
	</outline>
	<anchor name="bottom" x="468" y="-30"/>
	<anchor name="top" x="574" y="730"/>
	<guideline x="730" y="155" angle="0"/>
</glyph>
<glyph name="multiply" format="2">
	<unicode hex="00D7"/>
	<advance width="582"/>
	<outline>
		<contour>
			<point x="444" y="144" type="line"/>
			<point x="458" y="157" type="line"/>
			<point x="307" y="309" type="line"/>
			<point x="454" y="457" type="line"/>
			<point x="441" y="470" type="line"/>
			<point x="293" y="323" type="line"/>
			<point x="146" y="469" type="line"/>
			<point x="132" y="456" type="line"/>
			<point x="279" y="308" type="line"/>
			<point x="125" y="154" type="line"/>
			<point x="138" y="141" type="line"/>
			<point x="292" y="296" type="line"/>
		</contour>
	</outline>
</glyph>
<glyph name="Oslash" format="2">
	<unicode hex="00D8"/>
	<advance width="714"/>
	<outline>
		<contour>
			<point x="63" y="-14" type="line"/>
			<point x="85" y="-14" type="line"/>
			<point x="143" y="67" type="line"/>
			<point x="193" y="14"/>
			<point x="262" y="-14"/>
			<point x="347" y="-14" type="curve" smooth="yes"/>
			<point x="528" y="-14"/>
			<point x="640" y="120"/>
			<point x="640" y="379" type="curve" smooth="yes"/>
			<point x="640" y="496"/>
			<point x="613" y="589"/>
			<point x="560" y="652" type="curve"/>
			<point x="626" y="744" type="line"/>
			<point x="604" y="744" type="line"/>
			<point x="548" y="666" type="line"/>
			<point x="499" y="716"/>
			<point x="432" y="744"/>
			<point x="348" y="744" type="curve" smooth="yes"/>
			<point x="155" y="744"/>
			<point x="50" y="602"/>
			<point x="50" y="354" type="curve" smooth="yes"/>
			<point x="50" y="237"/>
			<point x="78" y="144"/>
			<point x="130" y="80" type="curve"/>
		</contour>
		<contour>
			<point x="352" y="1" type="curve" smooth="yes"/>
			<point x="271" y="1"/>
			<point x="208" y="36"/>
			<point x="166" y="100" type="curve"/>
			<point x="535" y="617" type="line"/>
			<point x="570" y="556"/>
			<point x="587" y="471"/>
			<point x="587" y="366" type="curve" smooth="yes"/>
			<point x="587" y="130"/>
			<point x="511" y="1"/>
		</contour>
		<contour>
			<point x="156" y="116" type="line"/>
			<point x="121" y="178"/>
			<point x="103" y="264"/>
			<point x="103" y="370" type="curve" smooth="yes"/>
			<point x="103" y="599"/>
			<point x="180" y="729"/>
			<point x="341" y="729" type="curve" smooth="yes"/>
			<point x="422" y="729"/>
			<point x="484" y="696"/>
			<point x="525" y="633" type="curve"/>
		</contour>
	</outline>
	<anchor name="bottom" x="348" y="-30"/>
	<anchor name="top" x="346" y="730"/>
</glyph>
<glyph name="Thorn" format="2">
	<unicode hex="00DE"/>
	<advance width="558"/>
	<outline>
		<contour>
			<point x="55" y="0" type="line"/>
			<point x="306" y="0" type="line"/>
			<point x="306" y="12" type="line"/>
			<point x="227" y="17" type="line" smooth="yes"/>
			<point x="201" y="19"/>
			<point x="194" y="29"/>
			<point x="194" y="62" type="curve" smooth="yes"/>
			<point x="194" y="174" type="line"/>
			<point x="213" y="172"/>
			<point x="236" y="168"/>
			<point x="281" y="168" type="curve" smooth="yes"/>
			<point x="445" y="168"/>
			<point x="513" y="243"/>
			<point x="513" y="372" type="curve" smooth="yes"/>
			<point x="513" y="491"/>
			<point x="431" y="558"/>
			<point x="264" y="558" type="curve" smooth="yes"/>
			<point x="194" y="558" type="line"/>
			<point x="194" y="666" type="line" smooth="yes"/>
			<point x="194" y="702"/>
			<point x="199" y="713"/>
			<point x="225" y="714" type="curve" smooth="yes"/>
			<point x="306" y="718" type="line"/>
			<point x="306" y="730" type="line"/>
			<point x="55" y="730" type="line"/>
			<point x="55" y="718" type="line"/>
			<point x="112" y="714" type="line" smooth="yes"/>
			<point x="138" y="712"/>
			<point x="145" y="702"/>
			<point x="145" y="666" type="curve" smooth="yes"/>
			<point x="145" y="63" type="line" smooth="yes"/>
			<point x="145" y="30"/>
			<point x="140" y="19"/>
			<point x="114" y="17" type="curve" smooth="yes"/>
			<point x="55" y="12" type="line"/>
		</contour>
		<contour>
			<point x="194" y="189" type="curve"/>
			<point x="194" y="543" type="line"/>
			<point x="261" y="543" type="line" smooth="yes"/>
			<point x="392" y="543"/>
			<point x="461" y="512"/>
			<point x="461" y="367" type="curve" smooth="yes"/>
			<point x="461" y="228"/>
			<point x="390" y="183"/>
			<point x="279" y="183" type="curve" smooth="yes"/>
			<point x="240" y="183"/>
			<point x="216" y="186"/>
		</contour>
	</outline>
</glyph>
<glyph name="germandbls" format="2">
	<unicode hex="00DF"/>
	<advance width="608"/>
	<outline>
		<contour>
			<point x="265" y="-14" type="line"/>
			<point x="277" y="-14" type="line"/>
			<point x="285" y="36" type="line"/>
			<point x="313" y="10"/>
			<point x="361" y="-14"/>
			<point x="422" y="-14" type="curve" smooth="yes"/>
			<point x="533" y="-14"/>
			<point x="573" y="70"/>
			<point x="573" y="135" type="curve" smooth="yes"/>
			<point x="573" y="308"/>
			<point x="340" y="287"/>
			<point x="340" y="417" type="curve" smooth="yes"/>
			<point x="340" y="482"/>
			<point x="475" y="541"/>
			<point x="475" y="662" type="curve" smooth="yes"/>
			<point x="475" y="747"/>
			<point x="401" y="782"/>
			<point x="317" y="782" type="curve" smooth="yes"/>
			<point x="192" y="782"/>
			<point x="122" y="690"/>
			<point x="122" y="566" type="curve" smooth="yes"/>
			<point x="122" y="509" type="line"/>
			<point x="48" y="503" type="line"/>
			<point x="48" y="493" type="line"/>
			<point x="122" y="493" type="line"/>
			<point x="122" y="60" type="line" smooth="yes"/>
			<point x="122" y="23"/>
			<point x="115" y="17"/>
			<point x="96" y="16" type="curve" smooth="yes"/>
			<point x="40" y="12" type="line"/>
			<point x="40" y="0" type="line"/>
			<point x="171" y="0" type="line"/>
			<point x="171" y="591" type="line" smooth="yes"/>
			<point x="171" y="743"/>
			<point x="245" y="767"/>
			<point x="316" y="767" type="curve" smooth="yes"/>
			<point x="371" y="767"/>
			<point x="432" y="754"/>
			<point x="432" y="663" type="curve" smooth="yes"/>
			<point x="432" y="491"/>
			<point x="302" y="495"/>
			<point x="302" y="380" type="curve" smooth="yes"/>
			<point x="302" y="249"/>
			<point x="541" y="262"/>
			<point x="541" y="115" type="curve" smooth="yes"/>
			<point x="541" y="37"/>
			<point x="485" y="1"/>
			<point x="424" y="1" type="curve" smooth="yes"/>
			<point x="362" y="1"/>
			<point x="291" y="30"/>
			<point x="266" y="159" type="curve"/>
			<point x="256" y="159" type="line"/>
		</contour>
	</outline>
	<guideline x="292" y="159" angle="0"/>
	<guideline x="358" y="36" angle="0"/>
</glyph>
<glyph name="divide" format="2">
	<unicode hex="00F7"/>
	<advance width="582"/>
	<outline>
		<contour>
			<point x="78" y="293" type="line"/>
			<point x="503" y="293" type="line"/>
			<point x="503" y="313" type="line"/>
			<point x="78" y="313" type="line"/>
		</contour>
		<contour>
			<point x="290" y="122" type="curve" smooth="yes"/>
			<point x="317" y="122"/>
			<point x="339" y="142"/>
			<point x="339" y="168" type="curve" smooth="yes"/>
			<point x="339" y="194"/>
			<point x="317" y="214"/>
			<point x="290" y="214" type="curve" smooth="yes"/>
			<point x="263" y="214"/>
			<point x="241" y="194"/>
			<point x="241" y="168" type="curve" smooth="yes"/>
			<point x="241" y="141"/>
			<point x="263" y="122"/>
		</contour>
		<contour>
			<point x="290" y="395" type="curve" smooth="yes"/>
			<point x="317" y="395"/>
			<point x="339" y="414"/>
			<point x="339" y="441" type="curve" smooth="yes"/>
			<point x="339" y="467"/>
			<point x="317" y="486"/>
			<point x="290" y="486" type="curve" smooth="yes"/>
			<point x="263" y="486"/>
			<point x="241" y="466"/>
			<point x="241" y="440" type="curve" smooth="yes"/>
			<point x="241" y="414"/>
			<point x="263" y="395"/>
		</contour>
	</outline>
</glyph>
<glyph name="thorn" format="2">
	<unicode hex="00FE"/>
	<advance width="561"/>
	<outline>
		<contour>
			<point x="39" y="-216" type="line"/>
			<point x="247" y="-216" type="line"/>
			<point x="247" y="-205" type="line"/>
			<point x="182" y="-200" type="line" smooth="yes"/>
			<point x="162" y="-198"/>
			<point x="157" y="-189"/>
			<point x="157" y="-157" type="curve" smooth="yes"/>
			<point x="157" y="19" type="line"/>
			<point x="201" y="-4"/>
			<point x="243" y="-14"/>
			<point x="288" y="-14" type="curve" smooth="yes"/>
			<point x="425" y="-14"/>
			<point x="514" y="90"/>
			<point x="514" y="261" type="curve" smooth="yes"/>
			<point x="514" y="435"/>
			<point x="444" y="523"/>
			<point x="315" y="523" type="curve" smooth="yes"/>
			<point x="244" y="523"/>
			<point x="187" y="491"/>
			<point x="158" y="435" type="curve"/>
			<point x="157" y="435" type="line"/>
			<point x="158" y="762" type="line"/>
			<point x="152" y="766" type="line"/>
			<point x="16" y="761" type="line"/>
			<point x="15" y="751" type="line"/>
			<point x="65" y="748" type="line" smooth="yes"/>
			<point x="101" y="746"/>
			<point x="108" y="738"/>
			<point x="108" y="690" type="curve" smooth="yes"/>
			<point x="108" y="-156" type="line" smooth="yes"/>
			<point x="108" y="-191"/>
			<point x="103" y="-198"/>
			<point x="82" y="-200" type="curve" smooth="yes"/>
			<point x="39" y="-204" type="line"/>
		</contour>
		<contour>
			<point x="295" y="2" type="curve" smooth="yes"/>
			<point x="245" y="2"/>
			<point x="200" y="16"/>
			<point x="157" y="44" type="curve"/>
			<point x="157" y="349" type="line" smooth="yes"/>
			<point x="157" y="445"/>
			<point x="215" y="497"/>
			<point x="303" y="497" type="curve" smooth="yes"/>
			<point x="405" y="497"/>
			<point x="463" y="415"/>
			<point x="463" y="253" type="curve" smooth="yes"/>
			<point x="463" y="69"/>
			<point x="395" y="2"/>
		</contour>
	</outline>
</glyph>
<glyph name="Aogonek" format="2">
	<unicode hex="0104"/>
	<advance width="592"/>
	<outline>
		<contour>
			<point x="476" y="-223" type="curve" smooth="yes"/>
			<point x="510" y="-223"/>
			<point x="535" y="-213"/>
			<point x="563" y="-171" type="curve"/>
			<point x="555" y="-165" type="line"/>
			<point x="534" y="-186"/>
			<point x="512" y="-192"/>
			<point x="493" y="-192" type="curve" smooth="yes"/>
			<point x="467" y="-192"/>
			<point x="453" y="-176"/>
			<point x="453" y="-139" type="curve" smooth="yes"/>
			<point x="453" y="-94"/>
			<point x="476" y="-53"/>
			<point x="535" y="0" type="curve"/>
			<point x="602" y="0" type="line"/>
			<point x="602" y="12" type="line"/>
			<point x="563" y="17" type="line" smooth="yes"/>
			<point x="535" y="21"/>
			<point x="524" y="32"/>
			<point x="513" y="67" type="curve" smooth="yes"/>
			<point x="306" y="730" type="line"/>
			<point x="279" y="730" type="line"/>
			<point x="67" y="61" type="line" smooth="yes"/>
			<point x="56" y="28"/>
			<point x="52" y="20"/>
			<point x="29" y="17" type="curve" smooth="yes"/>
			<point x="-10" y="12" type="line"/>
			<point x="-10" y="0" type="line"/>
			<point x="161" y="0" type="line"/>
			<point x="161" y="12" type="line"/>
			<point x="104" y="17" type="line" smooth="yes"/>
			<point x="77" y="19"/>
			<point x="77" y="37"/>
			<point x="85" y="61" type="curve" smooth="yes"/>
			<point x="146" y="250" type="line"/>
			<point x="407" y="250" type="line"/>
			<point x="461" y="64" type="line" smooth="yes"/>
			<point x="469" y="36"/>
			<point x="470" y="20"/>
			<point x="443" y="17" type="curve" smooth="yes"/>
			<point x="394" y="12" type="line"/>
			<point x="394" y="0" type="line"/>
			<point x="520" y="0" type="line"/>
			<point x="444" y="-56"/>
			<point x="408" y="-102"/>
			<point x="408" y="-154" type="curve" smooth="yes"/>
			<point x="408" y="-195"/>
			<point x="434" y="-223"/>
		</contour>
		<contour>
			<point x="151" y="266" type="line"/>
			<point x="277" y="669" type="line"/>
			<point x="278" y="669" type="line"/>
			<point x="401" y="266" type="line"/>
		</contour>
	</outline>
	<anchor name="bottom" x="272" y="-30"/>
	<anchor name="top" x="293" y="730"/>
</glyph>
<glyph name="aogonek" format="2">
	<unicode hex="0105"/>
	<advance width="483"/>
	<outline>
		<contour>
			<point x="382" y="-223" type="curve" smooth="yes"/>
			<point x="418" y="-223"/>
			<point x="440" y="-209"/>
			<point x="467" y="-171" type="curve"/>
			<point x="459" y="-165" type="line"/>
			<point x="441" y="-183"/>
			<point x="421" y="-192"/>
			<point x="399" y="-192" type="curve" smooth="yes"/>
			<point x="372" y="-192"/>
			<point x="357" y="-175"/>
			<point x="357" y="-144" type="curve" smooth="yes"/>
			<point x="357" y="-89"/>
			<point x="398" y="-34"/>
			<point x="487" y="30" type="curve"/>
			<point x="481" y="37" type="line"/>
			<point x="465" y="24"/>
			<point x="447" y="17"/>
			<point x="427" y="17" type="curve" smooth="yes"/>
			<point x="397" y="17"/>
			<point x="384" y="33"/>
			<point x="384" y="69" type="curve" smooth="yes"/>
			<point x="384" y="365" type="line" smooth="yes"/>
			<point x="384" y="470"/>
			<point x="331" y="523"/>
			<point x="225" y="523" type="curve" smooth="yes"/>
			<point x="130" y="523"/>
			<point x="57" y="474"/>
			<point x="57" y="410" type="curve" smooth="yes"/>
			<point x="57" y="386"/>
			<point x="73" y="370"/>
			<point x="97" y="370" type="curve" smooth="yes"/>
			<point x="122" y="370"/>
			<point x="137" y="382"/>
			<point x="137" y="403" type="curve" smooth="yes"/>
			<point x="137" y="418"/>
			<point x="133" y="428"/>
			<point x="109" y="474" type="curve"/>
			<point x="139" y="497"/>
			<point x="176" y="508"/>
			<point x="222" y="508" type="curve" smooth="yes"/>
			<point x="300" y="508"/>
			<point x="335" y="469"/>
			<point x="335" y="383" type="curve" smooth="yes"/>
			<point x="335" y="278" type="line"/>
			<point x="139" y="272"/>
			<point x="55" y="224"/>
			<point x="55" y="118" type="curve" smooth="yes"/>
			<point x="55" y="34"/>
			<point x="105" y="-14"/>
			<point x="193" y="-14" type="curve" smooth="yes"/>
			<point x="259" y="-14"/>
			<point x="306" y="14"/>
			<point x="337" y="73" type="curve"/>
			<point x="336" y="12"/>
			<point x="361" y="-14"/>
			<point x="419" y="-14" type="curve"/>
			<point x="343" y="-68"/>
			<point x="312" y="-108"/>
			<point x="312" y="-154" type="curve" smooth="yes"/>
			<point x="312" y="-195"/>
			<point x="340" y="-223"/>
		</contour>
		<contour>
			<point x="210" y="13" type="curve" smooth="yes"/>
			<point x="145" y="13"/>
			<point x="106" y="55"/>
			<point x="106" y="126" type="curve" smooth="yes"/>
			<point x="106" y="224"/>
			<point x="156" y="254"/>
			<point x="335" y="263" type="curve"/>
			<point x="335" y="131" type="line" smooth="yes"/>
			<point x="335" y="63"/>
			<point x="282" y="13"/>
		</contour>
	</outline>
	<anchor name="bottom" x="241" y="-30"/>
	<anchor name="top" x="222" y="550"/>
</glyph>
<glyph name="gcircumflex" format="2">
	<unicode hex="011D"/>
	<advance width="507"/>
	<outline>
		<contour>
			<point x="113" y="584" type="line"/>
			<point x="235" y="693" type="line"/>
			<point x="360" y="584" type="line"/>
			<point x="367" y="591" type="line"/>
			<point x="267" y="731" type="line" smooth="yes"/>
			<point x="254" y="749"/>
			<point x="245" y="751"/>
			<point x="236" y="751" type="curve" smooth="yes"/>
			<point x="226" y="751"/>
			<point x="215" y="745"/>
			<point x="207" y="734" type="curve" smooth="yes"/>
			<point x="106" y="591" type="line"/>
		</contour>
		<component base="g"/>
	</outline>
</glyph>
<glyph name="Hbar" format="2">
	<unicode hex="0126"/>
	<advance width="773"/>
	<outline>
		<contour>
			<point x="55" y="0" type="line"/>
			<point x="293" y="0" type="line"/>
			<point x="293" y="12" type="line"/>
			<point x="231" y="17" type="line" smooth="yes"/>
			<point x="205" y="19"/>
			<point x="200" y="31"/>
			<point x="200" y="62" type="curve" smooth="yes"/>
			<point x="200" y="364" type="line"/>
			<point x="574" y="364" type="line"/>
			<point x="574" y="63" type="line" smooth="yes"/>
			<point x="574" y="29"/>
			<point x="568" y="19"/>
			<point x="543" y="17" type="curve" smooth="yes"/>
			<point x="479" y="12" type="line"/>
			<point x="479" y="0" type="line"/>
			<point x="718" y="0" type="line"/>
			<point x="718" y="12" type="line"/>
			<point x="656" y="17" type="line" smooth="yes"/>
			<point x="630" y="19"/>
			<point x="623" y="29"/>
			<point x="623" y="62" type="curve" smooth="yes"/>
			<point x="623" y="551" type="line"/>
			<point x="719" y="551" type="line"/>
			<point x="719" y="569" type="line"/>
			<point x="623" y="569" type="line"/>
			<point x="623" y="665" type="line" smooth="yes"/>
			<point x="623" y="702"/>
			<point x="629" y="712"/>
			<point x="654" y="714" type="curve" smooth="yes"/>
			<point x="718" y="718" type="line"/>
			<point x="718" y="730" type="line"/>
			<point x="479" y="730" type="line"/>
			<point x="479" y="718" type="line"/>
			<point x="541" y="714" type="line" smooth="yes"/>
			<point x="567" y="712"/>
			<point x="574" y="702"/>
			<point x="574" y="666" type="curve" smooth="yes"/>
			<point x="574" y="569" type="line"/>
			<point x="200" y="569" type="line"/>
			<point x="200" y="665" type="line" smooth="yes"/>
			<point x="200" y="701"/>
			<point x="205" y="712"/>
			<point x="229" y="714" type="curve" smooth="yes"/>
			<point x="293" y="718" type="line"/>
			<point x="293" y="730" type="line"/>
			<point x="55" y="730" type="line"/>
			<point x="55" y="718" type="line"/>
			<point x="119" y="714" type="line" smooth="yes"/>
			<point x="145" y="712"/>
			<point x="151" y="700"/>
			<point x="151" y="666" type="curve" smooth="yes"/>
			<point x="151" y="569" type="line"/>
			<point x="52" y="569" type="line"/>
			<point x="50" y="551" type="line"/>
			<point x="151" y="551" type="line"/>
			<point x="151" y="63" type="line" smooth="yes"/>
			<point x="151" y="29"/>
			<point x="145" y="19"/>
			<point x="120" y="17" type="curve" smooth="yes"/>
			<point x="55" y="12" type="line"/>
		</contour>
		<contour>
			<point x="200" y="380" type="line"/>
			<point x="200" y="551" type="line"/>
			<point x="574" y="551" type="line"/>
			<point x="574" y="380" type="line"/>
		</contour>
	</outline>
	<anchor name="bottom" x="385" y="-30"/>
	<anchor name="top" x="389" y="730"/>
</glyph>
<glyph name="Iogonek" format="2">
	<unicode hex="012E"/>
	<advance width="371"/>
	<outline>
		<contour>
			<point x="165" y="-223" type="curve" smooth="yes"/>
			<point x="199" y="-223"/>
			<point x="224" y="-213"/>
			<point x="252" y="-171" type="curve"/>
			<point x="244" y="-165" type="line"/>
			<point x="223" y="-186"/>
			<point x="201" y="-192"/>
			<point x="182" y="-192" type="curve" smooth="yes"/>
			<point x="156" y="-192"/>
			<point x="142" y="-176"/>
			<point x="142" y="-139" type="curve" smooth="yes"/>
			<point x="142" y="-94"/>
			<point x="165" y="-53"/>
			<point x="224" y="0" type="curve"/>
			<point x="294" y="0" type="line"/>
			<point x="294" y="12" type="line"/>
			<point x="232" y="17" type="line" smooth="yes"/>
			<point x="206" y="19"/>
			<point x="199" y="30"/>
			<point x="199" y="62" type="curve" smooth="yes"/>
			<point x="199" y="666" type="line" smooth="yes"/>
			<point x="199" y="703"/>
			<point x="205" y="712"/>
			<point x="230" y="714" type="curve" smooth="yes"/>
			<point x="294" y="718" type="line"/>
			<point x="294" y="730" type="line"/>
			<point x="55" y="730" type="line"/>
			<point x="55" y="718" type="line"/>
			<point x="117" y="714" type="line" smooth="yes"/>
			<point x="143" y="712"/>
			<point x="150" y="702"/>
			<point x="150" y="666" type="curve" smooth="yes"/>
			<point x="150" y="63" type="line" smooth="yes"/>
			<point x="150" y="29"/>
			<point x="144" y="19"/>
			<point x="119" y="17" type="curve" smooth="yes"/>
			<point x="55" y="12" type="line"/>
			<point x="55" y="0" type="line"/>
			<point x="209" y="0" type="line"/>
			<point x="133" y="-56"/>
			<point x="97" y="-102"/>
			<point x="97" y="-154" type="curve" smooth="yes"/>
			<point x="97" y="-195"/>
			<point x="123" y="-223"/>
		</contour>
	</outline>
	<anchor name="bottom" x="170" y="-31"/>
	<anchor name="top" x="176" y="730"/>
</glyph>
<glyph name="lslash" format="2">
	<unicode hex="0142"/>
	<advance width="293"/>
	<outline>
		<contour>
			<point x="45" y="0" type="line"/>
			<point x="250" y="0" type="line"/>
			<point x="250" y="11" type="line"/>
			<point x="197" y="16" type="line" smooth="yes"/>
			<point x="177" y="18"/>
			<point x="172" y="27"/>
			<point x="172" y="59" type="curve" smooth="yes"/>
			<point x="172" y="410" type="line"/>
			<point x="269" y="465" type="line"/>
			<point x="269" y="483" type="line"/>
			<point x="172" y="427" type="line"/>
			<point x="172" y="762" type="line"/>
			<point x="166" y="766" type="line"/>
			<point x="31" y="761" type="line"/>
			<point x="30" y="751" type="line"/>
			<point x="80" y="748" type="line" smooth="yes"/>
			<point x="116" y="746"/>
			<point x="123" y="737"/>
			<point x="123" y="690" type="curve" smooth="yes"/>
			<point x="123" y="406" type="line"/>
			<point x="35" y="357" type="line"/>
			<point x="35" y="339" type="line"/>
			<point x="123" y="388" type="line"/>
			<point x="123" y="60" type="line" smooth="yes"/>
			<point x="123" y="25"/>
			<point x="118" y="18"/>
			<point x="97" y="16" type="curve" smooth="yes"/>
			<point x="45" y="12" type="line"/>
		</contour>
	</outline>
	<anchor name="bottom" x="148" y="-30"/>
	<anchor name="top" x="117" y="782"/>
</glyph>
<glyph name="Eng" format="2">
	<unicode hex="014A"/>
	<advance width="767"/>
	<outline>
		<contour>
			<point x="55" y="0" type="line"/>
			<point x="260" y="0" type="line"/>
			<point x="260" y="12" type="line"/>
			<point x="202" y="15" type="line" smooth="yes"/>
			<point x="177" y="16"/>
			<point x="169" y="27"/>
			<point x="169" y="62" type="curve" smooth="yes"/>
			<point x="169" y="690" type="line"/>
			<point x="171" y="690" type="line"/>
			<point x="573" y="42" type="line"/>
			<point x="573" y="17" type="line"/>
			<point x="573" y="-146"/>
			<point x="557" y="-174"/>
			<point x="486" y="-229" type="curve"/>
			<point x="492" y="-238" type="line"/>
			<point x="625" y="-164"/>
			<point x="622" y="-95"/>
			<point x="622" y="90" type="curve" smooth="yes"/>
			<point x="622" y="666" type="line" smooth="yes"/>
			<point x="622" y="702"/>
			<point x="629" y="714"/>
			<point x="654" y="715" type="curve" smooth="yes"/>
			<point x="717" y="718" type="line"/>
			<point x="717" y="730" type="line"/>
			<point x="512" y="730" type="line"/>
			<point x="512" y="718" type="line"/>
			<point x="565" y="714" type="line" smooth="yes"/>
			<point x="594" y="712"/>
			<point x="603" y="702"/>
			<point x="603" y="667" type="curve" smooth="yes"/>
			<point x="603" y="93" type="line"/>
			<point x="602" y="93" type="line"/>
			<point x="203" y="730" type="line"/>
			<point x="55" y="730" type="line"/>
			<point x="55" y="718" type="line"/>
			<point x="117" y="714" type="line" smooth="yes"/>
			<point x="145" y="712"/>
			<point x="150" y="703"/>
			<point x="150" y="668" type="curve" smooth="yes"/>
			<point x="150" y="62" type="line" smooth="yes"/>
			<point x="150" y="27"/>
			<point x="141" y="16"/>
			<point x="116" y="15" type="curve" smooth="yes"/>
			<point x="55" y="12" type="line"/>
		</contour>
	</outline>
	<anchor name="bottom" x="152" y="-30"/>
	<anchor name="top" x="372" y="727"/>
</glyph>
<glyph name="eng" format="2">
	<unicode hex="014B"/>
	<advance width="580"/>
	<outline>
		<contour>
			<point x="341" y="523" type="curve" smooth="yes"/>
			<point x="265" y="523"/>
			<point x="194" y="488"/>
			<point x="163" y="414" type="curve"/>
			<point x="161" y="414" type="line"/>
			<point x="162" y="511" type="line"/>
			<point x="158" y="515" type="line"/>
			<point x="33" y="503" type="line"/>
			<point x="32" y="493" type="line"/>
			<point x="80" y="489" type="line" smooth="yes"/>
			<point x="108" y="487"/>
			<point x="113" y="477"/>
			<point x="113" y="427" type="curve" smooth="yes"/>
			<point x="113" y="60" type="line" smooth="yes"/>
			<point x="113" y="25"/>
			<point x="108" y="18"/>
			<point x="87" y="16" type="curve" smooth="yes"/>
			<point x="33" y="12" type="line"/>
			<point x="33" y="0" type="line"/>
			<point x="240" y="0" type="line"/>
			<point x="240" y="12" type="line"/>
			<point x="187" y="16" type="line" smooth="yes"/>
			<point x="166" y="18"/>
			<point x="162" y="28"/>
			<point x="162" y="59" type="curve" smooth="yes"/>
			<point x="162" y="344" type="line" smooth="yes"/>
			<point x="162" y="433"/>
			<point x="225" y="493"/>
			<point x="311" y="493" type="curve" smooth="yes"/>
			<point x="395" y="493"/>
			<point x="433" y="450"/>
			<point x="433" y="359" type="curve" smooth="yes"/>
			<point x="433" y="17" type="line" smooth="yes"/>
			<point x="433" y="-146"/>
			<point x="417" y="-174"/>
			<point x="346" y="-229" type="curve"/>
			<point x="352" y="-238" type="line"/>
			<point x="485" y="-164"/>
			<point x="482" y="-95"/>
			<point x="482" y="90" type="curve" smooth="yes"/>
			<point x="482" y="364" type="line" smooth="yes"/>
			<point x="482" y="465"/>
			<point x="431" y="523"/>
		</contour>
	</outline>
	<anchor name="bottom" x="140" y="-30"/>
	<anchor name="top" x="295" y="550"/>
</glyph>
<glyph name="OE" format="2">
	<unicode hex="0152"/>
	<advance width="980"/>
	<outline>
		<contour>
			<point x="337" y="-14" type="curve" smooth="yes"/>
			<point x="438" y="-14"/>
			<point x="519" y="33"/>
			<point x="568" y="126" type="curve"/>
			<point x="568" y="0" type="line"/>
			<point x="922" y="0" type="line"/>
			<point x="937" y="162" type="line"/>
			<point x="925" y="162" type="line"/>
			<point x="892" y="30"/>
			<point x="869" y="16"/>
			<point x="772" y="16" type="curve" smooth="yes"/>
			<point x="617" y="16" type="line"/>
			<point x="617" y="366" type="line"/>
			<point x="742" y="366" type="line" smooth="yes"/>
			<point x="821" y="366"/>
			<point x="829" y="351"/>
			<point x="841" y="276" type="curve"/>
			<point x="853" y="275" type="line"/>
			<point x="853" y="474" type="line"/>
			<point x="841" y="474" type="line"/>
			<point x="826" y="394"/>
			<point x="821" y="382"/>
			<point x="746" y="382" type="curve" smooth="yes"/>
			<point x="617" y="382" type="line"/>
			<point x="617" y="714" type="line"/>
			<point x="746" y="714" type="line" smooth="yes"/>
			<point x="850" y="714"/>
			<point x="871" y="709"/>
			<point x="911" y="581" type="curve"/>
			<point x="923" y="580" type="line"/>
			<point x="895" y="730" type="line"/>
			<point x="568" y="730" type="line"/>
			<point x="568" y="613" type="line"/>
			<point x="521" y="697"/>
			<point x="442" y="744"/>
			<point x="338" y="744" type="curve" smooth="yes"/>
			<point x="155" y="744"/>
			<point x="50" y="602"/>
			<point x="50" y="354" type="curve" smooth="yes"/>
			<point x="50" y="123"/>
			<point x="159" y="-14"/>
		</contour>
		<contour>
			<point x="342" y="1" type="curve" smooth="yes"/>
			<point x="190" y="1"/>
			<point x="103" y="138"/>
			<point x="103" y="370" type="curve" smooth="yes"/>
			<point x="103" y="599"/>
			<point x="180" y="729"/>
			<point x="331" y="729" type="curve" smooth="yes"/>
			<point x="484" y="729"/>
			<point x="567" y="595"/>
			<point x="567" y="366" type="curve" smooth="yes"/>
			<point x="567" y="130"/>
			<point x="491" y="1"/>
		</contour>
	</outline>
</glyph>
<glyph name="oe" format="2">
	<unicode hex="0153"/>
	<advance width="835"/>
	<outline>
		<contour>
			<point x="260" y="-14" type="curve" smooth="yes"/>
			<point x="346" y="-14"/>
			<point x="410" y="33"/>
			<point x="444" y="112" type="curve"/>
			<point x="477" y="25"/>
			<point x="543" y="-14"/>
			<point x="622" y="-14" type="curve" smooth="yes"/>
			<point x="689" y="-14"/>
			<point x="747" y="14"/>
			<point x="798" y="87" type="curve"/>
			<point x="789" y="94" type="line"/>
			<point x="744" y="44"/>
			<point x="698" y="26"/>
			<point x="642" y="26" type="curve" smooth="yes"/>
			<point x="550" y="26"/>
			<point x="466" y="90"/>
			<point x="471" y="277" type="curve"/>
			<point x="791" y="277" type="line"/>
			<point x="793" y="302"/>
			<point x="794" y="330"/>
			<point x="794" y="350" type="curve" smooth="yes"/>
			<point x="794" y="450"/>
			<point x="736" y="523"/>
			<point x="631" y="523" type="curve" smooth="yes"/>
			<point x="549" y="523"/>
			<point x="484" y="476"/>
			<point x="450" y="397" type="curve"/>
			<point x="417" y="475"/>
			<point x="352" y="521"/>
			<point x="264" y="521" type="curve" smooth="yes"/>
			<point x="122" y="521"/>
			<point x="42" y="413"/>
			<point x="42" y="248" type="curve" smooth="yes"/>
			<point x="42" y="88"/>
			<point x="125" y="-14"/>
		</contour>
		<contour>
			<point x="266" y="2" type="curve" smooth="yes"/>
			<point x="158" y="2"/>
			<point x="93" y="85"/>
			<point x="93" y="263" type="curve" smooth="yes"/>
			<point x="93" y="432"/>
			<point x="154" y="506"/>
			<point x="257" y="506" type="curve" smooth="yes"/>
			<point x="367" y="506"/>
			<point x="422" y="420"/>
			<point x="422" y="248" type="curve" smooth="yes"/>
			<point x="422" y="78"/>
			<point x="364" y="2"/>
		</contour>
		<contour>
			<point x="472" y="296" type="line"/>
			<point x="480" y="442"/>
			<point x="539" y="508"/>
			<point x="628" y="508" type="curve" smooth="yes"/>
			<point x="707" y="508"/>
			<point x="744" y="460"/>
			<point x="744" y="350" type="curve" smooth="yes"/>
			<point x="744" y="334"/>
			<point x="743" y="317"/>
			<point x="741" y="296" type="curve"/>
		</contour>
	</outline>
</glyph>
<glyph name="Scedilla" format="2">
	<unicode hex="015E"/>
	<advance width="552"/>
	<outline>
		<contour>
			<point x="288" y="-224" type="curve" smooth="yes"/>
			<point x="352" y="-224"/>
			<point x="381" y="-184"/>
			<point x="381" y="-138" type="curve" smooth="yes"/>
			<point x="381" y="-86"/>
			<point x="333" y="-52"/>
			<point x="267" y="-65" type="curve"/>
			<point x="287" y="-14" type="line"/>
			<point x="434" y="-14"/>
			<point x="497" y="85"/>
			<point x="497" y="193" type="curve" smooth="yes"/>
			<point x="497" y="278"/>
			<point x="451" y="359"/>
			<point x="293" y="412" type="curve" smooth="yes"/>
			<point x="158" y="457"/>
			<point x="120" y="510"/>
			<point x="120" y="594" type="curve" smooth="yes"/>
			<point x="120" y="677"/>
			<point x="178" y="729"/>
			<point x="273" y="729" type="curve" smooth="yes"/>
			<point x="346" y="729"/>
			<point x="426" y="694"/>
			<point x="462" y="563" type="curve"/>
			<point x="474" y="564" type="line"/>
			<point x="464" y="744" type="line"/>
			<point x="452" y="744" type="line"/>
			<point x="436" y="679" type="line"/>
			<point x="389" y="717"/>
			<point x="343" y="744"/>
			<point x="277" y="744" type="curve" smooth="yes"/>
			<point x="172" y="744"/>
			<point x="76" y="688"/>
			<point x="76" y="572" type="curve" smooth="yes"/>
			<point x="76" y="479"/>
			<point x="116" y="411"/>
			<point x="277" y="359" type="curve" smooth="yes"/>
			<point x="411" y="316"/>
			<point x="453" y="253"/>
			<point x="453" y="156" type="curve" smooth="yes"/>
			<point x="453" y="42"/>
			<point x="365" y="1"/>
			<point x="285" y="1" type="curve" smooth="yes"/>
			<point x="203" y="1"/>
			<point x="99" y="35"/>
			<point x="67" y="195" type="curve"/>
			<point x="57" y="195" type="line"/>
			<point x="68" y="-14" type="line"/>
			<point x="80" y="-14" type="line"/>
			<point x="92" y="58" type="line"/>
			<point x="135" y="24"/>
			<point x="186" y="-11"/>
			<point x="275" y="-14" type="curve"/>
			<point x="247" y="-85" type="line"/>
			<point x="249" y="-89" type="line"/>
			<point x="260" y="-86"/>
			<point x="273" y="-85"/>
			<point x="285" y="-85" type="curve" smooth="yes"/>
			<point x="314" y="-85"/>
			<point x="338" y="-102"/>
			<point x="338" y="-142" type="curve" smooth="yes"/>
			<point x="338" y="-185"/>
			<point x="314" y="-203"/>
			<point x="274" y="-203" type="curve" smooth="yes"/>
			<point x="241" y="-203"/>
			<point x="212" y="-187"/>
			<point x="196" y="-172" type="curve"/>
			<point x="189" y="-179" type="line"/>
			<point x="208" y="-200"/>
			<point x="238" y="-224"/>
		</contour>
	</outline>
	<anchor name="bottom" x="282" y="-30"/>
	<anchor name="top" x="280" y="729"/>
</glyph>
<glyph name="scedilla" format="2">
	<unicode hex="015F"/>
	<advance width="413"/>
	<outline>
		<contour>
			<point x="210" y="-224" type="curve" smooth="yes"/>
			<point x="274" y="-224"/>
			<point x="303" y="-184"/>
			<point x="303" y="-138" type="curve" smooth="yes"/>
			<point x="303" y="-86"/>
			<point x="255" y="-52"/>
			<point x="189" y="-65" type="curve"/>
			<point x="209" y="-14" type="line"/>
			<point x="310" y="-14"/>
			<point x="369" y="50"/>
			<point x="369" y="135" type="curve" smooth="yes"/>
			<point x="369" y="240"/>
			<point x="280" y="271"/>
			<point x="218" y="287" type="curve" smooth="yes"/>
			<point x="151" y="304"/>
			<point x="86" y="323"/>
			<point x="86" y="409" type="curve" smooth="yes"/>
			<point x="86" y="468"/>
			<point x="133" y="508"/>
			<point x="197" y="508" type="curve" smooth="yes"/>
			<point x="273" y="508"/>
			<point x="321" y="467"/>
			<point x="345" y="377" type="curve"/>
			<point x="355" y="378" type="line"/>
			<point x="345" y="523" type="line"/>
			<point x="336" y="523" type="line"/>
			<point x="324" y="477" type="line"/>
			<point x="296" y="503"/>
			<point x="256" y="523"/>
			<point x="200" y="523" type="curve" smooth="yes"/>
			<point x="106" y="523"/>
			<point x="55" y="456"/>
			<point x="55" y="383" type="curve" smooth="yes"/>
			<point x="55" y="280"/>
			<point x="139" y="254"/>
			<point x="190" y="241" type="curve" smooth="yes"/>
			<point x="281" y="218"/>
			<point x="332" y="198"/>
			<point x="332" y="116" type="curve" smooth="yes"/>
			<point x="332" y="55"/>
			<point x="291" y="2"/>
			<point x="210" y="2" type="curve" smooth="yes"/>
			<point x="144" y="2"/>
			<point x="79" y="37"/>
			<point x="49" y="155" type="curve"/>
			<point x="39" y="155" type="line"/>
			<point x="50" y="-14" type="line"/>
			<point x="62" y="-14" type="line"/>
			<point x="71" y="38" type="line"/>
			<point x="109" y="2"/>
			<point x="153" y="-12"/>
			<point x="197" y="-14" type="curve"/>
			<point x="169" y="-85" type="line"/>
			<point x="171" y="-89" type="line"/>
			<point x="182" y="-86"/>
			<point x="195" y="-85"/>
			<point x="207" y="-85" type="curve" smooth="yes"/>
			<point x="236" y="-85"/>
			<point x="260" y="-102"/>
			<point x="260" y="-142" type="curve" smooth="yes"/>
			<point x="260" y="-185"/>
			<point x="236" y="-203"/>
			<point x="196" y="-203" type="curve" smooth="yes"/>
			<point x="163" y="-203"/>
			<point x="134" y="-187"/>
			<point x="118" y="-172" type="curve"/>
			<point x="111" y="-179" type="line"/>
			<point x="130" y="-200"/>
			<point x="160" y="-224"/>
		</contour>
	</outline>
	<anchor name="bottom" x="204" y="-30"/>
	<anchor name="top" x="205" y="550"/>
</glyph>
<glyph name="Tbar" format="2">
	<unicode hex="0166"/>
	<advance width="614"/>
	<outline>
		<contour>
			<point x="172" y="0" type="line"/>
			<point x="441" y="0" type="line"/>
			<point x="441" y="12" type="line"/>
			<point x="365" y="17" type="line" smooth="yes"/>
			<point x="338" y="19"/>
			<point x="331" y="27"/>
			<point x="331" y="63" type="curve" smooth="yes"/>
			<point x="331" y="363" type="line"/>
			<point x="499" y="363" type="line"/>
			<point x="499" y="381" type="line"/>
			<point x="331" y="381" type="line"/>
			<point x="331" y="714" type="line"/>
			<point x="420" y="714" type="line" smooth="yes"/>
			<point x="516" y="714"/>
			<point x="536" y="694"/>
			<point x="585" y="526" type="curve"/>
			<point x="597" y="526" type="line"/>
			<point x="568" y="730" type="line"/>
			<point x="48" y="730" type="line"/>
			<point x="17" y="526" type="line"/>
			<point x="30" y="526" type="line"/>
			<point x="79" y="694"/>
			<point x="93" y="714"/>
			<point x="195" y="714" type="curve" smooth="yes"/>
			<point x="282" y="714" type="line"/>
			<point x="282" y="381" type="line"/>
			<point x="114" y="381" type="line"/>
			<point x="112" y="363" type="line"/>
			<point x="282" y="363" type="line"/>
			<point x="282" y="63" type="line" smooth="yes"/>
			<point x="282" y="26"/>
			<point x="271" y="19"/>
			<point x="247" y="17" type="curve" smooth="yes"/>
			<point x="172" y="12" type="line"/>
		</contour>
	</outline>
	<anchor name="bottom" x="306" y="-30"/>
	<anchor name="top" x="307" y="730"/>
</glyph>
<glyph name="uogonek" format="2">
	<unicode hex="0173"/>
	<advance width="586"/>
	<outline>
		<contour>
			<point x="462" y="-223" type="curve" smooth="yes"/>
			<point x="496" y="-223"/>
			<point x="521" y="-213"/>
			<point x="549" y="-171" type="curve"/>
			<point x="541" y="-165" type="line"/>
			<point x="520" y="-186"/>
			<point x="498" y="-192"/>
			<point x="479" y="-192" type="curve" smooth="yes"/>
			<point x="453" y="-192"/>
			<point x="439" y="-176"/>
			<point x="439" y="-139" type="curve" smooth="yes"/>
			<point x="439" y="-95"/>
			<point x="461" y="-56"/>
			<point x="516" y="-4" type="curve"/>
			<point x="552" y="-2" type="line"/>
			<point x="552" y="9" type="line"/>
			<point x="500" y="11" type="line" smooth="yes"/>
			<point x="474" y="12"/>
			<point x="468" y="23"/>
			<point x="468" y="56" type="curve" smooth="yes"/>
			<point x="468" y="511" type="line"/>
			<point x="464" y="515" type="line"/>
			<point x="339" y="503" type="line"/>
			<point x="338" y="493" type="line"/>
			<point x="386" y="489" type="line" smooth="yes"/>
			<point x="414" y="487"/>
			<point x="419" y="477"/>
			<point x="419" y="427" type="curve" smooth="yes"/>
			<point x="419" y="154" type="line" smooth="yes"/>
			<point x="419" y="63"/>
			<point x="357" y="16"/>
			<point x="266" y="16" type="curve" smooth="yes"/>
			<point x="192" y="16"/>
			<point x="154" y="59"/>
			<point x="154" y="136" type="curve" smooth="yes"/>
			<point x="154" y="511" type="line"/>
			<point x="150" y="515" type="line"/>
			<point x="25" y="503" type="line"/>
			<point x="24" y="493" type="line"/>
			<point x="72" y="489" type="line" smooth="yes"/>
			<point x="100" y="487"/>
			<point x="105" y="477"/>
			<point x="105" y="427" type="curve" smooth="yes"/>
			<point x="105" y="154" type="line" smooth="yes"/>
			<point x="105" y="40"/>
			<point x="160" y="-14"/>
			<point x="259" y="-14" type="curve" smooth="yes"/>
			<point x="323" y="-14"/>
			<point x="381" y="14"/>
			<point x="416" y="81" type="curve"/>
			<point x="417" y="81" type="line"/>
			<point x="419" y="-10" type="line"/>
			<point x="499" y="-5" type="line"/>
			<point x="428" y="-59"/>
			<point x="394" y="-103"/>
			<point x="394" y="-154" type="curve" smooth="yes"/>
			<point x="394" y="-195"/>
			<point x="420" y="-223"/>
		</contour>
	</outline>
	<anchor name="bottom" x="288" y="-30"/>
	<anchor name="top" x="271" y="550"/>
</glyph>
<glyph name="florin" format="2">
	<unicode hex="0192"/>
	<advance width="531"/>
	<outline>
		<contour>
			<point x="31" y="-163" type="curve" smooth="yes"/>
			<point x="124" y="-163"/>
			<point x="192" y="-96"/>
			<point x="212" y="71" type="curve" smooth="yes"/>
			<point x="258" y="452" type="line"/>
			<point x="402" y="452" type="line"/>
			<point x="404" y="465" type="line"/>
			<point x="260" y="465" type="line"/>
			<point x="272" y="560" type="line" smooth="yes"/>
			<point x="289" y="693"/>
			<point x="324" y="729"/>
			<point x="390" y="729" type="curve" smooth="yes"/>
			<point x="423" y="729"/>
			<point x="447" y="721"/>
			<point x="466" y="708" type="curve"/>
			<point x="440" y="672"/>
			<point x="437" y="662"/>
			<point x="437" y="646" type="curve" smooth="yes"/>
			<point x="437" y="630"/>
			<point x="450" y="618"/>
			<point x="468" y="618" type="curve" smooth="yes"/>
			<point x="496" y="618"/>
			<point x="506" y="639"/>
			<point x="506" y="664" type="curve" smooth="yes"/>
			<point x="506" y="709"/>
			<point x="455" y="744"/>
			<point x="394" y="744" type="curve" smooth="yes"/>
			<point x="295" y="744"/>
			<point x="231" y="682"/>
			<point x="210" y="524" type="curve" smooth="yes"/>
			<point x="202" y="465" type="line"/>
			<point x="124" y="465" type="line"/>
			<point x="122" y="452" type="line"/>
			<point x="200" y="452" type="line"/>
			<point x="148" y="18" type="line" smooth="yes"/>
			<point x="134" y="-102"/>
			<point x="98" y="-148"/>
			<point x="33" y="-148" type="curve" smooth="yes"/>
			<point x="-2" y="-148"/>
			<point x="-28" y="-139"/>
			<point x="-43" y="-127" type="curve"/>
			<point x="-21" y="-94"/>
			<point x="-14" y="-81"/>
			<point x="-14" y="-64" type="curve" smooth="yes"/>
			<point x="-14" y="-48"/>
			<point x="-27" y="-36"/>
			<point x="-45" y="-36" type="curve" smooth="yes"/>
			<point x="-73" y="-36"/>
			<point x="-85" y="-57"/>
			<point x="-85" y="-83" type="curve" smooth="yes"/>
			<point x="-85" y="-137"/>
			<point x="-32" y="-163"/>
		</contour>
	</outline>
</glyph>
<glyph name="Ohorn" format="2">
	<unicode hex="01A0"/>
	<advance width="787"/>
	<outline>
		<contour>
			<point x="347" y="-14" type="curve" smooth="yes"/>
			<point x="528" y="-14"/>
			<point x="640" y="120"/>
			<point x="640" y="379" type="curve" smooth="yes"/>
			<point x="640" y="422"/>
			<point x="636" y="461"/>
			<point x="629" y="497" type="curve"/>
			<point x="743" y="538"/>
			<point x="787" y="617"/>
			<point x="787" y="690" type="curve" smooth="yes"/>
			<point x="787" y="730"/>
			<point x="767" y="761"/>
			<point x="729" y="761" type="curve" smooth="yes"/>
			<point x="703" y="761"/>
			<point x="683" y="741"/>
			<point x="683" y="714" type="curve" smooth="yes"/>
			<point x="683" y="683"/>
			<point x="705" y="669"/>
			<point x="739" y="669" type="curve" smooth="yes"/>
			<point x="756" y="669" type="line"/>
			<point x="752" y="608"/>
			<point x="728" y="554"/>
			<point x="626" y="512" type="curve"/>
			<point x="591" y="659"/>
			<point x="496" y="744"/>
			<point x="348" y="744" type="curve" smooth="yes"/>
			<point x="155" y="744"/>
			<point x="50" y="602"/>
			<point x="50" y="354" type="curve" smooth="yes"/>
			<point x="50" y="123"/>
			<point x="159" y="-14"/>
		</contour>
		<contour>
			<point x="352" y="1" type="curve" smooth="yes"/>
			<point x="190" y="1"/>
			<point x="103" y="138"/>
			<point x="103" y="370" type="curve" smooth="yes"/>
			<point x="103" y="599"/>
			<point x="180" y="729"/>
			<point x="341" y="729" type="curve" smooth="yes"/>
			<point x="504" y="729"/>
			<point x="587" y="595"/>
			<point x="587" y="366" type="curve" smooth="yes"/>
			<point x="587" y="130"/>
			<point x="511" y="1"/>
		</contour>
	</outline>
	<anchor name="bottom" x="348" y="-30"/>
	<anchor name="top" x="346" y="730"/>
</glyph>
<glyph name="uhorn" format="2">
	<unicode hex="01B0"/>
	<advance width="623"/>
	<outline>
		<contour>
			<point x="259" y="-14" type="curve" smooth="yes"/>
			<point x="323" y="-14"/>
			<point x="381" y="14"/>
			<point x="416" y="81" type="curve"/>
			<point x="417" y="81" type="line"/>
			<point x="419" y="-10" type="line"/>
			<point x="552" y="-2" type="line"/>
			<point x="552" y="9" type="line"/>
			<point x="500" y="11" type="line" smooth="yes"/>
			<point x="474" y="12"/>
			<point x="468" y="23"/>
			<point x="468" y="56" type="curve" smooth="yes"/>
			<point x="468" y="391" type="line"/>
			<point x="577" y="431"/>
			<point x="623" y="507"/>
			<point x="623" y="583" type="curve" smooth="yes"/>
			<point x="623" y="623"/>
			<point x="603" y="654"/>
			<point x="565" y="654" type="curve" smooth="yes"/>
			<point x="538" y="654"/>
			<point x="520" y="635"/>
			<point x="520" y="609" type="curve" smooth="yes"/>
			<point x="520" y="576"/>
			<point x="540" y="562"/>
			<point x="575" y="562" type="curve" smooth="yes"/>
			<point x="591" y="562" type="line"/>
			<point x="587" y="500"/>
			<point x="563" y="449"/>
			<point x="468" y="407" type="curve"/>
			<point x="468" y="511" type="line"/>
			<point x="464" y="515" type="line"/>
			<point x="339" y="503" type="line"/>
			<point x="338" y="493" type="line"/>
			<point x="386" y="489" type="line" smooth="yes"/>
			<point x="414" y="487"/>
			<point x="419" y="478"/>
			<point x="419" y="427" type="curve" smooth="yes"/>
			<point x="419" y="154" type="line" smooth="yes"/>
			<point x="419" y="63"/>
			<point x="357" y="16"/>
			<point x="266" y="16" type="curve" smooth="yes"/>
			<point x="192" y="16"/>
			<point x="154" y="59"/>
			<point x="154" y="136" type="curve" smooth="yes"/>
			<point x="154" y="511" type="line"/>
			<point x="150" y="515" type="line"/>
			<point x="25" y="503" type="line"/>
			<point x="24" y="493" type="line"/>
			<point x="72" y="489" type="line" smooth="yes"/>
			<point x="100" y="487"/>
			<point x="105" y="478"/>
			<point x="105" y="427" type="curve" smooth="yes"/>
			<point x="105" y="154" type="line" smooth="yes"/>
			<point x="105" y="40"/>
			<point x="160" y="-14"/>
		</contour>
	</outline>
	<anchor name="bottom" x="285" y="-30"/>
	<anchor name="top" x="271" y="550"/>
</glyph>
<glyph name="oogonek" format="2">
	<unicode hex="01EB"/>
	<advance width="515"/>
	<outline>
		<contour>
			<point x="282" y="-223" type="curve" smooth="yes"/>
			<point x="316" y="-223"/>
			<point x="341" y="-213"/>
			<point x="369" y="-171" type="curve"/>
			<point x="361" y="-165" type="line"/>
			<point x="340" y="-186"/>
			<point x="318" y="-192"/>
			<point x="299" y="-192" type="curve" smooth="yes"/>
			<point x="273" y="-192"/>
			<point x="259" y="-176"/>
			<point x="259" y="-139" type="curve" smooth="yes"/>
			<point x="259" y="-92"/>
			<point x="284" y="-51"/>
			<point x="346" y="4" type="curve"/>
			<point x="427" y="43"/>
			<point x="473" y="139"/>
			<point x="473" y="270" type="curve" smooth="yes"/>
			<point x="473" y="421"/>
			<point x="393" y="521"/>
			<point x="264" y="521" type="curve" smooth="yes"/>
			<point x="122" y="521"/>
			<point x="42" y="413"/>
			<point x="42" y="248" type="curve" smooth="yes"/>
			<point x="42" y="88"/>
			<point x="125" y="-14"/>
			<point x="260" y="-14" type="curve" smooth="yes"/>
			<point x="281" y="-14"/>
			<point x="300" y="-11"/>
			<point x="318" y="-6" type="curve"/>
			<point x="248" y="-59"/>
			<point x="214" y="-104"/>
			<point x="214" y="-154" type="curve" smooth="yes"/>
			<point x="214" y="-195"/>
			<point x="240" y="-223"/>
		</contour>
		<contour>
			<point x="266" y="2" type="curve" smooth="yes"/>
			<point x="158" y="2"/>
			<point x="93" y="85"/>
			<point x="93" y="263" type="curve" smooth="yes"/>
			<point x="93" y="432"/>
			<point x="154" y="506"/>
			<point x="257" y="506" type="curve" smooth="yes"/>
			<point x="367" y="506"/>
			<point x="422" y="420"/>
			<point x="422" y="248" type="curve" smooth="yes"/>
			<point x="422" y="78"/>
			<point x="364" y="2"/>
		</contour>
	</outline>
	<anchor name="bottom" x="259" y="-30"/>
	<anchor name="top" x="258" y="550"/>
</glyph>
<glyph name="jdotless" format="2">
	<unicode hex="0237"/>
	<advance width="260"/>
	<outline>
		<contour>
			<point x="32" y="-238" type="line"/>
			<point x="165" y="-164"/>
			<point x="162" y="-95"/>
			<point x="162" y="90" type="curve" smooth="yes"/>
			<point x="162" y="511" type="line"/>
			<point x="158" y="515" type="line"/>
			<point x="33" y="503" type="line"/>
			<point x="32" y="493" type="line"/>
			<point x="80" y="489" type="line" smooth="yes"/>
			<point x="108" y="487"/>
			<point x="113" y="478"/>
			<point x="113" y="427" type="curve" smooth="yes"/>
			<point x="113" y="17" type="line" smooth="yes"/>
			<point x="113" y="-146"/>
			<point x="97" y="-174"/>
			<point x="26" y="-229" type="curve"/>
		</contour>
	</outline>
	<anchor name="top" x="136" y="550"/>
</glyph>
<glyph name="schwa" format="2">
	<unicode hex="0259"/>
	<advance width="461"/>
	<outline>
		<contour>
			<point x="210" y="-14" type="curve" smooth="yes"/>
			<point x="334" y="-14"/>
			<point x="419" y="93"/>
			<point x="419" y="259" type="curve" smooth="yes"/>
			<point x="419" y="443"/>
			<point x="331" y="523"/>
			<point x="219" y="523" type="curve" smooth="yes"/>
			<point x="152" y="523"/>
			<point x="93" y="499"/>
			<point x="42" y="424" type="curve"/>
			<point x="52" y="415" type="line"/>
			<point x="97" y="465"/>
			<point x="143" y="483"/>
			<point x="199" y="483" type="curve" smooth="yes"/>
			<point x="291" y="483"/>
			<point x="375" y="419"/>
			<point x="370" y="232" type="curve"/>
			<point x="50" y="232" type="line"/>
			<point x="48" y="207"/>
			<point x="47" y="179"/>
			<point x="47" y="159" type="curve" smooth="yes"/>
			<point x="47" y="59"/>
			<point x="105" y="-14"/>
		</contour>
		<contour>
			<point x="213" y="1" type="curve" smooth="yes"/>
			<point x="134" y="1"/>
			<point x="97" y="49"/>
			<point x="97" y="159" type="curve" smooth="yes"/>
			<point x="97" y="175"/>
			<point x="98" y="192"/>
			<point x="100" y="213" type="curve"/>
			<point x="369" y="213" type="line"/>
			<point x="361" y="67"/>
			<point x="302" y="1"/>
		</contour>
	</outline>
	<anchor name="bottom" x="217" y="-30"/>
	<anchor name="top" x="216" y="550"/>
</glyph>
<glyph name="gsingle" format="2">
	<unicode hex="0261"/>
	<advance width="551"/>
	<outline>
		<contour>
			<point x="258" y="-230" type="curve" smooth="yes"/>
			<point x="366" y="-230"/>
			<point x="453" y="-185"/>
			<point x="453" y="-7" type="curve" smooth="yes"/>
			<point x="453" y="522" type="line"/>
			<point x="450" y="523" type="line"/>
			<point x="412" y="486" type="line"/>
			<point x="365" y="512"/>
			<point x="321" y="523"/>
			<point x="273" y="523" type="curve" smooth="yes"/>
			<point x="136" y="523"/>
			<point x="47" y="419"/>
			<point x="47" y="248" type="curve" smooth="yes"/>
			<point x="47" y="74"/>
			<point x="117" y="-14"/>
			<point x="246" y="-14" type="curve" smooth="yes"/>
			<point x="321" y="-14"/>
			<point x="375" y="22"/>
			<point x="403" y="80" type="curve"/>
			<point x="404" y="80" type="line"/>
			<point x="404" y="-62" type="line" smooth="yes"/>
			<point x="404" y="-179"/>
			<point x="335" y="-214"/>
			<point x="262" y="-214" type="curve" smooth="yes"/>
			<point x="210" y="-214"/>
			<point x="173" y="-202"/>
			<point x="149" y="-185" type="curve"/>
			<point x="163" y="-152"/>
			<point x="165" y="-142"/>
			<point x="165" y="-128" type="curve" smooth="yes"/>
			<point x="165" y="-105"/>
			<point x="152" y="-91"/>
			<point x="127" y="-91" type="curve" smooth="yes"/>
			<point x="101" y="-91"/>
			<point x="89" y="-108"/>
			<point x="89" y="-132" type="curve" smooth="yes"/>
			<point x="89" y="-187"/>
			<point x="162" y="-230"/>
		</contour>
		<contour>
			<point x="258" y="12" type="curve" smooth="yes"/>
			<point x="156" y="12"/>
			<point x="98" y="94"/>
			<point x="98" y="256" type="curve" smooth="yes"/>
			<point x="98" y="440"/>
			<point x="166" y="507"/>
			<point x="266" y="507" type="curve" smooth="yes"/>
			<point x="316" y="507"/>
			<point x="361" y="493"/>
			<point x="404" y="465" type="curve"/>
			<point x="404" y="160" type="line" smooth="yes"/>
			<point x="404" y="64"/>
			<point x="346" y="12"/>
		</contour>
	</outline>
</glyph>
<glyph name="commaturnedmod" format="2">
	<unicode hex="02BB"/>
	<outline>
		<contour>
			<point x="0" y="588" type="curve" smooth="yes"/>
			<point x="27" y="588"/>
			<point x="40" y="607"/>
			<point x="40" y="629" type="curve" smooth="yes"/>
			<point x="40" y="652"/>
			<point x="27" y="669"/>
			<point x="-6" y="669" type="curve" smooth="yes"/>
			<point x="-17" y="669" type="line"/>
			<point x="-19" y="701"/>
			<point x="-7" y="731"/>
			<point x="35" y="771" type="curve"/>
			<point x="27" y="780" type="line"/>
			<point x="-31" y="731"/>
			<point x="-46" y="683"/>
			<point x="-46" y="645" type="curve" smooth="yes"/>
			<point x="-46" y="615"/>
			<point x="-32" y="588"/>
		</contour>
	</outline>
	<anchor name="_top" x="0" y="550"/>
</glyph>
<glyph name="ringhalfleft" format="2">
	<unicode hex="02BF"/>
	<advance width="500"/>
	<outline>
		<contour>
			<point x="292" y="584" type="curve" smooth="yes"/>
			<point x="297" y="584" type="line"/>
			<point x="297" y="596" type="line"/>
			<point x="294" y="596" type="line" smooth="yes"/>
			<point x="245" y="596"/>
			<point x="229" y="629"/>
			<point x="229" y="684" type="curve" smooth="yes"/>
			<point x="229" y="743"/>
			<point x="247" y="773"/>
			<point x="293" y="773" type="curve" smooth="yes"/>
			<point x="297" y="773" type="line"/>
			<point x="297" y="783" type="line"/>
			<point x="291" y="783" type="line" smooth="yes"/>
			<point x="228" y="783"/>
			<point x="192" y="748"/>
			<point x="192" y="684" type="curve" smooth="yes"/>
			<point x="192" y="626"/>
			<point x="226" y="584"/>
		</contour>
	</outline>
	<anchor name="_top" x="250" y="550"/>
</glyph>
<glyph name="verticallinemod" format="2">
	<unicode hex="02C8"/>
	<advance width="500"/>
	<outline>
		<contour>
			<point x="233" y="587" type="line"/>
			<point x="267" y="587" type="line"/>
			<point x="267" y="757" type="line"/>
			<point x="233" y="757" type="line"/>
		</contour>
	</outline>
	<anchor name="_top" x="250" y="550"/>
</glyph>
<glyph name="dotaccent" format="2">
	<unicode hex="02D9"/>
	<advance width="500"/>
	<outline>
		<contour>
			<point x="250" y="637" type="curve" smooth="yes"/>
			<point x="278" y="637"/>
			<point x="291" y="657"/>
			<point x="291" y="684" type="curve" smooth="yes"/>
			<point x="291" y="713"/>
			<point x="277" y="727"/>
			<point x="251" y="727" type="curve" smooth="yes"/>
			<point x="225" y="727"/>
			<point x="210" y="711"/>
			<point x="210" y="681" type="curve" smooth="yes"/>
			<point x="210" y="655"/>
			<point x="224" y="637"/>
		</contour>
	</outline>
	<anchor name="_top" x="250" y="550"/>
</glyph>
<glyph name="ring" format="2">
	<unicode hex="02DA"/>
	<advance width="500"/>
	<outline>
		<contour>
			<point x="250" y="592" type="curve" smooth="yes"/>
			<point x="314" y="592"/>
			<point x="349" y="632"/>
			<point x="349" y="689" type="curve" smooth="yes"/>
			<point x="349" y="741"/>
			<point x="312" y="780"/>
			<point x="251" y="780" type="curve" smooth="yes"/>
			<point x="183" y="780"/>
			<point x="151" y="734"/>
			<point x="151" y="687" type="curve" smooth="yes"/>
			<point x="151" y="632"/>
			<point x="181" y="592"/>
		</contour>
		<contour>
			<point x="252" y="604" type="curve" smooth="yes"/>
			<point x="208" y="604"/>
			<point x="192" y="636"/>
			<point x="192" y="686" type="curve" smooth="yes"/>
			<point x="192" y="736"/>
			<point x="206" y="768"/>
			<point x="248" y="768" type="curve" smooth="yes"/>
			<point x="289" y="768"/>
			<point x="308" y="737"/>
			<point x="308" y="686" type="curve" smooth="yes"/>
			<point x="308" y="633"/>
			<point x="295" y="604"/>
		</contour>
	</outline>
	<anchor name="_top" x="250" y="550"/>
</glyph>
<glyph name="ogonek" format="2">
	<unicode hex="02DB"/>
	<advance width="500"/>
	<outline>
		<contour>
			<point x="240" y="-223" type="curve" smooth="yes"/>
			<point x="274" y="-223"/>
			<point x="299" y="-213"/>
			<point x="327" y="-171" type="curve"/>
			<point x="319" y="-165" type="line"/>
			<point x="298" y="-186"/>
			<point x="276" y="-192"/>
			<point x="257" y="-192" type="curve" smooth="yes"/>
			<point x="231" y="-192"/>
			<point x="217" y="-176"/>
			<point x="217" y="-139" type="curve" smooth="yes"/>
			<point x="217" y="-91"/>
			<point x="243" y="-49"/>
			<point x="309" y="9" type="curve"/>
			<point x="297" y="9" type="line"/>
			<point x="212" y="-51"/>
			<point x="172" y="-99"/>
			<point x="172" y="-154" type="curve" smooth="yes"/>
			<point x="172" y="-195"/>
			<point x="198" y="-223"/>
		</contour>
	</outline>
	<anchor name="_bottom" x="255" y="-30"/>
</glyph>
<glyph name="gravecomb" format="2">
	<unicode hex="0300"/>
	<outline>
		<contour>
			<point x="52" y="587" type="line"/>
			<point x="58" y="593" type="line"/>
			<point x="-40" y="731" type="line" smooth="yes"/>
			<point x="-51" y="747"/>
			<point x="-61" y="755"/>
			<point x="-73" y="755" type="curve" smooth="yes"/>
			<point x="-87" y="755"/>
			<point x="-96" y="743"/>
			<point x="-96" y="729" type="curve" smooth="yes"/>
			<point x="-96" y="716"/>
			<point x="-86" y="701"/>
			<point x="-65" y="683" type="curve" smooth="yes"/>
		</contour>
	</outline>
	<anchor name="_top" x="0" y="550"/>
</glyph>
<glyph name="circumflexcomb" format="2">
	<unicode hex="0302"/>
	<outline>
		<contour>
			<point x="-123" y="586" type="line"/>
			<point x="-1" y="695" type="line"/>
			<point x="124" y="586" type="line"/>
			<point x="131" y="593" type="line"/>
			<point x="31" y="733" type="line" smooth="yes"/>
			<point x="18" y="751"/>
			<point x="9" y="753"/>
			<point x="0" y="753" type="curve" smooth="yes"/>
			<point x="-10" y="753"/>
			<point x="-21" y="747"/>
			<point x="-29" y="736" type="curve" smooth="yes"/>
			<point x="-130" y="593" type="line"/>
		</contour>
	</outline>
	<anchor name="_top" x="0" y="550"/>
</glyph>
<glyph name="tildecomb" format="2">
	<unicode hex="0303"/>
	<outline>
		<contour>
			<point x="72" y="623" type="curve" smooth="yes"/>
			<point x="100" y="623"/>
			<point x="124" y="635"/>
			<point x="134" y="705" type="curve"/>
			<point x="124" y="708" type="line"/>
			<point x="105" y="667"/>
			<point x="95" y="662"/>
			<point x="83" y="662" type="curve" smooth="yes"/>
			<point x="70" y="662"/>
			<point x="59" y="666"/>
			<point x="9" y="687" type="curve" smooth="yes"/>
			<point x="-32" y="704"/>
			<point x="-51" y="708"/>
			<point x="-71" y="708" type="curve" smooth="yes"/>
			<point x="-101" y="708"/>
			<point x="-124" y="693"/>
			<point x="-133" y="626" type="curve"/>
			<point x="-123" y="623" type="line"/>
			<point x="-106" y="660"/>
			<point x="-97" y="669"/>
			<point x="-82" y="669" type="curve" smooth="yes"/>
			<point x="-70" y="669"/>
			<point x="-59" y="665"/>
			<point x="-8" y="645" type="curve" smooth="yes"/>
			<point x="28" y="631"/>
			<point x="50" y="623"/>
		</contour>
	</outline>
	<anchor name="_top" x="0" y="550"/>
</glyph>
<glyph name="brevecomb" format="2">
	<unicode hex="0306"/>
	<outline>
		<contour>
			<point x="-5" y="597" type="curve" smooth="yes"/>
			<point x="82" y="597"/>
			<point x="111" y="651"/>
			<point x="121" y="750" type="curve"/>
			<point x="111" y="752" type="line"/>
			<point x="88" y="684"/>
			<point x="65" y="647"/>
			<point x="-3" y="647" type="curve" smooth="yes"/>
			<point x="-70" y="647"/>
			<point x="-94" y="679"/>
			<point x="-119" y="752" type="curve"/>
			<point x="-129" y="750" type="line"/>
			<point x="-118" y="650"/>
			<point x="-91" y="597"/>
		</contour>
	</outline>
	<anchor name="_top" x="-5" y="550"/>
</glyph>
<glyph name="hungarumlautcomb" format="2">
	<unicode hex="030B"/>
	<outline>
		<contour>
			<point x="-77" y="586" type="line"/>
			<point x="33" y="684" type="line" smooth="yes"/>
			<point x="54" y="702"/>
			<point x="63" y="716"/>
			<point x="63" y="729" type="curve" smooth="yes"/>
			<point x="63" y="743"/>
			<point x="55" y="754"/>
			<point x="41" y="754" type="curve" smooth="yes"/>
			<point x="29" y="754"/>
			<point x="20" y="747"/>
			<point x="9" y="731" type="curve" smooth="yes"/>
			<point x="-84" y="593" type="line"/>
		</contour>
		<contour>
			<point x="55" y="586" type="line"/>
			<point x="168" y="682" type="line" smooth="yes"/>
			<point x="189" y="700"/>
			<point x="198" y="714"/>
			<point x="198" y="727" type="curve" smooth="yes"/>
			<point x="198" y="741"/>
			<point x="190" y="752"/>
			<point x="176" y="752" type="curve" smooth="yes"/>
			<point x="164" y="752"/>
			<point x="155" y="745"/>
			<point x="144" y="729" type="curve" smooth="yes"/>
			<point x="48" y="593" type="line"/>
		</contour>
	</outline>
	<anchor name="_top" x="0" y="550"/>
</glyph>
<glyph name="caroncomb" format="2">
	<unicode hex="030C"/>
	<outline>
		<contour>
			<point x="-1" y="591" type="curve" smooth="yes"/>
			<point x="9" y="591"/>
			<point x="20" y="597"/>
			<point x="28" y="608" type="curve" smooth="yes"/>
			<point x="129" y="751" type="line"/>
			<point x="122" y="758" type="line"/>
			<point x="0" y="649" type="line"/>
			<point x="-125" y="758" type="line"/>
			<point x="-132" y="751" type="line"/>
			<point x="-32" y="611" type="line" smooth="yes"/>
			<point x="-19" y="593"/>
			<point x="-10" y="591"/>
		</contour>
	</outline>
	<anchor name="_top" x="-1" y="550"/>
</glyph>
<glyph name="commaaccentcomb" format="2">
	<unicode hex="0326"/>
	<outline>
		<contour>
			<point x="-26" y="-262" type="line"/>
			<point x="34" y="-207"/>
			<point x="45" y="-157"/>
			<point x="45" y="-118" type="curve" smooth="yes"/>
			<point x="45" y="-89"/>
			<point x="32" y="-63"/>
			<point x="0" y="-63" type="curve" smooth="yes"/>
			<point x="-26" y="-63"/>
			<point x="-38" y="-83"/>
			<point x="-38" y="-100" type="curve" smooth="yes"/>
			<point x="-38" y="-126"/>
			<point x="-26" y="-142"/>
			<point x="11" y="-142" type="curve" smooth="yes"/>
			<point x="19" y="-142" type="line"/>
			<point x="20" y="-173"/>
			<point x="8" y="-208"/>
			<point x="-34" y="-253" type="curve"/>
		</contour>
	</outline>
	<anchor name="_bottom" x="0" y="-30"/>
</glyph>
<glyph name="ogonekcomb" format="2">
	<unicode hex="0328"/>
	<outline>
		<contour>
			<point x="-10" y="-223" type="curve" smooth="yes"/>
			<point x="24" y="-223"/>
			<point x="49" y="-213"/>
			<point x="77" y="-171" type="curve"/>
			<point x="69" y="-165" type="line"/>
			<point x="48" y="-186"/>
			<point x="26" y="-192"/>
			<point x="7" y="-192" type="curve" smooth="yes"/>
			<point x="-19" y="-192"/>
			<point x="-33" y="-176"/>
			<point x="-33" y="-139" type="curve" smooth="yes"/>
			<point x="-33" y="-91"/>
			<point x="-7" y="-49"/>
			<point x="59" y="9" type="curve"/>
			<point x="47" y="9" type="line"/>
			<point x="-38" y="-51"/>
			<point x="-78" y="-99"/>
			<point x="-78" y="-154" type="curve" smooth="yes"/>
			<point x="-78" y="-195"/>
			<point x="-52" y="-223"/>
		</contour>
	</outline>
	<anchor name="_bottom" x="5" y="-30"/>
</glyph>
<glyph name="brevebelowcomb" format="2">
	<unicode hex="032E"/>
	<outline>
		<contour>
			<point x="-1" y="-204" type="curve" smooth="yes"/>
			<point x="83" y="-204"/>
			<point x="121" y="-148"/>
			<point x="132" y="-63" type="curve"/>
			<point x="122" y="-61" type="line"/>
			<point x="101" y="-118"/>
			<point x="68" y="-151"/>
			<point x="0" y="-151" type="curve" smooth="yes"/>
			<point x="-67" y="-151"/>
			<point x="-97" y="-122"/>
			<point x="-124" y="-61" type="curve"/>
			<point x="-133" y="-63" type="line"/>
			<point x="-121" y="-157"/>
			<point x="-82" y="-204"/>
		</contour>
	</outline>
	<anchor name="_bottom" x="0" y="-30"/>
</glyph>
<glyph name="macronbelowcomb" format="2">
	<unicode hex="0331"/>
	<outline>
		<contour>
			<point x="-118" y="-139" type="line"/>
			<point x="120" y="-139" type="line"/>
			<point x="120" y="-99" type="line"/>
			<point x="-118" y="-99" type="line"/>
		</contour>
	</outline>
	<anchor name="_bottom" x="0" y="-30"/>
</glyph>
<glyph name="numeral-greek" format="2">
	<unicode hex="0374"/>
	<advance width="342"/>
	<outline>
		<contour>
			<point x="81" y="537" type="line"/>
			<point x="207" y="736" type="line"/>
			<point x="207" y="741" type="line"/>
			<point x="192" y="761"/>
			<point x="182" y="768"/>
			<point x="170" y="768" type="curve" smooth="yes"/>
			<point x="150" y="768"/>
			<point x="147" y="757"/>
			<point x="138" y="732" type="curve" smooth="yes"/>
			<point x="72" y="542" type="line"/>
		</contour>
	</outline>
</glyph>
<glyph name="Gamma" format="2">
	<unicode hex="0393"/>
	<advance width="540"/>
	<outline>
		<contour>
			<point x="55" y="0" type="line"/>
			<point x="336" y="0" type="line"/>
			<point x="336" y="12" type="line"/>
			<point x="234" y="16" type="line" smooth="yes"/>
			<point x="207" y="17"/>
			<point x="199" y="28"/>
			<point x="199" y="63" type="curve"/>
			<point x="199" y="714" type="line"/>
			<point x="323" y="714" type="line" smooth="yes"/>
			<point x="434" y="714"/>
			<point x="450" y="701"/>
			<point x="488" y="581" type="curve"/>
			<point x="500" y="580" type="line"/>
			<point x="472" y="730" type="line"/>
			<point x="55" y="730" type="line"/>
			<point x="55" y="718" type="line"/>
			<point x="117" y="714" type="line" smooth="yes"/>
			<point x="143" y="712"/>
			<point x="150" y="702"/>
			<point x="150" y="666" type="curve" smooth="yes"/>
			<point x="150" y="63" type="line" smooth="yes"/>
			<point x="150" y="28"/>
			<point x="144" y="19"/>
			<point x="119" y="17" type="curve" smooth="yes"/>
			<point x="55" y="12" type="line"/>
		</contour>
	</outline>
</glyph>
<glyph name="Theta" format="2">
	<unicode hex="0398"/>
	<advance width="695"/>
	<outline>
		<contour>
			<point x="352" y="-14" type="curve" smooth="yes"/>
			<point x="539" y="-14"/>
			<point x="645" y="128"/>
			<point x="645" y="379" type="curve" smooth="yes"/>
			<point x="645" y="610"/>
			<point x="538" y="744"/>
			<point x="353" y="744" type="curve" smooth="yes"/>
			<point x="162" y="744"/>
			<point x="55" y="604"/>
			<point x="55" y="354" type="curve" smooth="yes"/>
			<point x="55" y="122"/>
			<point x="165" y="-14"/>
		</contour>
		<contour>
			<point x="357" y="1" type="curve" smooth="yes"/>
			<point x="198" y="1"/>
			<point x="108" y="134"/>
			<point x="108" y="370" type="curve" smooth="yes"/>
			<point x="108" y="606"/>
			<point x="190" y="729"/>
			<point x="346" y="729" type="curve" smooth="yes"/>
			<point x="505" y="729"/>
			<point x="592" y="601"/>
			<point x="592" y="366" type="curve" smooth="yes"/>
			<point x="592" y="125"/>
			<point x="512" y="1"/>
		</contour>
		<contour>
			<point x="200" y="264" type="line"/>
			<point x="212" y="264" type="line"/>
			<point x="226" y="347"/>
			<point x="246" y="356"/>
			<point x="312" y="356" type="curve" smooth="yes"/>
			<point x="388" y="356" type="line" smooth="yes"/>
			<point x="463" y="356"/>
			<point x="479" y="342"/>
			<point x="488" y="266" type="curve"/>
			<point x="500" y="265" type="line"/>
			<point x="500" y="464" type="line"/>
			<point x="488" y="464" type="line"/>
			<point x="477" y="383"/>
			<point x="465" y="372"/>
			<point x="388" y="372" type="curve" smooth="yes"/>
			<point x="312" y="372" type="line" smooth="yes"/>
			<point x="238" y="372"/>
			<point x="222" y="386"/>
			<point x="212" y="462" type="curve"/>
			<point x="200" y="463" type="line"/>
		</contour>
	</outline>
</glyph>
<glyph name="Sigma" format="2">
	<unicode hex="03A3"/>
	<advance width="577"/>
	<outline>
		<contour>
			<point x="65" y="0" type="line"/>
			<point x="520" y="0" type="line"/>
			<point x="534" y="164" type="line"/>
			<point x="522" y="164" type="line"/>
			<point x="499" y="67"/>
			<point x="466" y="35"/>
			<point x="390" y="35" type="curve" smooth="yes"/>
			<point x="89" y="35" type="line"/>
			<point x="102" y="15" type="line"/>
			<point x="328" y="362" type="line"/>
			<point x="328" y="371" type="line"/>
			<point x="110" y="714" type="line"/>
			<point x="347" y="714" type="line" smooth="yes"/>
			<point x="457" y="714"/>
			<point x="474" y="700"/>
			<point x="510" y="581" type="curve"/>
			<point x="522" y="580" type="line"/>
			<point x="494" y="730" type="line"/>
			<point x="41" y="730" type="line"/>
			<point x="41" y="714" type="line"/>
			<point x="275" y="340" type="line"/>
			<point x="65" y="15" type="line"/>
		</contour>
	</outline>
</glyph>
<glyph name="Psi" format="2">
	<unicode hex="03A8"/>
	<advance width="833"/>
	<outline>
		<contour>
			<point x="297" y="0" type="line"/>
			<point x="536" y="0" type="line"/>
			<point x="536" y="12" type="line"/>
			<point x="475" y="17" type="line" smooth="yes"/>
			<point x="447" y="19"/>
			<point x="441" y="29"/>
			<point x="441" y="68" type="curve" smooth="yes"/>
			<point x="441" y="198" type="line"/>
			<point x="627" y="204"/>
			<point x="698" y="272"/>
			<point x="698" y="446" type="curve" smooth="yes"/>
			<point x="698" y="666" type="line" smooth="yes"/>
			<point x="698" y="702"/>
			<point x="704" y="712"/>
			<point x="729" y="714" type="curve" smooth="yes"/>
			<point x="793" y="718" type="line"/>
			<point x="793" y="730" type="line"/>
			<point x="651" y="730" type="line"/>
			<point x="651" y="446" type="line" smooth="yes"/>
			<point x="651" y="288"/>
			<point x="589" y="219"/>
			<point x="441" y="213" type="curve"/>
			<point x="441" y="664" type="line" smooth="yes"/>
			<point x="441" y="703"/>
			<point x="447" y="712"/>
			<point x="472" y="714" type="curve" smooth="yes"/>
			<point x="536" y="718" type="line"/>
			<point x="536" y="730" type="line"/>
			<point x="297" y="730" type="line"/>
			<point x="297" y="718" type="line"/>
			<point x="352" y="715" type="line" smooth="yes"/>
			<point x="384" y="713"/>
			<point x="392" y="703"/>
			<point x="392" y="668" type="curve" smooth="yes"/>
			<point x="392" y="213" type="line"/>
			<point x="249" y="219"/>
			<point x="182" y="290"/>
			<point x="182" y="436" type="curve" smooth="yes"/>
			<point x="182" y="730" type="line"/>
			<point x="40" y="730" type="line"/>
			<point x="40" y="718" type="line"/>
			<point x="104" y="714" type="line" smooth="yes"/>
			<point x="129" y="712"/>
			<point x="135" y="702"/>
			<point x="135" y="664" type="curve" smooth="yes"/>
			<point x="135" y="436" type="line" smooth="yes"/>
			<point x="135" y="272"/>
			<point x="209" y="204"/>
			<point x="392" y="198" type="curve"/>
			<point x="392" y="67" type="line" smooth="yes"/>
			<point x="392" y="27"/>
			<point x="386" y="18"/>
			<point x="355" y="16" type="curve" smooth="yes"/>
			<point x="297" y="12" type="line"/>
		</contour>
	</outline>
</glyph>
<glyph name="epsilon" format="2">
	<unicode hex="03B5"/>
	<advance width="474"/>
	<outline>
		<contour>
			<point x="236" y="-14" type="curve" smooth="yes"/>
			<point x="327" y="-14"/>
			<point x="389" y="19"/>
			<point x="434" y="90" type="curve"/>
			<point x="425" y="95" type="line"/>
			<point x="392" y="46"/>
			<point x="330" y="21"/>
			<point x="242" y="21" type="curve" smooth="yes"/>
			<point x="155" y="21"/>
			<point x="101" y="68"/>
			<point x="101" y="146" type="curve" smooth="yes"/>
			<point x="101" y="203"/>
			<point x="140" y="247"/>
			<point x="195" y="254" type="curve"/>
			<point x="223" y="233"/>
			<point x="248" y="222"/>
			<point x="265" y="222" type="curve" smooth="yes"/>
			<point x="294" y="222"/>
			<point x="311" y="240"/>
			<point x="311" y="268" type="curve" smooth="yes"/>
			<point x="311" y="295"/>
			<point x="293" y="313"/>
			<point x="265" y="313" type="curve" smooth="yes"/>
			<point x="244" y="313"/>
			<point x="225" y="303"/>
			<point x="197" y="277" type="curve"/>
			<point x="133" y="293"/>
			<point x="100" y="330"/>
			<point x="100" y="388" type="curve" smooth="yes"/>
			<point x="100" y="462"/>
			<point x="159" y="506"/>
			<point x="256" y="506" type="curve" smooth="yes"/>
			<point x="320" y="506"/>
			<point x="362" y="495"/>
			<point x="388" y="471" type="curve"/>
			<point x="357" y="430"/>
			<point x="350" y="417"/>
			<point x="350" y="399" type="curve" smooth="yes"/>
			<point x="350" y="374"/>
			<point x="364" y="360"/>
			<point x="391" y="360" type="curve" smooth="yes"/>
			<point x="421" y="360"/>
			<point x="437" y="380"/>
			<point x="437" y="416" type="curve" smooth="yes"/>
			<point x="437" y="481"/>
			<point x="369" y="521"/>
			<point x="260" y="521" type="curve" smooth="yes"/>
			<point x="139" y="521"/>
			<point x="56" y="463"/>
			<point x="56" y="378" type="curve" smooth="yes"/>
			<point x="56" y="326"/>
			<point x="89" y="287"/>
			<point x="151" y="266" type="curve"/>
			<point x="151" y="265" type="line"/>
			<point x="84" y="245"/>
			<point x="47" y="200"/>
			<point x="47" y="138" type="curve" smooth="yes"/>
			<point x="47" y="46"/>
			<point x="122" y="-14"/>
		</contour>
	</outline>
	<anchor name="top" x="247" y="550"/>
</glyph>
<glyph name="eta" format="2">
	<unicode hex="03B7"/>
	<advance width="552"/>
	<outline>
		<contour>
			<point x="475" y="-220" type="line"/>
			<point x="479" y="-216" type="line"/>
			<point x="485" y="-164"/>
			<point x="489" y="-73"/>
			<point x="489" y="1" type="curve" smooth="yes"/>
			<point x="489" y="354" type="line" smooth="yes"/>
			<point x="489" y="472"/>
			<point x="443" y="523"/>
			<point x="338" y="523" type="curve" smooth="yes"/>
			<point x="266" y="523"/>
			<point x="200" y="479"/>
			<point x="175" y="414" type="curve"/>
			<point x="173" y="414" type="line"/>
			<point x="173" y="482"/>
			<point x="148" y="518"/>
			<point x="101" y="518" type="curve" smooth="yes"/>
			<point x="71" y="518"/>
			<point x="43" y="503"/>
			<point x="21" y="474" type="curve"/>
			<point x="27" y="467" type="line"/>
			<point x="45" y="480"/>
			<point x="62" y="487"/>
			<point x="79" y="487" type="curve" smooth="yes"/>
			<point x="110" y="487"/>
			<point x="125" y="467"/>
			<point x="125" y="423" type="curve" smooth="yes"/>
			<point x="125" y="0" type="line"/>
			<point x="174" y="0" type="line"/>
			<point x="174" y="344" type="line" smooth="yes"/>
			<point x="174" y="426"/>
			<point x="239" y="493"/>
			<point x="318" y="493" type="curve" smooth="yes"/>
			<point x="408" y="493"/>
			<point x="440" y="453"/>
			<point x="440" y="342" type="curve" smooth="yes"/>
			<point x="440" y="15" type="line" smooth="yes"/>
			<point x="440" y="-65"/>
			<point x="438" y="-109"/>
			<point x="427" y="-215" type="curve"/>
		</contour>
	</outline>
	<anchor name="bottom" x="149" y="-30"/>
	<anchor name="top" x="263" y="550"/>
</glyph>
<glyph name="theta" format="2">
	<unicode hex="03B8"/>
	<advance width="525"/>
	<outline>
		<contour>
			<point x="271" y="-14" type="curve" smooth="yes"/>
			<point x="404" y="-14"/>
			<point x="473" y="122"/>
			<point x="473" y="385" type="curve" smooth="yes"/>
			<point x="473" y="647"/>
			<point x="404" y="782"/>
			<point x="270" y="782" type="curve" smooth="yes"/>
			<point x="128" y="782"/>
			<point x="52" y="644"/>
			<point x="52" y="387" type="curve" smooth="yes"/>
			<point x="52" y="121"/>
			<point x="126" y="-14"/>
		</contour>
		<contour>
			<point x="269" y="2" type="curve" smooth="yes"/>
			<point x="154" y="2"/>
			<point x="103" y="112"/>
			<point x="103" y="360" type="curve"/>
			<point x="422" y="385" type="line"/>
			<point x="422" y="85"/>
			<point x="389" y="2"/>
		</contour>
		<contour>
			<point x="103" y="405" type="line"/>
			<point x="103" y="645"/>
			<point x="155" y="767"/>
			<point x="258" y="767" type="curve" smooth="yes"/>
			<point x="374" y="767"/>
			<point x="422" y="661"/>
			<point x="422" y="405" type="curve"/>
		</contour>
	</outline>
</glyph>
<glyph name="iota" format="2">
	<unicode hex="03B9"/>
	<advance width="248"/>
	<outline>
		<contour>
			<point x="163" y="-14" type="curve" smooth="yes"/>
			<point x="202" y="-14"/>
			<point x="234" y="2"/>
			<point x="253" y="31" type="curve"/>
			<point x="248" y="38" type="line"/>
			<point x="227" y="23"/>
			<point x="207" y="17"/>
			<point x="179" y="17" type="curve" smooth="yes"/>
			<point x="127" y="17"/>
			<point x="111" y="42"/>
			<point x="111" y="122" type="curve" smooth="yes"/>
			<point x="111" y="277"/>
			<point x="116" y="443"/>
			<point x="123" y="511" type="curve"/>
			<point x="119" y="515" type="line"/>
			<point x="63" y="510" type="line"/>
			<point x="64" y="481"/>
			<point x="69" y="162"/>
			<point x="69" y="122" type="curve" smooth="yes"/>
			<point x="69" y="28"/>
			<point x="98" y="-14"/>
		</contour>
	</outline>
	<anchor name="top" x="92" y="550"/>
</glyph>
<glyph name="lambda" format="2">
	<unicode hex="03BB"/>
	<advance width="558"/>
	<outline>
		<contour>
			<point x="553" y="38" type="line"/>
			<point x="535" y="27"/>
			<point x="519" y="16"/>
			<point x="489" y="16" type="curve" smooth="yes"/>
			<point x="455" y="16"/>
			<point x="447" y="27"/>
			<point x="418" y="116" type="curve" smooth="yes"/>
			<point x="261" y="590" type="line" smooth="yes"/>
			<point x="212" y="737"/>
			<point x="171" y="782"/>
			<point x="86" y="782" type="curve" smooth="yes"/>
			<point x="38" y="782"/>
			<point x="0" y="756"/>
			<point x="0" y="722" type="curve" smooth="yes"/>
			<point x="0" y="695"/>
			<point x="14" y="679"/>
			<point x="40" y="679" type="curve" smooth="yes"/>
			<point x="58" y="679"/>
			<point x="70" y="690"/>
			<point x="70" y="706" type="curve" smooth="yes"/>
			<point x="70" y="720"/>
			<point x="63" y="734"/>
			<point x="45" y="762" type="curve"/>
			<point x="56" y="767"/>
			<point x="67" y="769"/>
			<point x="85" y="769" type="curve" smooth="yes"/>
			<point x="148" y="769"/>
			<point x="181" y="726"/>
			<point x="226" y="583" type="curve" smooth="yes"/>
			<point x="247" y="517" type="line"/>
			<point x="20" y="4" type="line"/>
			<point x="24" y="0" type="line"/>
			<point x="78" y="0" type="line"/>
			<point x="265" y="454" type="line"/>
			<point x="267" y="454" type="line"/>
			<point x="380" y="100" type="line" smooth="yes"/>
			<point x="410" y="4"/>
			<point x="425" y="-14"/>
			<point x="474" y="-14" type="curve" smooth="yes"/>
			<point x="505" y="-14"/>
			<point x="542" y="6"/>
			<point x="558" y="31" type="curve"/>
		</contour>
	</outline>
</glyph>
<glyph name="omicron" format="2">
	<unicode hex="03BF"/>
	<advance width="505"/>
	<outline>
		<contour>
			<point x="258" y="-14" type="curve" smooth="yes"/>
			<point x="382" y="-14"/>
			<point x="463" y="98"/>
			<point x="463" y="270" type="curve" smooth="yes"/>
			<point x="463" y="420"/>
			<point x="382" y="521"/>
			<point x="261" y="521" type="curve" smooth="yes"/>
			<point x="124" y="521"/>
			<point x="42" y="418"/>
			<point x="42" y="245" type="curve" smooth="yes"/>
			<point x="42" y="87"/>
			<point x="126" y="-14"/>
		</contour>
		<contour>
			<point x="256" y="2" type="curve" smooth="yes"/>
			<point x="152" y="2"/>
			<point x="93" y="96"/>
			<point x="93" y="263" type="curve" smooth="yes"/>
			<point x="93" y="417"/>
			<point x="149" y="506"/>
			<point x="247" y="506" type="curve" smooth="yes"/>
			<point x="357" y="506"/>
			<point x="412" y="420"/>
			<point x="412" y="245" type="curve" smooth="yes"/>
			<point x="412" y="86"/>
			<point x="358" y="2"/>
		</contour>
	</outline>
	<anchor name="top" x="253" y="550"/>
</glyph>
<glyph name="rho" format="2">
	<unicode hex="03C1"/>
	<advance width="506"/>
	<outline>
		<contour>
			<point x="68" y="-220" type="line"/>
			<point x="115" y="-215" type="line"/>
			<point x="105" y="-120"/>
			<point x="102" y="-64"/>
			<point x="102" y="19" type="curve"/>
			<point x="103" y="19" type="line"/>
			<point x="144" y="-2"/>
			<point x="193" y="-14"/>
			<point x="239" y="-14" type="curve" smooth="yes"/>
			<point x="372" y="-14"/>
			<point x="459" y="95"/>
			<point x="459" y="261" type="curve" smooth="yes"/>
			<point x="459" y="424"/>
			<point x="380" y="523"/>
			<point x="251" y="523" type="curve" smooth="yes"/>
			<point x="132" y="523"/>
			<point x="53" y="421"/>
			<point x="53" y="266" type="curve" smooth="yes"/>
			<point x="53" y="26" type="line"/>
			<point x="53" y="-64"/>
			<point x="57" y="-163"/>
			<point x="63" y="-216" type="curve"/>
		</contour>
		<contour>
			<point x="247" y="2" type="curve" smooth="yes"/>
			<point x="192" y="2"/>
			<point x="145" y="16"/>
			<point x="102" y="44" type="curve"/>
			<point x="102" y="256" type="line" smooth="yes"/>
			<point x="102" y="429"/>
			<point x="149" y="508"/>
			<point x="251" y="508" type="curve" smooth="yes"/>
			<point x="352" y="508"/>
			<point x="408" y="415"/>
			<point x="408" y="246" type="curve" smooth="yes"/>
			<point x="408" y="87"/>
			<point x="352" y="2"/>
		</contour>
	</outline>
	<anchor name="top" x="223" y="550"/>
</glyph>
<glyph name="tau" format="2">
	<unicode hex="03C4"/>
	<advance width="448"/>
	<outline>
		<contour>
			<point x="264" y="-14" type="curve" smooth="yes"/>
			<point x="316" y="-14"/>
			<point x="358" y="11"/>
			<point x="391" y="60" type="curve"/>
			<point x="383" y="66" type="line"/>
			<point x="357" y="35"/>
			<point x="320" y="17"/>
			<point x="283" y="17" type="curve" smooth="yes"/>
			<point x="227" y="17"/>
			<point x="205" y="45"/>
			<point x="205" y="119" type="curve" smooth="yes"/>
			<point x="205" y="250"/>
			<point x="208" y="419"/>
			<point x="211" y="478" type="curve"/>
			<point x="419" y="478" type="line"/>
			<point x="423" y="482" type="line"/>
			<point x="423" y="521" type="line"/>
			<point x="132" y="516" type="line" smooth="yes"/>
			<point x="99" y="515"/>
			<point x="43" y="502"/>
			<point x="10" y="488" type="curve"/>
			<point x="9" y="478" type="line"/>
			<point x="185" y="478" type="line"/>
			<point x="165" y="278"/>
			<point x="156" y="165"/>
			<point x="156" y="130" type="curve" smooth="yes"/>
			<point x="156" y="29"/>
			<point x="188" y="-14"/>
		</contour>
	</outline>
</glyph>
<glyph name="upsilon" format="2">
	<unicode hex="03C5"/>
	<advance width="534"/>
	<outline>
		<contour>
			<point x="289" y="-14" type="curve" smooth="yes"/>
			<point x="416" y="-14"/>
			<point x="492" y="88"/>
			<point x="492" y="258" type="curve" smooth="yes"/>
			<point x="492" y="351"/>
			<point x="469" y="446"/>
			<point x="431" y="511" type="curve"/>
			<point x="427" y="515" type="line"/>
			<point x="374" y="509" type="line"/>
			<point x="413" y="450"/>
			<point x="440" y="346"/>
			<point x="440" y="256" type="curve" smooth="yes"/>
			<point x="440" y="83"/>
			<point x="393" y="2"/>
			<point x="292" y="2" type="curve" smooth="yes"/>
			<point x="199" y="2"/>
			<point x="154" y="66"/>
			<point x="154" y="199" type="curve" smooth="yes"/>
			<point x="154" y="313"/>
			<point x="164" y="347"/>
			<point x="164" y="430" type="curve" smooth="yes"/>
			<point x="164" y="487"/>
			<point x="141" y="518"/>
			<point x="99" y="518" type="curve" smooth="yes"/>
			<point x="68" y="518"/>
			<point x="43" y="504"/>
			<point x="21" y="474" type="curve"/>
			<point x="27" y="467" type="line"/>
			<point x="48" y="481"/>
			<point x="61" y="487"/>
			<point x="77" y="487" type="curve" smooth="yes"/>
			<point x="105" y="487"/>
			<point x="118" y="467"/>
			<point x="118" y="424" type="curve" smooth="yes"/>
			<point x="118" y="339"/>
			<point x="109" y="291"/>
			<point x="109" y="203" type="curve" smooth="yes"/>
			<point x="109" y="55"/>
			<point x="166" y="-14"/>
		</contour>
	</outline>
	<anchor name="top" x="273" y="550"/>
</glyph>
<glyph name="psi" format="2">
	<unicode hex="03C8"/>
	<advance width="689"/>
	<outline>
		<contour>
			<point x="350" y="-216" type="line"/>
			<point x="383" y="-216" type="line"/>
			<point x="387" y="-14" type="line"/>
			<point x="551" y="-11"/>
			<point x="647" y="89"/>
			<point x="647" y="258" type="curve" smooth="yes"/>
			<point x="647" y="349"/>
			<point x="622" y="451"/>
			<point x="586" y="511" type="curve"/>
			<point x="582" y="515" type="line"/>
			<point x="529" y="509" type="line"/>
			<point x="568" y="452"/>
			<point x="595" y="348"/>
			<point x="595" y="256" type="curve" smooth="yes"/>
			<point x="595" y="86"/>
			<point x="529" y="5"/>
			<point x="388" y="3" type="curve"/>
			<point x="401" y="700" type="line"/>
			<point x="397" y="705" type="line"/>
			<point x="347" y="700" type="line"/>
			<point x="348" y="3" type="line"/>
			<point x="223" y="8"/>
			<point x="154" y="77"/>
			<point x="154" y="199" type="curve" smooth="yes"/>
			<point x="154" y="313"/>
			<point x="164" y="347"/>
			<point x="164" y="430" type="curve" smooth="yes"/>
			<point x="164" y="487"/>
			<point x="141" y="518"/>
			<point x="99" y="518" type="curve" smooth="yes"/>
			<point x="68" y="518"/>
			<point x="45" y="505"/>
			<point x="21" y="474" type="curve"/>
			<point x="27" y="467" type="line"/>
			<point x="47" y="480"/>
			<point x="57" y="487"/>
			<point x="78" y="487" type="curve" smooth="yes"/>
			<point x="104" y="487"/>
			<point x="118" y="465"/>
			<point x="118" y="424" type="curve" smooth="yes"/>
			<point x="118" y="339"/>
			<point x="109" y="291"/>
			<point x="109" y="203" type="curve" smooth="yes"/>
			<point x="109" y="59"/>
			<point x="186" y="-10"/>
			<point x="349" y="-14" type="curve"/>
		</contour>
	</outline>
</glyph>
<glyph name="kaiSymbol" format="2">
	<unicode hex="03D7"/>
	<advance width="539"/>
	<outline>
		<contour>
			<point x="322" y="-228" type="curve" smooth="yes"/>
			<point x="430" y="-228"/>
			<point x="509" y="-164"/>
			<point x="509" y="-77" type="curve" smooth="yes"/>
			<point x="509" y="19"/>
			<point x="481" y="64"/>
			<point x="357" y="169" type="curve" smooth="yes"/>
			<point x="262" y="247"/>
			<point x="264" y="312"/>
			<point x="264" y="333" type="curve" smooth="yes"/>
			<point x="264" y="403"/>
			<point x="354" y="507"/>
			<point x="411" y="504" type="curve"/>
			<point x="388" y="460"/>
			<point x="399" y="427"/>
			<point x="438" y="427" type="curve" smooth="yes"/>
			<point x="463" y="427"/>
			<point x="480" y="443"/>
			<point x="480" y="468" type="curve" smooth="yes"/>
			<point x="480" y="501"/>
			<point x="458" y="523"/>
			<point x="426" y="523" type="curve" smooth="yes"/>
			<point x="338" y="523"/>
			<point x="208" y="387"/>
			<point x="117" y="199" type="curve"/>
			<point x="118" y="354"/>
			<point x="121" y="408"/>
			<point x="125" y="511" type="curve"/>
			<point x="120" y="515" type="line"/>
			<point x="68" y="510" type="line"/>
			<point x="73" y="0" type="line"/>
			<point x="118" y="0" type="line"/>
			<point x="118" y="172" type="line"/>
			<point x="152" y="218"/>
			<point x="204" y="313"/>
			<point x="255" y="372" type="curve"/>
			<point x="245" y="333"/>
			<point x="239" y="297"/>
			<point x="239" y="266" type="curve" smooth="yes"/>
			<point x="239" y="207"/>
			<point x="266" y="163"/>
			<point x="335" y="107" type="curve" smooth="yes"/>
			<point x="441" y="20"/>
			<point x="481" y="-36"/>
			<point x="481" y="-96" type="curve" smooth="yes"/>
			<point x="481" y="-173"/>
			<point x="416" y="-216"/>
			<point x="302" y="-216" type="curve" smooth="yes"/>
			<point x="293" y="-216" type="line"/>
			<point x="293" y="-226" type="line"/>
			<point x="300" y="-227"/>
			<point x="305" y="-228"/>
		</contour>
	</outline>
</glyph>
<glyph name="KoppaArchaic" format="2">
	<unicode hex="03D8"/>
	<advance width="690"/>
	<outline>
		<contour>
			<point x="314" y="-206" type="line"/>
			<point x="367" y="-201" type="line"/>
			<point x="361" y="-72"/>
			<point x="358" y="-53"/>
			<point x="358" y="-14" type="curve"/>
			<point x="539" y="-8"/>
			<point x="640" y="133"/>
			<point x="640" y="379" type="curve" smooth="yes"/>
			<point x="640" y="610"/>
			<point x="533" y="744"/>
			<point x="348" y="744" type="curve" smooth="yes"/>
			<point x="157" y="744"/>
			<point x="50" y="604"/>
			<point x="50" y="354" type="curve" smooth="yes"/>
			<point x="50" y="135"/>
			<point x="149" y="0"/>
			<point x="319" y="-13" type="curve"/>
			<point x="319" y="-37"/>
			<point x="322" y="26"/>
			<point x="310" y="-202" type="curve"/>
		</contour>
		<contour>
			<point x="358" y="1" type="curve"/>
			<point x="359" y="51"/>
			<point x="364" y="153"/>
			<point x="369" y="250" type="curve"/>
			<point x="365" y="254" type="line"/>
			<point x="312" y="249" type="line"/>
			<point x="317" y="157"/>
			<point x="319" y="73"/>
			<point x="319" y="3" type="curve"/>
			<point x="180" y="21"/>
			<point x="103" y="151"/>
			<point x="103" y="370" type="curve" smooth="yes"/>
			<point x="103" y="606"/>
			<point x="185" y="729"/>
			<point x="341" y="729" type="curve" smooth="yes"/>
			<point x="500" y="729"/>
			<point x="587" y="601"/>
			<point x="587" y="366" type="curve" smooth="yes"/>
			<point x="587" y="128"/>
			<point x="509" y="4"/>
		</contour>
	</outline>
</glyph>
<glyph name="koppaArchaic" format="2">
	<unicode hex="03D9"/>
	<advance width="515"/>
	<outline>
		<contour>
			<point x="234" y="-163" type="line"/>
			<point x="289" y="-158" type="line"/>
			<point x="282" y="-88"/>
			<point x="280" y="-56"/>
			<point x="277" y="-13" type="curve"/>
			<point x="399" y="-4"/>
			<point x="473" y="103"/>
			<point x="473" y="270" type="curve" smooth="yes"/>
			<point x="473" y="423"/>
			<point x="391" y="521"/>
			<point x="264" y="521" type="curve" smooth="yes"/>
			<point x="126" y="521"/>
			<point x="42" y="418"/>
			<point x="42" y="248" type="curve" smooth="yes"/>
			<point x="42" y="94"/>
			<point x="119" y="-6"/>
			<point x="244" y="-14" type="curve"/>
			<point x="241" y="-60"/>
			<point x="238" y="-82"/>
			<point x="230" y="-159" type="curve"/>
		</contour>
		<contour>
			<point x="277" y="2" type="curve"/>
			<point x="282" y="47"/>
			<point x="286" y="91"/>
			<point x="291" y="136" type="curve"/>
			<point x="287" y="140" type="line"/>
			<point x="232" y="135" type="line"/>
			<point x="237" y="87"/>
			<point x="240" y="54"/>
			<point x="244" y="3" type="curve"/>
			<point x="145" y="14"/>
			<point x="93" y="104"/>
			<point x="93" y="263" type="curve" smooth="yes"/>
			<point x="93" y="424"/>
			<point x="148" y="506"/>
			<point x="257" y="506" type="curve" smooth="yes"/>
			<point x="367" y="506"/>
			<point x="422" y="420"/>
			<point x="422" y="248" type="curve" smooth="yes"/>
			<point x="422" y="92"/>
			<point x="373" y="8"/>
		</contour>
	</outline>
</glyph>
<glyph name="Stigma" format="2">
	<unicode hex="03DA"/>
	<advance width="554"/>
	<outline>
		<contour>
			<point x="415" y="-209" type="line"/>
			<point x="466" y="-161"/>
			<point x="487" y="-120"/>
			<point x="487" y="-70" type="curve" smooth="yes"/>
			<point x="487" y="5"/>
			<point x="453" y="36"/>
			<point x="330" y="71" type="curve" smooth="yes"/>
			<point x="164" y="119"/>
			<point x="101" y="202"/>
			<point x="101" y="374" type="curve" smooth="yes"/>
			<point x="101" y="595"/>
			<point x="194" y="729"/>
			<point x="347" y="729" type="curve" smooth="yes"/>
			<point x="400" y="729"/>
			<point x="436" y="717"/>
			<point x="462" y="690" type="curve"/>
			<point x="425" y="636"/>
			<point x="421" y="628"/>
			<point x="421" y="609" type="curve" smooth="yes"/>
			<point x="421" y="582"/>
			<point x="438" y="565"/>
			<point x="465" y="565" type="curve" smooth="yes"/>
			<point x="498" y="565"/>
			<point x="514" y="587"/>
			<point x="514" y="630" type="curve" smooth="yes"/>
			<point x="514" y="695"/>
			<point x="443" y="744"/>
			<point x="350" y="744" type="curve" smooth="yes"/>
			<point x="168" y="744"/>
			<point x="50" y="592"/>
			<point x="50" y="357" type="curve" smooth="yes"/>
			<point x="50" y="173"/>
			<point x="129" y="73"/>
			<point x="312" y="23" type="curve" smooth="yes"/>
			<point x="422" y="-7"/>
			<point x="460" y="-36"/>
			<point x="460" y="-89" type="curve" smooth="yes"/>
			<point x="460" y="-131"/>
			<point x="440" y="-175"/>
			<point x="409" y="-202" type="curve"/>
		</contour>
	</outline>
</glyph>
<glyph name="Koppa" format="2">
	<unicode hex="03DE"/>
	<advance width="527"/>
	<outline>
		<contour>
			<point x="283" y="-93" type="curve" smooth="yes"/>
			<point x="311" y="-93"/>
			<point x="340" y="-77"/>
			<point x="362" y="-49" type="curve"/>
			<point x="356" y="-42" type="line"/>
			<point x="339" y="-56"/>
			<point x="320" y="-62"/>
			<point x="298" y="-62" type="curve" smooth="yes"/>
			<point x="271" y="-62"/>
			<point x="254" y="-43"/>
			<point x="254" y="-15" type="curve" smooth="yes"/>
			<point x="254" y="49"/>
			<point x="286" y="106"/>
			<point x="431" y="299" type="curve" smooth="yes"/>
			<point x="483" y="368" type="line"/>
			<point x="467" y="390" type="line"/>
			<point x="97" y="190" type="line"/>
			<point x="281" y="421"/>
			<point x="315" y="473"/>
			<point x="315" y="532" type="curve" smooth="yes"/>
			<point x="315" y="580"/>
			<point x="286" y="610"/>
			<point x="239" y="610" type="curve" smooth="yes"/>
			<point x="211" y="610"/>
			<point x="182" y="594"/>
			<point x="160" y="566" type="curve"/>
			<point x="166" y="559" type="line"/>
			<point x="183" y="573"/>
			<point x="202" y="579"/>
			<point x="224" y="579" type="curve" smooth="yes"/>
			<point x="251" y="579"/>
			<point x="268" y="559"/>
			<point x="268" y="528" type="curve" smooth="yes"/>
			<point x="268" y="475"/>
			<point x="228" y="405"/>
			<point x="91" y="224" type="curve" smooth="yes"/>
			<point x="39" y="155" type="line"/>
			<point x="53" y="131" type="line"/>
			<point x="421" y="324" type="line"/>
			<point x="252" y="108"/>
			<point x="207" y="36"/>
			<point x="207" y="-20" type="curve" smooth="yes"/>
			<point x="207" y="-64"/>
			<point x="237" y="-93"/>
		</contour>
	</outline>
</glyph>
<glyph name="koppa" format="2">
	<unicode hex="03DF"/>
	<advance width="600"/>
	<outline>
		<contour>
			<point x="253" y="-52" type="curve" smooth="yes"/>
			<point x="284" y="-52"/>
			<point x="309" y="-38"/>
			<point x="333" y="-8" type="curve"/>
			<point x="327" y="-1" type="line"/>
			<point x="310" y="-15"/>
			<point x="293" y="-21"/>
			<point x="274" y="-21" type="curve" smooth="yes"/>
			<point x="247" y="-21"/>
			<point x="229" y="-5"/>
			<point x="229" y="20" type="curve" smooth="yes"/>
			<point x="229" y="52"/>
			<point x="248" y="79"/>
			<point x="313" y="141" type="curve" smooth="yes"/>
			<point x="434" y="255" type="line"/>
			<point x="434" y="261" type="line"/>
			<point x="164" y="261" type="line"/>
			<point x="267" y="361" type="line" smooth="yes"/>
			<point x="347" y="439"/>
			<point x="362" y="460"/>
			<point x="362" y="494" type="curve" smooth="yes"/>
			<point x="362" y="532"/>
			<point x="334" y="560"/>
			<point x="296" y="560" type="curve" smooth="yes"/>
			<point x="265" y="560"/>
			<point x="240" y="546"/>
			<point x="216" y="516" type="curve"/>
			<point x="222" y="509" type="line"/>
			<point x="239" y="523"/>
			<point x="256" y="529"/>
			<point x="275" y="529" type="curve" smooth="yes"/>
			<point x="302" y="529"/>
			<point x="320" y="513"/>
			<point x="320" y="488" type="curve" smooth="yes"/>
			<point x="320" y="459"/>
			<point x="304" y="436"/>
			<point x="236" y="367" type="curve" smooth="yes"/>
			<point x="95" y="223" type="line"/>
			<point x="95" y="217" type="line"/>
			<point x="365" y="217" type="line"/>
			<point x="282" y="147" type="line" smooth="yes"/>
			<point x="210" y="86"/>
			<point x="187" y="54"/>
			<point x="187" y="14" type="curve" smooth="yes"/>
			<point x="187" y="-24"/>
			<point x="215" y="-52"/>
		</contour>
	</outline>
</glyph>
<glyph name="Dje-cy" format="2">
	<unicode hex="0402"/>
	<advance width="754"/>
	<outline>
		<contour>
			<point x="550" y="-109" type="line"/>
			<point x="654" y="-7"/>
			<point x="704" y="115"/>
			<point x="704" y="227" type="curve" smooth="yes"/>
			<point x="704" y="360"/>
			<point x="614" y="428"/>
			<point x="497" y="428" type="curve" smooth="yes"/>
			<point x="409" y="428"/>
			<point x="341" y="399"/>
			<point x="295" y="372" type="curve"/>
			<point x="295" y="714" type="line"/>
			<point x="468" y="714" type="line" smooth="yes"/>
			<point x="564" y="714"/>
			<point x="584" y="694"/>
			<point x="633" y="526" type="curve"/>
			<point x="645" y="526" type="line"/>
			<point x="616" y="730" type="line"/>
			<point x="56" y="730" type="line"/>
			<point x="25" y="526" type="line"/>
			<point x="38" y="526" type="line"/>
			<point x="87" y="694"/>
			<point x="101" y="714"/>
			<point x="203" y="714" type="curve" smooth="yes"/>
			<point x="246" y="714" type="line"/>
			<point x="246" y="64" type="line" smooth="yes"/>
			<point x="246" y="28"/>
			<point x="239" y="18"/>
			<point x="213" y="16" type="curve" smooth="yes"/>
			<point x="151" y="12" type="line"/>
			<point x="151" y="0" type="line"/>
			<point x="390" y="0" type="line"/>
			<point x="390" y="12" type="line"/>
			<point x="328" y="16" type="line" smooth="yes"/>
			<point x="302" y="18"/>
			<point x="295" y="28"/>
			<point x="295" y="64" type="curve" smooth="yes"/>
			<point x="295" y="354" type="line"/>
			<point x="352" y="392"/>
			<point x="419" y="410"/>
			<point x="488" y="410" type="curve" smooth="yes"/>
			<point x="592" y="410"/>
			<point x="655" y="349"/>
			<point x="655" y="217" type="curve" smooth="yes"/>
			<point x="655" y="120"/>
			<point x="627" y="4"/>
			<point x="545" y="-100" type="curve"/>
		</contour>
	</outline>
</glyph>
<glyph name="Be-cy" format="2">
	<unicode hex="0411"/>
	<advance width="602"/>
	<outline>
		<contour>
			<point x="55" y="0" type="line"/>
			<point x="283" y="0" type="line" smooth="yes"/>
			<point x="436" y="0"/>
			<point x="552" y="66"/>
			<point x="552" y="223" type="curve" smooth="yes"/>
			<point x="552" y="356"/>
			<point x="437" y="407"/>
			<point x="296" y="407" type="curve" smooth="yes"/>
			<point x="257" y="407"/>
			<point x="224" y="404"/>
			<point x="199" y="401" type="curve"/>
			<point x="199" y="714" type="line"/>
			<point x="337" y="714" type="line" smooth="yes"/>
			<point x="441" y="714"/>
			<point x="468" y="678"/>
			<point x="508" y="550" type="curve"/>
			<point x="520" y="553" type="line"/>
			<point x="486" y="730" type="line"/>
			<point x="55" y="730" type="line"/>
			<point x="55" y="718" type="line"/>
			<point x="117" y="714" type="line" smooth="yes"/>
			<point x="143" y="712"/>
			<point x="150" y="702"/>
			<point x="150" y="666" type="curve" smooth="yes"/>
			<point x="150" y="63" type="line" smooth="yes"/>
			<point x="150" y="29"/>
			<point x="144" y="19"/>
			<point x="119" y="17" type="curve" smooth="yes"/>
			<point x="55" y="12" type="line"/>
		</contour>
		<contour>
			<point x="279" y="17" type="curve" smooth="yes"/>
			<point x="249" y="17"/>
			<point x="212" y="20"/>
			<point x="199" y="22" type="curve"/>
			<point x="199" y="384" type="line"/>
			<point x="221" y="387"/>
			<point x="249" y="390"/>
			<point x="291" y="390" type="curve" smooth="yes"/>
			<point x="427" y="390"/>
			<point x="501" y="335"/>
			<point x="501" y="212" type="curve" smooth="yes"/>
			<point x="501" y="75"/>
			<point x="416" y="17"/>
		</contour>
	</outline>
</glyph>
<glyph name="Ge-cy" format="2">
	<unicode hex="0413"/>
	<advance width="544"/>
	<outline>
		<contour>
			<point x="55" y="0" type="line"/>
			<point x="336" y="0" type="line"/>
			<point x="336" y="12" type="line"/>
			<point x="234" y="16" type="line" smooth="yes"/>
			<point x="207" y="17"/>
			<point x="199" y="29"/>
			<point x="199" y="63" type="curve" smooth="yes"/>
			<point x="199" y="714" type="line"/>
			<point x="350" y="714" type="line" smooth="yes"/>
			<point x="458" y="714"/>
			<point x="485" y="655"/>
			<point x="515" y="527" type="curve"/>
			<point x="527" y="530" type="line"/>
			<point x="499" y="730" type="line"/>
			<point x="55" y="730" type="line"/>
			<point x="55" y="718" type="line"/>
			<point x="117" y="714" type="line" smooth="yes"/>
			<point x="143" y="712"/>
			<point x="150" y="702"/>
			<point x="150" y="666" type="curve" smooth="yes"/>
			<point x="150" y="63" type="line" smooth="yes"/>
			<point x="150" y="29"/>
			<point x="144" y="19"/>
			<point x="119" y="17" type="curve" smooth="yes"/>
			<point x="55" y="12" type="line"/>
		</contour>
	</outline>
	<anchor name="top" x="307" y="730"/>
</glyph>
<glyph name="Ze-cy" format="2">
	<unicode hex="0417"/>
	<advance width="533"/>
	<outline>
		<contour>
			<point x="268" y="-14" type="curve" smooth="yes"/>
			<point x="387" y="-14"/>
			<point x="483" y="70"/>
			<point x="483" y="209" type="curve" smooth="yes"/>
			<point x="483" y="301"/>
			<point x="422" y="370"/>
			<point x="302" y="388" type="curve"/>
			<point x="302" y="389" type="line"/>
			<point x="395" y="411"/>
			<point x="452" y="483"/>
			<point x="452" y="582" type="curve" smooth="yes"/>
			<point x="452" y="675"/>
			<point x="384" y="743"/>
			<point x="277" y="743" type="curve" smooth="yes"/>
			<point x="175" y="743"/>
			<point x="128" y="689"/>
			<point x="94" y="641" type="curve"/>
			<point x="63" y="740" type="line"/>
			<point x="51" y="740" type="line"/>
			<point x="74" y="520" type="line"/>
			<point x="86" y="520" type="line"/>
			<point x="86" y="641"/>
			<point x="163" y="727"/>
			<point x="261" y="727" type="curve" smooth="yes"/>
			<point x="354" y="727"/>
			<point x="401" y="668"/>
			<point x="401" y="570" type="curve" smooth="yes"/>
			<point x="401" y="459"/>
			<point x="338" y="392"/>
			<point x="237" y="392" type="curve" smooth="yes"/>
			<point x="166" y="392" type="line"/>
			<point x="165" y="376" type="line"/>
			<point x="246" y="376" type="line" smooth="yes"/>
			<point x="355" y="376"/>
			<point x="431" y="326"/>
			<point x="431" y="205" type="curve" smooth="yes"/>
			<point x="431" y="89"/>
			<point x="364" y="11"/>
			<point x="256" y="11" type="curve" smooth="yes"/>
			<point x="159" y="11"/>
			<point x="85" y="55"/>
			<point x="44" y="169" type="curve"/>
			<point x="30" y="163" type="line"/>
			<point x="63" y="53"/>
			<point x="141" y="-14"/>
		</contour>
	</outline>
	<guideline x="822" y="11" angle="0"/>
</glyph>
<glyph name="Ii-cy" format="2">
	<unicode hex="0418"/>
	<advance width="777"/>
	<outline>
		<contour>
			<point x="55" y="0" type="line"/>
			<point x="293" y="0" type="line"/>
			<point x="293" y="12" type="line"/>
			<point x="231" y="17" type="line" smooth="yes"/>
			<point x="205" y="19"/>
			<point x="200" y="31"/>
			<point x="200" y="62" type="curve" smooth="yes"/>
			<point x="200" y="72" type="line"/>
			<point x="578" y="632" type="line"/>
			<point x="578" y="63" type="line" smooth="yes"/>
			<point x="578" y="29"/>
			<point x="572" y="19"/>
			<point x="547" y="17" type="curve" smooth="yes"/>
			<point x="483" y="12" type="line"/>
			<point x="483" y="0" type="line"/>
			<point x="722" y="0" type="line"/>
			<point x="722" y="12" type="line"/>
			<point x="660" y="17" type="line" smooth="yes"/>
			<point x="634" y="19"/>
			<point x="627" y="29"/>
			<point x="627" y="62" type="curve" smooth="yes"/>
			<point x="627" y="665" type="line" smooth="yes"/>
			<point x="627" y="702"/>
			<point x="633" y="712"/>
			<point x="658" y="714" type="curve" smooth="yes"/>
			<point x="722" y="718" type="line"/>
			<point x="722" y="730" type="line"/>
			<point x="483" y="730" type="line"/>
			<point x="483" y="718" type="line"/>
			<point x="545" y="714" type="line" smooth="yes"/>
			<point x="571" y="712"/>
			<point x="578" y="702"/>
			<point x="578" y="666" type="curve" smooth="yes"/>
			<point x="578" y="662" type="line"/>
			<point x="200" y="104" type="line"/>
			<point x="200" y="665" type="line" smooth="yes"/>
			<point x="200" y="701"/>
			<point x="205" y="712"/>
			<point x="229" y="714" type="curve" smooth="yes"/>
			<point x="293" y="718" type="line"/>
			<point x="293" y="730" type="line"/>
			<point x="55" y="730" type="line"/>
			<point x="55" y="718" type="line"/>
			<point x="119" y="714" type="line" smooth="yes"/>
			<point x="145" y="712"/>
			<point x="151" y="700"/>
			<point x="151" y="666" type="curve" smooth="yes"/>
			<point x="151" y="63" type="line" smooth="yes"/>
			<point x="151" y="29"/>
			<point x="145" y="19"/>
			<point x="120" y="17" type="curve" smooth="yes"/>
			<point x="55" y="12" type="line"/>
		</contour>
	</outline>
	<anchor name="top" x="394" y="727"/>
	<guideline x="1127" y="364" angle="0"/>
	<guideline x="1128" y="380" angle="0"/>
</glyph>
<glyph name="Ka-cy" format="2">
	<unicode hex="041A"/>
	<advance width="668"/>
	<outline>
		<contour>
			<point x="585" y="-14" type="curve" smooth="yes"/>
			<point x="610" y="-14"/>
			<point x="638" y="-3"/>
			<point x="658" y="20" type="curve"/>
			<point x="652" y="26" type="line"/>
			<point x="639" y="15"/>
			<point x="620" y="7"/>
			<point x="597" y="7" type="curve" smooth="yes"/>
			<point x="553" y="7"/>
			<point x="523" y="65"/>
			<point x="473" y="198" type="curve" smooth="yes"/>
			<point x="431" y="309"/>
			<point x="387" y="357"/>
			<point x="289" y="364" type="curve"/>
			<point x="289" y="367" type="line"/>
			<point x="367" y="397"/>
			<point x="399" y="462"/>
			<point x="435" y="573" type="curve" smooth="yes"/>
			<point x="449" y="616"/>
			<point x="466" y="664"/>
			<point x="481" y="685" type="curve"/>
			<point x="496" y="656"/>
			<point x="513" y="638"/>
			<point x="541" y="638" type="curve" smooth="yes"/>
			<point x="563" y="638"/>
			<point x="590" y="660"/>
			<point x="590" y="690" type="curve" smooth="yes"/>
			<point x="590" y="719"/>
			<point x="565" y="739"/>
			<point x="535" y="739" type="curve" smooth="yes"/>
			<point x="479" y="739"/>
			<point x="459" y="701"/>
			<point x="421" y="584" type="curve" smooth="yes"/>
			<point x="378" y="453"/>
			<point x="344" y="411"/>
			<point x="303" y="389" type="curve" smooth="yes"/>
			<point x="277" y="375"/>
			<point x="251" y="370"/>
			<point x="200" y="370" type="curve"/>
			<point x="200" y="665" type="line" smooth="yes"/>
			<point x="200" y="701"/>
			<point x="205" y="712"/>
			<point x="229" y="714" type="curve" smooth="yes"/>
			<point x="293" y="718" type="line"/>
			<point x="293" y="730" type="line"/>
			<point x="55" y="730" type="line"/>
			<point x="55" y="718" type="line"/>
			<point x="119" y="714" type="line" smooth="yes"/>
			<point x="145" y="712"/>
			<point x="151" y="700"/>
			<point x="151" y="666" type="curve" smooth="yes"/>
			<point x="151" y="63" type="line" smooth="yes"/>
			<point x="151" y="29"/>
			<point x="145" y="19"/>
			<point x="120" y="17" type="curve" smooth="yes"/>
			<point x="55" y="12" type="line"/>
			<point x="55" y="0" type="line"/>
			<point x="293" y="0" type="line"/>
			<point x="293" y="12" type="line"/>
			<point x="231" y="17" type="line" smooth="yes"/>
			<point x="205" y="19"/>
			<point x="200" y="31"/>
			<point x="200" y="62" type="curve" smooth="yes"/>
			<point x="200" y="355" type="line"/>
			<point x="242" y="355" type="line" smooth="yes"/>
			<point x="336" y="355"/>
			<point x="373" y="324"/>
			<point x="433" y="167" type="curve" smooth="yes"/>
			<point x="485" y="30"/>
			<point x="504" y="-14"/>
		</contour>
	</outline>
	<anchor name="top" x="380" y="730"/>
</glyph>
<glyph name="El-cy" format="2">
	<unicode hex="041B"/>
	<advance width="691"/>
	<outline>
		<contour>
			<point x="65" y="-12" type="curve" smooth="yes"/>
			<point x="152" y="-12"/>
			<point x="189" y="148"/>
			<point x="206" y="312" type="curve" smooth="yes"/>
			<point x="219" y="441"/>
			<point x="224" y="613"/>
			<point x="224" y="714" type="curve"/>
			<point x="492" y="714" type="line"/>
			<point x="492" y="63" type="line" smooth="yes"/>
			<point x="492" y="29"/>
			<point x="486" y="19"/>
			<point x="461" y="17" type="curve" smooth="yes"/>
			<point x="397" y="12" type="line"/>
			<point x="397" y="0" type="line"/>
			<point x="636" y="0" type="line"/>
			<point x="636" y="12" type="line"/>
			<point x="574" y="17" type="line" smooth="yes"/>
			<point x="548" y="19"/>
			<point x="541" y="29"/>
			<point x="541" y="62" type="curve" smooth="yes"/>
			<point x="541" y="665" type="line" smooth="yes"/>
			<point x="541" y="702"/>
			<point x="547" y="712"/>
			<point x="572" y="714" type="curve" smooth="yes"/>
			<point x="636" y="718" type="line"/>
			<point x="636" y="730" type="line"/>
			<point x="106" y="730" type="line"/>
			<point x="106" y="718" type="line"/>
			<point x="170" y="714" type="line" smooth="yes"/>
			<point x="195" y="712"/>
			<point x="202" y="701"/>
			<point x="202" y="670" type="curve" smooth="yes"/>
			<point x="202" y="467"/>
			<point x="184" y="133"/>
			<point x="115" y="42" type="curve"/>
			<point x="97" y="71"/>
			<point x="82" y="89"/>
			<point x="54" y="89" type="curve" smooth="yes"/>
			<point x="32" y="89"/>
			<point x="5" y="67"/>
			<point x="5" y="37" type="curve" smooth="yes"/>
			<point x="5" y="8"/>
			<point x="31" y="-12"/>
		</contour>
	</outline>
</glyph>
<glyph name="Che-cy" format="2">
	<unicode hex="0427"/>
	<advance width="714"/>
	<outline>
		<contour>
			<point x="418" y="0" type="line"/>
			<point x="659" y="0" type="line"/>
			<point x="659" y="12" type="line"/>
			<point x="595" y="17" type="line" smooth="yes"/>
			<point x="570" y="19"/>
			<point x="564" y="29"/>
			<point x="564" y="63" type="curve" smooth="yes"/>
			<point x="564" y="666" type="line" smooth="yes"/>
			<point x="564" y="702"/>
			<point x="571" y="712"/>
			<point x="597" y="714" type="curve" smooth="yes"/>
			<point x="659" y="718" type="line"/>
			<point x="659" y="730" type="line"/>
			<point x="420" y="730" type="line"/>
			<point x="420" y="718" type="line"/>
			<point x="482" y="714" type="line" smooth="yes"/>
			<point x="508" y="712"/>
			<point x="515" y="702"/>
			<point x="515" y="666" type="curve" smooth="yes"/>
			<point x="515" y="376" type="line"/>
			<point x="458" y="336"/>
			<point x="403" y="317"/>
			<point x="340" y="317" type="curve" smooth="yes"/>
			<point x="233" y="317"/>
			<point x="172" y="380"/>
			<point x="172" y="499" type="curve" smooth="yes"/>
			<point x="172" y="665" type="line" smooth="yes"/>
			<point x="172" y="701"/>
			<point x="177" y="712"/>
			<point x="201" y="714" type="curve" smooth="yes"/>
			<point x="265" y="718" type="line"/>
			<point x="265" y="730" type="line"/>
			<point x="27" y="730" type="line"/>
			<point x="27" y="718" type="line"/>
			<point x="91" y="714" type="line" smooth="yes"/>
			<point x="117" y="712"/>
			<point x="123" y="700"/>
			<point x="123" y="666" type="curve" smooth="yes"/>
			<point x="123" y="489" type="line" smooth="yes"/>
			<point x="123" y="369"/>
			<point x="205" y="300"/>
			<point x="331" y="300" type="curve" smooth="yes"/>
			<point x="411" y="300"/>
			<point x="469" y="329"/>
			<point x="515" y="359" type="curve"/>
			<point x="515" y="63" type="line" smooth="yes"/>
			<point x="515" y="29"/>
			<point x="507" y="18"/>
			<point x="480" y="16" type="curve" smooth="yes"/>
			<point x="418" y="12" type="line"/>
		</contour>
	</outline>
</glyph>
<glyph name="Sha-cy" format="2">
	<unicode hex="0428"/>
	<advance width="1078"/>
	<outline>
		<contour>
			<point x="55" y="0" type="line"/>
			<point x="1023" y="0" type="line"/>
			<point x="1023" y="12" type="line"/>
			<point x="961" y="17" type="line" smooth="yes"/>
			<point x="935" y="19"/>
			<point x="928" y="29"/>
			<point x="928" y="62" type="curve" smooth="yes"/>
			<point x="928" y="665" type="line" smooth="yes"/>
			<point x="928" y="702"/>
			<point x="934" y="712"/>
			<point x="959" y="714" type="curve" smooth="yes"/>
			<point x="1023" y="718" type="line"/>
			<point x="1023" y="730" type="line"/>
			<point x="784" y="730" type="line"/>
			<point x="784" y="718" type="line"/>
			<point x="846" y="714" type="line" smooth="yes"/>
			<point x="872" y="712"/>
			<point x="879" y="702"/>
			<point x="879" y="666" type="curve" smooth="yes"/>
			<point x="879" y="16" type="line"/>
			<point x="564" y="16" type="line"/>
			<point x="564" y="665" type="line" smooth="yes"/>
			<point x="564" y="702"/>
			<point x="570" y="712"/>
			<point x="595" y="714" type="curve" smooth="yes"/>
			<point x="659" y="718" type="line"/>
			<point x="659" y="730" type="line"/>
			<point x="420" y="730" type="line"/>
			<point x="420" y="718" type="line"/>
			<point x="482" y="714" type="line" smooth="yes"/>
			<point x="508" y="712"/>
			<point x="515" y="702"/>
			<point x="515" y="666" type="curve" smooth="yes"/>
			<point x="515" y="16" type="line"/>
			<point x="200" y="16" type="line"/>
			<point x="200" y="665" type="line" smooth="yes"/>
			<point x="200" y="701"/>
			<point x="205" y="712"/>
			<point x="229" y="714" type="curve" smooth="yes"/>
			<point x="293" y="718" type="line"/>
			<point x="293" y="730" type="line"/>
			<point x="55" y="730" type="line"/>
			<point x="55" y="718" type="line"/>
			<point x="119" y="714" type="line" smooth="yes"/>
			<point x="145" y="712"/>
			<point x="151" y="700"/>
			<point x="151" y="666" type="curve" smooth="yes"/>
			<point x="151" y="63" type="line" smooth="yes"/>
			<point x="151" y="29"/>
			<point x="145" y="19"/>
			<point x="120" y="17" type="curve" smooth="yes"/>
			<point x="55" y="12" type="line"/>
		</contour>
	</outline>
	<guideline x="377" y="364" angle="0"/>
	<guideline x="371" y="380" angle="0"/>
</glyph>
<glyph name="Shcha-cy" format="2">
	<unicode hex="0429"/>
	<advance width="1071"/>
	<outline>
		<contour>
			<point x="1028" y="-167" type="line"/>
			<point x="1041" y="-166" type="line"/>
			<point x="1041" y="16" type="line"/>
			<point x="928" y="16" type="line"/>
			<point x="928" y="665" type="line" smooth="yes"/>
			<point x="928" y="702"/>
			<point x="934" y="712"/>
			<point x="959" y="714" type="curve" smooth="yes"/>
			<point x="1023" y="718" type="line"/>
			<point x="1023" y="730" type="line"/>
			<point x="784" y="730" type="line"/>
			<point x="784" y="718" type="line"/>
			<point x="846" y="714" type="line" smooth="yes"/>
			<point x="872" y="712"/>
			<point x="879" y="702"/>
			<point x="879" y="666" type="curve" smooth="yes"/>
			<point x="879" y="16" type="line"/>
			<point x="564" y="16" type="line"/>
			<point x="564" y="665" type="line" smooth="yes"/>
			<point x="564" y="702"/>
			<point x="570" y="712"/>
			<point x="595" y="714" type="curve" smooth="yes"/>
			<point x="659" y="718" type="line"/>
			<point x="659" y="730" type="line"/>
			<point x="420" y="730" type="line"/>
			<point x="420" y="718" type="line"/>
			<point x="482" y="714" type="line" smooth="yes"/>
			<point x="508" y="712"/>
			<point x="515" y="702"/>
			<point x="515" y="666" type="curve" smooth="yes"/>
			<point x="515" y="16" type="line"/>
			<point x="200" y="16" type="line"/>
			<point x="200" y="665" type="line" smooth="yes"/>
			<point x="200" y="701"/>
			<point x="205" y="712"/>
			<point x="229" y="714" type="curve" smooth="yes"/>
			<point x="293" y="718" type="line"/>
			<point x="293" y="730" type="line"/>
			<point x="55" y="730" type="line"/>
			<point x="55" y="718" type="line"/>
			<point x="119" y="714" type="line" smooth="yes"/>
			<point x="145" y="712"/>
			<point x="151" y="700"/>
			<point x="151" y="666" type="curve" smooth="yes"/>
			<point x="151" y="63" type="line" smooth="yes"/>
			<point x="151" y="29"/>
			<point x="145" y="19"/>
			<point x="120" y="17" type="curve" smooth="yes"/>
			<point x="55" y="12" type="line"/>
			<point x="55" y="0" type="line"/>
			<point x="933" y="0" type="line" smooth="yes"/>
			<point x="989" y="0"/>
			<point x="1011" y="-19"/>
			<point x="1019" y="-90" type="curve" smooth="yes"/>
		</contour>
	</outline>
</glyph>
<glyph name="Hardsign-cy" format="2">
	<unicode hex="042A"/>
	<advance width="698"/>
	<outline>
		<contour>
			<point x="159" y="0" type="line"/>
			<point x="384" y="0" type="line" smooth="yes"/>
			<point x="537" y="0"/>
			<point x="653" y="62"/>
			<point x="653" y="219" type="curve" smooth="yes"/>
			<point x="653" y="352"/>
			<point x="538" y="402"/>
			<point x="397" y="402" type="curve" smooth="yes"/>
			<point x="358" y="402"/>
			<point x="328" y="399"/>
			<point x="303" y="396" type="curve"/>
			<point x="303" y="665" type="line" smooth="yes"/>
			<point x="303" y="702"/>
			<point x="309" y="712"/>
			<point x="334" y="714" type="curve" smooth="yes"/>
			<point x="398" y="718" type="line"/>
			<point x="398" y="730" type="line"/>
			<point x="48" y="730" type="line"/>
			<point x="17" y="526" type="line"/>
			<point x="30" y="526" type="line"/>
			<point x="79" y="694"/>
			<point x="93" y="714"/>
			<point x="195" y="714" type="curve" smooth="yes"/>
			<point x="254" y="714" type="line"/>
			<point x="254" y="63" type="line" smooth="yes"/>
			<point x="254" y="29"/>
			<point x="248" y="19"/>
			<point x="223" y="17" type="curve" smooth="yes"/>
			<point x="159" y="12" type="line"/>
		</contour>
		<contour>
			<point x="303" y="22" type="curve"/>
			<point x="303" y="379" type="line"/>
			<point x="325" y="382"/>
			<point x="350" y="385"/>
			<point x="392" y="385" type="curve" smooth="yes"/>
			<point x="528" y="385"/>
			<point x="602" y="329"/>
			<point x="602" y="206" type="curve" smooth="yes"/>
			<point x="602" y="69"/>
			<point x="517" y="17"/>
			<point x="380" y="17" type="curve" smooth="yes"/>
			<point x="350" y="17"/>
			<point x="316" y="20"/>
		</contour>
	</outline>
	<anchor name="top" x="187" y="730"/>
</glyph>
<glyph name="Ereversed-cy" format="2">
	<unicode hex="042D"/>
	<advance width="622"/>
	<outline>
		<contour>
			<point x="278" y="-14" type="curve" smooth="yes"/>
			<point x="446" y="-14"/>
			<point x="572" y="129"/>
			<point x="572" y="386" type="curve" smooth="yes"/>
			<point x="572" y="593"/>
			<point x="455" y="744"/>
			<point x="296" y="744" type="curve" smooth="yes"/>
			<point x="190" y="744"/>
			<point x="136" y="702"/>
			<point x="91" y="639" type="curve"/>
			<point x="60" y="739" type="line"/>
			<point x="48" y="739" type="line"/>
			<point x="71" y="520" type="line"/>
			<point x="83" y="520" type="line"/>
			<point x="83" y="651"/>
			<point x="170" y="728"/>
			<point x="285" y="728" type="curve" smooth="yes"/>
			<point x="424" y="728"/>
			<point x="519" y="595"/>
			<point x="521" y="373" type="curve"/>
			<point x="154" y="373" type="line"/>
			<point x="154" y="357" type="line"/>
			<point x="521" y="357" type="line"/>
			<point x="513" y="149"/>
			<point x="414" y="14"/>
			<point x="270" y="14" type="curve" smooth="yes"/>
			<point x="159" y="14"/>
			<point x="87" y="72"/>
			<point x="50" y="171" type="curve"/>
			<point x="36" y="165" type="line"/>
			<point x="71" y="55"/>
			<point x="159" y="-14"/>
		</contour>
	</outline>
	<anchor name="top" x="285" y="728"/>
	<guideline x="-93" y="744" angle="0"/>
</glyph>
